<svg xmlns="http://www.w3.org/2000/svg" xmlns:xlink="http://www.w3.org/1999/xlink" width="500" zoomAndPan="magnify" viewBox="0 0 375 374.999991" height="500" preserveAspectRatio="xMidYMid meet" version="1.0"><defs><g/><clipPath id="382262117b"><path d="M 90.320312 124.503906 L 277.070312 124.503906 L 277.070312 258 L 90.320312 258 Z M 90.320312 124.503906 " clip-rule="nonzero"/></clipPath><clipPath id="d378d83540"><path d="M 149.191406 15.621094 L 203.941406 15.621094 L 203.941406 60.621094 L 149.191406 60.621094 Z M 149.191406 15.621094 " clip-rule="nonzero"/></clipPath></defs><g fill="#ff5b4d" fill-opacity="1"><g transform="translate(36.368486, 122.455817)"><g><path d="M -2.734375 5.484375 C -2.234375 4.390625 -1.65625 3.546875 -1 2.953125 C -0.34375 2.367188 0.320312 2.003906 1 1.859375 C 1.6875 1.722656 2.328125 1.78125 2.921875 2.03125 C 3.023438 2.082031 3.09375 2.15625 3.125 2.25 C 3.164062 2.351562 3.164062 2.457031 3.125 2.5625 L 2.265625 4.40625 C 2.203125 4.550781 2.125 4.648438 2.03125 4.703125 C 1.9375 4.753906 1.828125 4.785156 1.703125 4.796875 C 1.460938 4.804688 1.210938 4.851562 0.953125 4.9375 C 0.691406 5.019531 0.429688 5.1875 0.171875 5.4375 C -0.078125 5.6875 -0.304688 6.039062 -0.515625 6.5 C -0.859375 7.238281 -0.992188 7.847656 -0.921875 8.328125 C -0.859375 8.816406 -0.625 9.15625 -0.21875 9.34375 C 0.0625 9.46875 0.34375 9.472656 0.625 9.359375 C 0.90625 9.242188 1.21875 9.007812 1.5625 8.65625 C 1.90625 8.300781 2.316406 7.804688 2.796875 7.171875 C 3.390625 6.398438 3.96875 5.785156 4.53125 5.328125 C 5.09375 4.867188 5.671875 4.59375 6.265625 4.5 C 6.867188 4.40625 7.507812 4.515625 8.1875 4.828125 C 8.875 5.140625 9.394531 5.609375 9.75 6.234375 C 10.101562 6.859375 10.273438 7.578125 10.265625 8.390625 C 10.253906 9.210938 10.03125 10.097656 9.59375 11.046875 C 9.238281 11.796875 8.820312 12.414062 8.34375 12.90625 C 7.875 13.40625 7.382812 13.773438 6.875 14.015625 C 6.363281 14.253906 5.875 14.390625 5.40625 14.421875 C 4.9375 14.453125 4.523438 14.390625 4.171875 14.234375 C 4.066406 14.191406 3.988281 14.117188 3.9375 14.015625 C 3.894531 13.921875 3.898438 13.816406 3.953125 13.703125 L 4.828125 11.8125 C 4.878906 11.695312 4.945312 11.601562 5.03125 11.53125 C 5.125 11.457031 5.242188 11.410156 5.390625 11.390625 C 5.722656 11.484375 6.070312 11.410156 6.4375 11.171875 C 6.8125 10.929688 7.125 10.550781 7.375 10.03125 C 7.625 9.46875 7.722656 8.972656 7.671875 8.546875 C 7.628906 8.128906 7.398438 7.828125 6.984375 7.640625 C 6.703125 7.515625 6.425781 7.492188 6.15625 7.578125 C 5.894531 7.660156 5.601562 7.863281 5.28125 8.1875 C 4.96875 8.507812 4.578125 8.960938 4.109375 9.546875 C 3.453125 10.453125 2.832031 11.148438 2.25 11.640625 C 1.664062 12.128906 1.082031 12.414062 0.5 12.5 C -0.0820312 12.59375 -0.71875 12.484375 -1.40625 12.171875 C -2.15625 11.816406 -2.707031 11.300781 -3.0625 10.625 C -3.414062 9.957031 -3.5625 9.175781 -3.5 8.28125 C -3.445312 7.394531 -3.191406 6.460938 -2.734375 5.484375 Z M -2.734375 5.484375 "/></g></g></g><g fill="#ff5b4d" fill-opacity="1"><g transform="translate(27.391476, 144.018236)"><g><path d="M -0.5625 1.75 C -0.519531 1.632812 -0.441406 1.546875 -0.328125 1.484375 C -0.222656 1.429688 -0.101562 1.425781 0.03125 1.46875 L 11.640625 5.1875 C 11.785156 5.226562 11.882812 5.300781 11.9375 5.40625 C 11.988281 5.519531 11.992188 5.632812 11.953125 5.75 L 11.296875 7.8125 C 11.253906 7.925781 11.179688 8.007812 11.078125 8.0625 C 10.972656 8.125 10.847656 8.132812 10.703125 8.09375 L -0.90625 4.375 C -1.039062 4.332031 -1.132812 4.253906 -1.1875 4.140625 C -1.25 4.035156 -1.257812 3.925781 -1.21875 3.8125 Z M -0.5625 1.75 "/></g></g></g><g fill="#ff5b4d" fill-opacity="1"><g transform="translate(22.68029, 160.329441)"><g><path d="M -1.328125 5.984375 C -1.097656 4.796875 -0.734375 3.835938 -0.234375 3.109375 C 0.253906 2.378906 0.8125 1.863281 1.4375 1.5625 C 2.0625 1.257812 2.695312 1.160156 3.34375 1.265625 C 3.457031 1.285156 3.539062 1.335938 3.59375 1.421875 C 3.65625 1.503906 3.675781 1.601562 3.65625 1.71875 L 3.28125 3.71875 C 3.25 3.863281 3.191406 3.972656 3.109375 4.046875 C 3.035156 4.128906 2.9375 4.195312 2.8125 4.25 C 2.582031 4.300781 2.347656 4.398438 2.109375 4.546875 C 1.878906 4.703125 1.671875 4.929688 1.484375 5.234375 C 1.296875 5.546875 1.15625 5.945312 1.0625 6.4375 C 0.914062 7.238281 0.9375 7.859375 1.125 8.296875 C 1.3125 8.742188 1.625 9.007812 2.0625 9.09375 C 2.363281 9.15625 2.632812 9.097656 2.875 8.921875 C 3.125 8.742188 3.367188 8.441406 3.609375 8.015625 C 3.859375 7.585938 4.144531 7.003906 4.46875 6.265625 C 4.832031 5.390625 5.234375 4.65625 5.671875 4.0625 C 6.109375 3.476562 6.609375 3.066406 7.171875 2.828125 C 7.742188 2.597656 8.394531 2.554688 9.125 2.703125 C 9.863281 2.835938 10.476562 3.164062 10.96875 3.6875 C 11.46875 4.207031 11.804688 4.863281 11.984375 5.65625 C 12.171875 6.457031 12.164062 7.367188 11.96875 8.390625 C 11.820312 9.210938 11.578125 9.921875 11.234375 10.515625 C 10.890625 11.109375 10.5 11.582031 10.0625 11.9375 C 9.625 12.289062 9.179688 12.539062 8.734375 12.6875 C 8.285156 12.832031 7.875 12.875 7.5 12.8125 C 7.382812 12.789062 7.289062 12.738281 7.21875 12.65625 C 7.15625 12.570312 7.140625 12.46875 7.171875 12.34375 L 7.546875 10.28125 C 7.578125 10.15625 7.625 10.046875 7.6875 9.953125 C 7.75 9.867188 7.851562 9.800781 8 9.75 C 8.34375 9.75 8.664062 9.585938 8.96875 9.265625 C 9.269531 8.953125 9.472656 8.507812 9.578125 7.9375 C 9.691406 7.332031 9.675781 6.832031 9.53125 6.4375 C 9.382812 6.050781 9.082031 5.816406 8.625 5.734375 C 8.332031 5.671875 8.066406 5.710938 7.828125 5.859375 C 7.597656 6.003906 7.363281 6.269531 7.125 6.65625 C 6.882812 7.039062 6.609375 7.578125 6.296875 8.265625 C 5.890625 9.285156 5.460938 10.109375 5.015625 10.734375 C 4.566406 11.359375 4.066406 11.78125 3.515625 12 C 2.972656 12.226562 2.335938 12.273438 1.609375 12.140625 C 0.785156 11.984375 0.117188 11.617188 -0.390625 11.046875 C -0.898438 10.484375 -1.234375 9.765625 -1.390625 8.890625 C -1.546875 8.015625 -1.523438 7.046875 -1.328125 5.984375 Z M -1.328125 5.984375 "/></g></g></g><g fill="#ff5b4d" fill-opacity="1"><g transform="translate(19.114425, 183.546772)"><g><path d="M -0.21875 4.75 C -0.207031 4.613281 -0.15625 4.503906 -0.0625 4.421875 C 0.0195312 4.335938 0.128906 4.296875 0.265625 4.296875 L 10.296875 4.765625 L 10.453125 1.34375 C 10.460938 1.21875 10.515625 1.113281 10.609375 1.03125 C 10.703125 0.945312 10.816406 0.910156 10.953125 0.921875 L 12.640625 0.984375 C 12.785156 0.992188 12.894531 1.046875 12.96875 1.140625 C 13.050781 1.234375 13.085938 1.34375 13.078125 1.46875 L 12.625 11.296875 C 12.625 11.429688 12.578125 11.539062 12.484375 11.625 C 12.398438 11.707031 12.285156 11.742188 12.140625 11.734375 L 10.453125 11.671875 C 10.316406 11.660156 10.207031 11.609375 10.125 11.515625 C 10.039062 11.421875 10 11.304688 10 11.171875 L 10.15625 7.78125 L 0.125 7.3125 C -0.0078125 7.3125 -0.117188 7.265625 -0.203125 7.171875 C -0.285156 7.085938 -0.320312 6.976562 -0.3125 6.84375 Z M -0.21875 4.75 "/></g></g></g><g fill="#ff5b4d" fill-opacity="1"><g transform="translate(18.834198, 206.368294)"><g><path d="M 0.171875 1.828125 C 0.160156 1.710938 0.191406 1.601562 0.265625 1.5 C 0.347656 1.40625 0.457031 1.351562 0.59375 1.34375 L 12.734375 0.203125 C 12.878906 0.191406 13 0.226562 13.09375 0.3125 C 13.1875 0.394531 13.238281 0.492188 13.25 0.609375 L 14.046875 9.109375 C 14.054688 9.242188 14.023438 9.359375 13.953125 9.453125 C 13.878906 9.546875 13.769531 9.597656 13.625 9.609375 L 12.140625 9.75 C 12.003906 9.769531 11.882812 9.738281 11.78125 9.65625 C 11.6875 9.570312 11.632812 9.460938 11.625 9.328125 L 11.0625 3.265625 L 8.15625 3.546875 L 8.671875 9.1875 C 8.691406 9.320312 8.660156 9.4375 8.578125 9.53125 C 8.492188 9.625 8.382812 9.675781 8.25 9.6875 L 6.859375 9.828125 C 6.734375 9.835938 6.617188 9.800781 6.515625 9.71875 C 6.421875 9.644531 6.363281 9.539062 6.34375 9.40625 L 5.828125 3.765625 L 2.828125 4.03125 L 3.40625 10.234375 C 3.414062 10.367188 3.378906 10.484375 3.296875 10.578125 C 3.210938 10.679688 3.101562 10.738281 2.96875 10.75 L 1.484375 10.890625 C 1.347656 10.898438 1.234375 10.863281 1.140625 10.78125 C 1.046875 10.707031 0.992188 10.601562 0.984375 10.46875 Z M 0.171875 1.828125 "/></g></g></g><g fill="#ff5b4d" fill-opacity="1"><g transform="translate(21.714477, 229.359704)"><g><path d="M 0.453125 1.796875 C 0.421875 1.671875 0.4375 1.550781 0.5 1.4375 C 0.5625 1.332031 0.660156 1.265625 0.796875 1.234375 L 12.640625 -1.734375 C 12.773438 -1.765625 12.894531 -1.742188 13 -1.671875 C 13.101562 -1.609375 13.171875 -1.515625 13.203125 -1.390625 L 13.625 0.328125 C 13.675781 0.515625 13.660156 0.664062 13.578125 0.78125 C 13.503906 0.894531 13.445312 0.96875 13.40625 1 L 8.09375 5.90625 L 15.09375 7.75 C 15.144531 7.769531 15.226562 7.8125 15.34375 7.875 C 15.46875 7.9375 15.554688 8.0625 15.609375 8.25 L 16.03125 9.921875 C 16.0625 10.066406 16.046875 10.1875 15.984375 10.28125 C 15.921875 10.382812 15.820312 10.453125 15.6875 10.484375 L 3.84375 13.453125 C 3.707031 13.484375 3.585938 13.46875 3.484375 13.40625 C 3.378906 13.351562 3.3125 13.253906 3.28125 13.109375 L 2.8125 11.265625 C 2.78125 11.140625 2.796875 11.023438 2.859375 10.921875 C 2.921875 10.816406 3.019531 10.75 3.15625 10.71875 L 10.5 8.875 L 5.609375 7.625 C 5.484375 7.613281 5.363281 7.566406 5.25 7.484375 C 5.144531 7.410156 5.070312 7.285156 5.03125 7.109375 L 4.8125 6.265625 C 4.78125 6.109375 4.789062 5.96875 4.84375 5.84375 C 4.90625 5.726562 4.988281 5.625 5.09375 5.53125 L 8.828125 2.171875 L 1.484375 4.015625 C 1.347656 4.046875 1.226562 4.023438 1.125 3.953125 C 1.019531 3.890625 0.953125 3.796875 0.921875 3.671875 Z M 0.453125 1.796875 "/></g></g></g><g fill="#ff5b4d" fill-opacity="1"><g transform="translate(29.125982, 255.031707)"><g><path d="M 0.25 0.578125 C 0.195312 0.472656 0.191406 0.367188 0.234375 0.265625 C 0.285156 0.160156 0.351562 0.0859375 0.4375 0.046875 C 0.5 0.0234375 0.554688 0.015625 0.609375 0.015625 L 13.484375 -0.59375 C 13.617188 -0.613281 13.753906 -0.585938 13.890625 -0.515625 C 14.023438 -0.453125 14.128906 -0.328125 14.203125 -0.140625 L 15.140625 2.0625 C 15.210938 2.25 15.226562 2.410156 15.1875 2.546875 C 15.144531 2.691406 15.070312 2.816406 14.96875 2.921875 L 5.578125 11.734375 C 5.546875 11.773438 5.5 11.804688 5.4375 11.828125 C 5.351562 11.867188 5.253906 11.863281 5.140625 11.8125 C 5.035156 11.769531 4.960938 11.703125 4.921875 11.609375 L 4.140625 9.78125 C 4.078125 9.625 4.066406 9.488281 4.109375 9.375 C 4.160156 9.257812 4.210938 9.175781 4.265625 9.125 L 5.890625 7.5625 L 3.828125 2.6875 L 1.578125 2.78125 C 1.503906 2.769531 1.410156 2.742188 1.296875 2.703125 C 1.179688 2.660156 1.085938 2.554688 1.015625 2.390625 Z M 6.34375 2.390625 L 7.84375 5.96875 L 12.0625 2.078125 Z M 6.34375 2.390625 "/></g></g></g><g fill="#ff5b4d" fill-opacity="1"><g transform="translate(39.466703, 277.047666)"><g/></g></g><g fill="#ff5b4d" fill-opacity="1"><g transform="translate(47.410821, 289.89714)"><g><path d="M 1.0625 1.5 C 0.988281 1.394531 0.960938 1.28125 0.984375 1.15625 C 1.015625 1.039062 1.082031 0.945312 1.1875 0.875 L 11.140625 -6.203125 C 11.253906 -6.285156 11.367188 -6.316406 11.484375 -6.296875 C 11.597656 -6.273438 11.691406 -6.210938 11.765625 -6.109375 L 13.015625 -4.34375 C 13.085938 -4.25 13.113281 -4.140625 13.09375 -4.015625 C 13.082031 -3.898438 13.019531 -3.800781 12.90625 -3.71875 L 2.953125 3.359375 C 2.847656 3.429688 2.734375 3.457031 2.609375 3.4375 C 2.484375 3.414062 2.382812 3.359375 2.3125 3.265625 Z M 1.0625 1.5 "/></g></g></g><g fill="#ff5b4d" fill-opacity="1"><g transform="translate(57.633889, 303.481084)"><g><path d="M 1.25 1.359375 C 1.164062 1.265625 1.125 1.148438 1.125 1.015625 C 1.132812 0.890625 1.1875 0.785156 1.28125 0.703125 L 10.265625 -7.5625 C 10.367188 -7.664062 10.484375 -7.710938 10.609375 -7.703125 C 10.734375 -7.691406 10.835938 -7.640625 10.921875 -7.546875 L 12.078125 -6.28125 C 12.210938 -6.144531 12.273438 -6.015625 12.265625 -5.890625 C 12.265625 -5.773438 12.253906 -5.679688 12.234375 -5.609375 L 9.859375 3.328125 L 15.515625 -1.859375 C 15.617188 -1.960938 15.734375 -2.007812 15.859375 -2 C 15.984375 -1.988281 16.09375 -1.9375 16.1875 -1.84375 L 17.484375 -0.421875 C 17.578125 -0.328125 17.617188 -0.21875 17.609375 -0.09375 C 17.609375 0.03125 17.554688 0.144531 17.453125 0.25 L 8.46875 8.515625 C 8.375 8.597656 8.265625 8.632812 8.140625 8.625 C 8.015625 8.625 7.90625 8.578125 7.8125 8.484375 L 6.640625 7.203125 C 6.503906 7.066406 6.441406 6.9375 6.453125 6.8125 C 6.472656 6.6875 6.488281 6.597656 6.5 6.546875 L 8.6875 -2.234375 L 3.21875 2.8125 C 3.125 2.894531 3.015625 2.9375 2.890625 2.9375 C 2.765625 2.9375 2.65625 2.882812 2.5625 2.78125 Z M 1.25 1.359375 "/></g></g></g><g fill="#ff5b4d" fill-opacity="1"><g transform="translate(74.969638, 321.013214)"><g><path d="M 3.6875 3 C 3.582031 2.90625 3.523438 2.796875 3.515625 2.671875 C 3.503906 2.554688 3.539062 2.445312 3.625 2.34375 L 9.953125 -5.453125 L 7.296875 -7.609375 C 7.191406 -7.691406 7.132812 -7.796875 7.125 -7.921875 C 7.113281 -8.054688 7.148438 -8.175781 7.234375 -8.28125 L 8.296875 -9.578125 C 8.390625 -9.691406 8.492188 -9.753906 8.609375 -9.765625 C 8.734375 -9.773438 8.847656 -9.738281 8.953125 -9.65625 L 16.59375 -3.453125 C 16.695312 -3.367188 16.753906 -3.265625 16.765625 -3.140625 C 16.785156 -3.015625 16.75 -2.894531 16.65625 -2.78125 L 15.59375 -1.484375 C 15.507812 -1.378906 15.40625 -1.316406 15.28125 -1.296875 C 15.15625 -1.285156 15.039062 -1.320312 14.9375 -1.40625 L 12.296875 -3.546875 L 5.96875 4.25 C 5.882812 4.351562 5.78125 4.410156 5.65625 4.421875 C 5.53125 4.429688 5.414062 4.394531 5.3125 4.3125 Z M 3.6875 3 "/></g></g></g><g fill="#ff5b4d" fill-opacity="1"><g transform="translate(93.162869, 334.794688)"><g><path d="M 1.578125 0.953125 C 1.472656 0.890625 1.40625 0.796875 1.375 0.671875 C 1.34375 0.546875 1.359375 0.425781 1.421875 0.3125 L 7.734375 -10.125 C 7.804688 -10.25 7.898438 -10.320312 8.015625 -10.34375 C 8.140625 -10.375 8.253906 -10.359375 8.359375 -10.296875 L 15.671875 -5.890625 C 15.785156 -5.816406 15.859375 -5.722656 15.890625 -5.609375 C 15.921875 -5.492188 15.898438 -5.375 15.828125 -5.25 L 15.046875 -3.96875 C 14.984375 -3.851562 14.890625 -3.78125 14.765625 -3.75 C 14.648438 -3.71875 14.535156 -3.738281 14.421875 -3.8125 L 9.203125 -6.953125 L 7.6875 -4.4375 L 12.53125 -1.515625 C 12.65625 -1.441406 12.726562 -1.347656 12.75 -1.234375 C 12.78125 -1.117188 12.765625 -1.003906 12.703125 -0.890625 L 11.984375 0.296875 C 11.921875 0.410156 11.828125 0.484375 11.703125 0.515625 C 11.578125 0.554688 11.453125 0.539062 11.328125 0.46875 L 6.484375 -2.453125 L 4.9375 0.125 L 10.265625 3.34375 C 10.378906 3.40625 10.453125 3.5 10.484375 3.625 C 10.515625 3.75 10.492188 3.867188 10.421875 3.984375 L 9.640625 5.265625 C 9.578125 5.378906 9.484375 5.453125 9.359375 5.484375 C 9.234375 5.515625 9.113281 5.5 9 5.4375 Z M 1.578125 0.953125 "/></g></g></g><g fill="#ff5b4d" fill-opacity="1"><g transform="translate(113.322656, 346.01849)"><g><path d="M 1.6875 0.71875 C 1.570312 0.675781 1.492188 0.59375 1.453125 0.46875 C 1.410156 0.351562 1.414062 0.234375 1.46875 0.109375 L 6.28125 -11.09375 C 6.332031 -11.226562 6.410156 -11.316406 6.515625 -11.359375 C 6.628906 -11.398438 6.742188 -11.398438 6.859375 -11.359375 L 8.8125 -10.515625 C 8.925781 -10.460938 9.003906 -10.378906 9.046875 -10.265625 C 9.097656 -10.160156 9.097656 -10.039062 9.046875 -9.90625 L 5.046875 -0.59375 L 10.40625 1.703125 C 10.53125 1.753906 10.613281 1.835938 10.65625 1.953125 C 10.707031 2.078125 10.707031 2.203125 10.65625 2.328125 L 10.03125 3.78125 C 9.976562 3.90625 9.890625 3.988281 9.765625 4.03125 C 9.648438 4.082031 9.53125 4.082031 9.40625 4.03125 Z M 1.6875 0.71875 "/></g></g></g><g fill="#ff5b4d" fill-opacity="1"><g transform="translate(133.975522, 353.985088)"><g><path d="M 1.765625 0.515625 C 1.648438 0.484375 1.5625 0.410156 1.5 0.296875 C 1.4375 0.191406 1.421875 0.0703125 1.453125 -0.0625 L 4.90625 -11.765625 C 4.945312 -11.898438 5.019531 -11.992188 5.125 -12.046875 C 5.238281 -12.109375 5.351562 -12.125 5.46875 -12.09375 L 7.546875 -11.484375 C 7.660156 -11.441406 7.75 -11.367188 7.8125 -11.265625 C 7.875 -11.160156 7.882812 -11.039062 7.84375 -10.90625 L 4.390625 0.796875 C 4.359375 0.929688 4.285156 1.03125 4.171875 1.09375 C 4.066406 1.15625 3.957031 1.164062 3.84375 1.125 Z M 1.765625 0.515625 "/></g></g></g><g fill="#ff5b4d" fill-opacity="1"><g transform="translate(150.407873, 358.334747)"><g><path d="M 6.5625 1.25 C 5.394531 1.0625 4.429688 0.707031 3.671875 0.1875 C 2.910156 -0.332031 2.363281 -1 2.03125 -1.8125 C 1.695312 -2.632812 1.601562 -3.585938 1.75 -4.671875 C 1.8125 -5.191406 1.890625 -5.753906 1.984375 -6.359375 C 2.085938 -6.972656 2.191406 -7.550781 2.296875 -8.09375 C 2.492188 -9.125 2.878906 -9.96875 3.453125 -10.625 C 4.023438 -11.28125 4.757812 -11.734375 5.65625 -11.984375 C 6.550781 -12.242188 7.570312 -12.28125 8.71875 -12.09375 C 9.625 -11.945312 10.40625 -11.703125 11.0625 -11.359375 C 11.71875 -11.015625 12.25 -10.613281 12.65625 -10.15625 C 13.070312 -9.707031 13.363281 -9.238281 13.53125 -8.75 C 13.707031 -8.269531 13.769531 -7.816406 13.71875 -7.390625 C 13.695312 -7.273438 13.640625 -7.1875 13.546875 -7.125 C 13.460938 -7.070312 13.359375 -7.054688 13.234375 -7.078125 L 10.9375 -7.453125 C 10.8125 -7.472656 10.71875 -7.507812 10.65625 -7.5625 C 10.59375 -7.613281 10.550781 -7.695312 10.53125 -7.8125 C 10.476562 -8.03125 10.375 -8.269531 10.21875 -8.53125 C 10.0625 -8.800781 9.832031 -9.039062 9.53125 -9.25 C 9.238281 -9.457031 8.835938 -9.601562 8.328125 -9.6875 C 7.546875 -9.8125 6.894531 -9.707031 6.375 -9.375 C 5.863281 -9.039062 5.515625 -8.421875 5.328125 -7.515625 C 5.117188 -6.460938 4.945312 -5.382812 4.8125 -4.28125 C 4.6875 -3.3125 4.820312 -2.578125 5.21875 -2.078125 C 5.625 -1.578125 6.210938 -1.269531 6.984375 -1.15625 C 7.484375 -1.070312 7.953125 -1.085938 8.390625 -1.203125 C 8.828125 -1.316406 9.1875 -1.539062 9.46875 -1.875 C 9.757812 -2.21875 9.953125 -2.6875 10.046875 -3.28125 L 10.125 -3.75 L 8.109375 -4.078125 C 7.984375 -4.097656 7.882812 -4.160156 7.8125 -4.265625 C 7.738281 -4.367188 7.710938 -4.484375 7.734375 -4.609375 L 7.921875 -5.796875 C 7.941406 -5.929688 8.003906 -6.035156 8.109375 -6.109375 C 8.210938 -6.179688 8.328125 -6.207031 8.453125 -6.1875 L 13.015625 -5.453125 C 13.148438 -5.429688 13.253906 -5.367188 13.328125 -5.265625 C 13.398438 -5.160156 13.425781 -5.039062 13.40625 -4.90625 L 13.078125 -2.890625 C 12.910156 -1.828125 12.53125 -0.953125 11.9375 -0.265625 C 11.351562 0.410156 10.59375 0.878906 9.65625 1.140625 C 8.726562 1.398438 7.695312 1.4375 6.5625 1.25 Z M 6.5625 1.25 "/></g></g></g><g fill="#ff5b4d" fill-opacity="1"><g transform="translate(174.820796, 361.395076)"><g><path d="M 1.84375 0.03125 C 1.71875 0.03125 1.609375 -0.015625 1.515625 -0.109375 C 1.429688 -0.203125 1.390625 -0.316406 1.390625 -0.453125 L 1.578125 -12.65625 C 1.578125 -12.800781 1.625 -12.910156 1.71875 -12.984375 C 1.8125 -13.066406 1.921875 -13.109375 2.046875 -13.109375 L 10.578125 -12.984375 C 10.710938 -12.984375 10.820312 -12.941406 10.90625 -12.859375 C 10.988281 -12.773438 11.03125 -12.660156 11.03125 -12.515625 L 11.015625 -11.015625 C 11.015625 -10.878906 10.96875 -10.765625 10.875 -10.671875 C 10.78125 -10.585938 10.664062 -10.546875 10.53125 -10.546875 L 4.4375 -10.640625 L 4.40625 -7.71875 L 10.078125 -7.625 C 10.210938 -7.625 10.320312 -7.578125 10.40625 -7.484375 C 10.488281 -7.398438 10.53125 -7.289062 10.53125 -7.15625 L 10.515625 -5.765625 C 10.515625 -5.640625 10.46875 -5.53125 10.375 -5.4375 C 10.28125 -5.34375 10.164062 -5.296875 10.03125 -5.296875 L 4.359375 -5.390625 L 4.3125 -2.375 L 10.546875 -2.28125 C 10.679688 -2.28125 10.789062 -2.234375 10.875 -2.140625 C 10.96875 -2.046875 11.015625 -1.929688 11.015625 -1.796875 L 10.984375 -0.296875 C 10.984375 -0.160156 10.9375 -0.0507812 10.84375 0.03125 C 10.757812 0.113281 10.648438 0.15625 10.515625 0.15625 Z M 1.84375 0.03125 "/></g></g></g><g fill="#ff5b4d" fill-opacity="1"><g transform="translate(197.944115, 360.980809)"><g><path d="M 1.828125 -0.234375 C 1.703125 -0.222656 1.585938 -0.253906 1.484375 -0.328125 C 1.390625 -0.410156 1.332031 -0.519531 1.3125 -0.65625 L -0.265625 -12.75 C -0.285156 -12.894531 -0.253906 -13.015625 -0.171875 -13.109375 C -0.0976562 -13.203125 0 -13.253906 0.125 -13.265625 L 1.828125 -13.5 C 2.015625 -13.519531 2.15625 -13.492188 2.25 -13.421875 C 2.351562 -13.347656 2.425781 -13.289062 2.46875 -13.25 L 8.40625 -6.140625 L 7.421875 -13.75 C 7.398438 -13.894531 7.425781 -14.015625 7.5 -14.109375 C 7.582031 -14.203125 7.691406 -14.257812 7.828125 -14.28125 L 9.734375 -14.53125 C 9.867188 -14.539062 9.984375 -14.507812 10.078125 -14.4375 C 10.171875 -14.375 10.226562 -14.269531 10.25 -14.125 L 11.828125 -2.03125 C 11.847656 -1.90625 11.820312 -1.785156 11.75 -1.671875 C 11.675781 -1.566406 11.570312 -1.507812 11.4375 -1.5 L 9.71875 -1.265625 C 9.53125 -1.242188 9.390625 -1.273438 9.296875 -1.359375 C 9.203125 -1.441406 9.132812 -1.503906 9.09375 -1.546875 L 3.1875 -8.390625 L 4.15625 -1.015625 C 4.175781 -0.878906 4.144531 -0.757812 4.0625 -0.65625 C 3.988281 -0.5625 3.882812 -0.503906 3.75 -0.484375 Z M 1.828125 -0.234375 "/></g></g></g><g fill="#ff5b4d" fill-opacity="1"><g transform="translate(222.261527, 356.912044)"><g><path d="M 4.578125 -1.28125 C 4.441406 -1.25 4.316406 -1.257812 4.203125 -1.3125 C 4.097656 -1.375 4.03125 -1.472656 4 -1.609375 L 1.28125 -11.28125 L -2.015625 -10.359375 C -2.140625 -10.328125 -2.253906 -10.335938 -2.359375 -10.390625 C -2.472656 -10.453125 -2.550781 -10.550781 -2.59375 -10.6875 L -3.046875 -12.3125 C -3.085938 -12.445312 -3.078125 -12.566406 -3.015625 -12.671875 C -2.953125 -12.785156 -2.859375 -12.859375 -2.734375 -12.890625 L 6.734375 -15.5625 C 6.867188 -15.59375 6.988281 -15.578125 7.09375 -15.515625 C 7.195312 -15.460938 7.269531 -15.367188 7.3125 -15.234375 L 7.765625 -13.609375 C 7.804688 -13.472656 7.796875 -13.347656 7.734375 -13.234375 C 7.679688 -13.128906 7.585938 -13.0625 7.453125 -13.03125 L 4.1875 -12.109375 L 6.90625 -2.4375 C 6.9375 -2.300781 6.921875 -2.175781 6.859375 -2.0625 C 6.804688 -1.957031 6.71875 -1.890625 6.59375 -1.859375 Z M 4.578125 -1.28125 "/></g></g></g><g fill="#ff5b4d" fill-opacity="1"><g transform="translate(244.008027, 349.982629)"><g><path d="M 1.6875 -0.734375 C 1.570312 -0.691406 1.453125 -0.691406 1.328125 -0.734375 C 1.210938 -0.785156 1.128906 -0.867188 1.078125 -0.984375 L -3.828125 -12.15625 C -3.890625 -12.289062 -3.894531 -12.414062 -3.84375 -12.53125 C -3.789062 -12.644531 -3.707031 -12.722656 -3.59375 -12.765625 L 4.21875 -16.203125 C 4.34375 -16.253906 4.457031 -16.257812 4.5625 -16.21875 C 4.675781 -16.175781 4.765625 -16.085938 4.828125 -15.953125 L 5.421875 -14.59375 C 5.484375 -14.46875 5.488281 -14.34375 5.4375 -14.21875 C 5.394531 -14.101562 5.3125 -14.019531 5.1875 -13.96875 L -0.390625 -11.515625 L 0.796875 -8.84375 L 5.984375 -11.125 C 6.109375 -11.175781 6.226562 -11.175781 6.34375 -11.125 C 6.457031 -11.082031 6.546875 -11 6.609375 -10.875 L 7.171875 -9.609375 C 7.210938 -9.492188 7.210938 -9.375 7.171875 -9.25 C 7.128906 -9.132812 7.046875 -9.050781 6.921875 -9 L 1.734375 -6.71875 L 2.9375 -3.953125 L 8.640625 -6.46875 C 8.765625 -6.519531 8.882812 -6.519531 9 -6.46875 C 9.125 -6.425781 9.210938 -6.34375 9.265625 -6.21875 L 9.875 -4.84375 C 9.925781 -4.726562 9.925781 -4.609375 9.875 -4.484375 C 9.832031 -4.367188 9.75 -4.285156 9.625 -4.234375 Z M 1.6875 -0.734375 "/></g></g></g><g fill="#ff5b4d" fill-opacity="1"><g transform="translate(264.631088, 339.974001)"><g/></g></g><g fill="#ff5b4d" fill-opacity="1"><g transform="translate(277.605775, 331.915878)"><g><path d="M 1.46875 -1.109375 C 1.363281 -1.035156 1.25 -1.007812 1.125 -1.03125 C 1.007812 -1.050781 0.910156 -1.113281 0.828125 -1.21875 L -6.5625 -10.921875 C -6.65625 -11.035156 -6.691406 -11.148438 -6.671875 -11.265625 C -6.648438 -11.390625 -6.585938 -11.488281 -6.484375 -11.5625 L -2.71875 -14.4375 C -1.726562 -15.195312 -0.78125 -15.671875 0.125 -15.859375 C 1.03125 -16.054688 1.882812 -15.988281 2.6875 -15.65625 C 3.5 -15.320312 4.257812 -14.722656 4.96875 -13.859375 C 5.3125 -13.429688 5.609375 -13.050781 5.859375 -12.71875 C 6.109375 -12.394531 6.394531 -12.015625 6.71875 -11.578125 C 7.375 -10.617188 7.765625 -9.703125 7.890625 -8.828125 C 8.015625 -7.960938 7.863281 -7.132812 7.4375 -6.34375 C 7.007812 -5.5625 6.300781 -4.796875 5.3125 -4.046875 Z M 2.015625 -4.59375 L 3.765625 -5.921875 C 4.265625 -6.296875 4.613281 -6.675781 4.8125 -7.0625 C 5.007812 -7.445312 5.0625 -7.859375 4.96875 -8.296875 C 4.882812 -8.742188 4.648438 -9.234375 4.265625 -9.765625 C 4.054688 -10.066406 3.867188 -10.332031 3.703125 -10.5625 C 3.535156 -10.800781 3.359375 -11.03125 3.171875 -11.25 C 2.992188 -11.476562 2.789062 -11.726562 2.5625 -12 C 1.988281 -12.726562 1.382812 -13.125 0.75 -13.1875 C 0.125 -13.257812 -0.566406 -13.007812 -1.328125 -12.4375 L -3 -11.171875 Z M 2.015625 -4.59375 "/></g></g></g><g fill="#ff5b4d" fill-opacity="1"><g transform="translate(296.628013, 316.340815)"><g><path d="M 1.296875 -1.3125 C 1.203125 -1.226562 1.09375 -1.1875 0.96875 -1.1875 C 0.84375 -1.1875 0.734375 -1.234375 0.640625 -1.328125 L -8.078125 -9.875 C -8.179688 -9.96875 -8.234375 -10.078125 -8.234375 -10.203125 C -8.234375 -10.328125 -8.1875 -10.429688 -8.09375 -10.515625 L -2.125 -16.609375 C -2.03125 -16.710938 -1.921875 -16.765625 -1.796875 -16.765625 C -1.671875 -16.765625 -1.554688 -16.71875 -1.453125 -16.625 L -0.390625 -15.5625 C -0.285156 -15.46875 -0.234375 -15.359375 -0.234375 -15.234375 C -0.234375 -15.109375 -0.28125 -14.992188 -0.375 -14.890625 L -4.640625 -10.546875 L -2.5625 -8.515625 L 1.40625 -12.5625 C 1.5 -12.65625 1.609375 -12.703125 1.734375 -12.703125 C 1.859375 -12.703125 1.972656 -12.65625 2.078125 -12.5625 L 3.0625 -11.578125 C 3.15625 -11.492188 3.203125 -11.382812 3.203125 -11.25 C 3.210938 -11.125 3.171875 -11.015625 3.078125 -10.921875 L -0.890625 -6.875 L 1.265625 -4.765625 L 5.625 -9.21875 C 5.71875 -9.3125 5.828125 -9.359375 5.953125 -9.359375 C 6.078125 -9.359375 6.1875 -9.3125 6.28125 -9.21875 L 7.359375 -8.171875 C 7.453125 -8.078125 7.5 -7.96875 7.5 -7.84375 C 7.5 -7.71875 7.453125 -7.609375 7.359375 -7.515625 Z M 1.296875 -1.3125 "/></g></g></g><g fill="#ff5b4d" fill-opacity="1"><g transform="translate(312.040315, 299.371447)"><g/></g></g><g fill="#ff5b4d" fill-opacity="1"><g transform="translate(321.03255, 287.073894)"><g><path d="M 2.453125 -4.0625 C 2.390625 -3.945312 2.296875 -3.875 2.171875 -3.84375 C 2.046875 -3.8125 1.925781 -3.832031 1.8125 -3.90625 L -6.78125 -9.09375 L -8.5625 -6.171875 C -8.625 -6.066406 -8.710938 -6 -8.828125 -5.96875 C -8.953125 -5.9375 -9.078125 -5.957031 -9.203125 -6.03125 L -10.640625 -6.90625 C -10.765625 -6.976562 -10.835938 -7.070312 -10.859375 -7.1875 C -10.890625 -7.3125 -10.875 -7.425781 -10.8125 -7.53125 L -5.703125 -15.953125 C -5.640625 -16.066406 -5.546875 -16.140625 -5.421875 -16.171875 C -5.304688 -16.210938 -5.1875 -16.195312 -5.0625 -16.125 L -3.625 -15.25 C -3.5 -15.175781 -3.421875 -15.078125 -3.390625 -14.953125 C -3.367188 -14.828125 -3.390625 -14.707031 -3.453125 -14.59375 L -5.21875 -11.6875 L 3.375 -6.5 C 3.488281 -6.425781 3.5625 -6.328125 3.59375 -6.203125 C 3.625 -6.085938 3.609375 -5.972656 3.546875 -5.859375 Z M 2.453125 -4.0625 "/></g></g></g><g fill="#ff5b4d" fill-opacity="1"><g transform="translate(332.199813, 267.142777)"><g><path d="M 0.71875 -1.703125 C 0.664062 -1.585938 0.582031 -1.503906 0.46875 -1.453125 C 0.351562 -1.410156 0.234375 -1.414062 0.109375 -1.46875 L -11.125 -6.234375 C -11.25 -6.285156 -11.332031 -6.367188 -11.375 -6.484375 C -11.425781 -6.609375 -11.425781 -6.726562 -11.375 -6.84375 L -9.421875 -11.4375 C -8.804688 -12.875 -7.992188 -13.863281 -6.984375 -14.40625 C -5.972656 -14.957031 -4.84375 -14.96875 -3.59375 -14.4375 C -2.757812 -14.082031 -2.144531 -13.582031 -1.75 -12.9375 C -1.351562 -12.300781 -1.160156 -11.582031 -1.171875 -10.78125 L 4.1875 -11.390625 C 4.269531 -11.398438 4.34375 -11.394531 4.40625 -11.375 C 4.488281 -11.332031 4.550781 -11.253906 4.59375 -11.140625 C 4.644531 -11.035156 4.648438 -10.941406 4.609375 -10.859375 L 3.78125 -8.921875 C 3.695312 -8.710938 3.578125 -8.578125 3.421875 -8.515625 C 3.265625 -8.460938 3.140625 -8.4375 3.046875 -8.4375 L -1.84375 -8 L -2.734375 -5.90625 L 1.265625 -4.21875 C 1.390625 -4.164062 1.476562 -4.078125 1.53125 -3.953125 C 1.582031 -3.835938 1.582031 -3.71875 1.53125 -3.59375 Z M -4.90625 -6.84375 L -3.953125 -9.0625 C -3.691406 -9.6875 -3.640625 -10.210938 -3.796875 -10.640625 C -3.960938 -11.066406 -4.304688 -11.394531 -4.828125 -11.625 C -5.347656 -11.84375 -5.816406 -11.863281 -6.234375 -11.6875 C -6.660156 -11.507812 -7.007812 -11.101562 -7.28125 -10.46875 L -8.234375 -8.25 Z M -4.90625 -6.84375 "/></g></g></g><g fill="#ff5b4d" fill-opacity="1"><g transform="translate(340.862095, 244.658154)"><g><path d="M 0.15625 -0.609375 C 0.125 -0.492188 0.0625 -0.410156 -0.03125 -0.359375 C -0.125 -0.304688 -0.21875 -0.289062 -0.3125 -0.3125 C -0.375 -0.332031 -0.429688 -0.351562 -0.484375 -0.375 L -11.046875 -7.734375 C -11.171875 -7.796875 -11.265625 -7.894531 -11.328125 -8.03125 C -11.398438 -8.175781 -11.410156 -8.34375 -11.359375 -8.53125 L -10.75 -10.859375 C -10.707031 -11.046875 -10.625 -11.179688 -10.5 -11.265625 C -10.375 -11.359375 -10.238281 -11.414062 -10.09375 -11.4375 L 2.71875 -12.703125 C 2.769531 -12.710938 2.828125 -12.707031 2.890625 -12.6875 C 2.984375 -12.664062 3.054688 -12.601562 3.109375 -12.5 C 3.171875 -12.40625 3.191406 -12.304688 3.171875 -12.203125 L 2.671875 -10.28125 C 2.628906 -10.125 2.550781 -10.007812 2.4375 -9.9375 C 2.332031 -9.875 2.242188 -9.835938 2.171875 -9.828125 L -0.078125 -9.59375 L -1.40625 -4.46875 L 0.4375 -3.15625 C 0.5 -3.113281 0.5625 -3.039062 0.625 -2.9375 C 0.6875 -2.832031 0.695312 -2.691406 0.65625 -2.515625 Z M -3.578125 -5.75 L -2.609375 -9.5 L -8.3125 -8.96875 Z M -12.21875 -8.953125 C -12.269531 -8.753906 -12.398438 -8.679688 -12.609375 -8.734375 C -12.691406 -8.753906 -12.753906 -8.804688 -12.796875 -8.890625 L -14.28125 -10.921875 C -14.40625 -11.066406 -14.472656 -11.191406 -14.484375 -11.296875 C -14.503906 -11.398438 -14.488281 -11.53125 -14.4375 -11.6875 L -13.859375 -13.9375 C -13.804688 -14.164062 -13.660156 -14.25 -13.421875 -14.1875 C -13.335938 -14.164062 -13.273438 -14.113281 -13.234375 -14.03125 L -11.921875 -11.171875 C -11.859375 -11.054688 -11.816406 -10.945312 -11.796875 -10.84375 C -11.773438 -10.75 -11.785156 -10.617188 -11.828125 -10.453125 Z M -12.21875 -8.953125 "/></g></g></g><g fill="#ff5b4d" fill-opacity="1"><g transform="translate(346.199723, 220.718586)"><g><path d="M 0.1875 -1.828125 C 0.175781 -1.703125 0.117188 -1.601562 0.015625 -1.53125 C -0.078125 -1.457031 -0.191406 -1.425781 -0.328125 -1.4375 L -12.46875 -2.703125 C -12.613281 -2.722656 -12.71875 -2.773438 -12.78125 -2.859375 C -12.851562 -2.953125 -12.882812 -3.0625 -12.875 -3.1875 L -12.6875 -4.90625 C -12.664062 -5.09375 -12.613281 -5.226562 -12.53125 -5.3125 C -12.445312 -5.394531 -12.375 -5.445312 -12.3125 -5.46875 L -4.015625 -9.609375 L -11.65625 -10.40625 C -11.800781 -10.425781 -11.90625 -10.484375 -11.96875 -10.578125 C -12.039062 -10.671875 -12.070312 -10.785156 -12.0625 -10.921875 L -11.859375 -12.828125 C -11.847656 -12.960938 -11.796875 -13.070312 -11.703125 -13.15625 C -11.617188 -13.238281 -11.503906 -13.269531 -11.359375 -13.25 L 0.78125 -11.984375 C 0.90625 -11.972656 1.007812 -11.914062 1.09375 -11.8125 C 1.175781 -11.71875 1.210938 -11.601562 1.203125 -11.46875 L 1.015625 -9.75 C 0.992188 -9.5625 0.929688 -9.429688 0.828125 -9.359375 C 0.734375 -9.285156 0.660156 -9.234375 0.609375 -9.203125 L -7.421875 -5.0625 L -0.03125 -4.28125 C 0.101562 -4.269531 0.210938 -4.210938 0.296875 -4.109375 C 0.378906 -4.015625 0.410156 -3.898438 0.390625 -3.765625 Z M 0.1875 -1.828125 "/></g></g></g><g fill="#ff5b4d" fill-opacity="1"><g transform="translate(347.900828, 196.107437)"><g><path d="M -0.078125 -6.140625 C -0.0234375 -4.929688 -0.15625 -3.914062 -0.46875 -3.09375 C -0.78125 -2.269531 -1.207031 -1.640625 -1.75 -1.203125 C -2.300781 -0.765625 -2.898438 -0.519531 -3.546875 -0.46875 C -3.660156 -0.46875 -3.753906 -0.5 -3.828125 -0.5625 C -3.898438 -0.632812 -3.941406 -0.726562 -3.953125 -0.84375 L -4.03125 -2.875 C -4.039062 -3.03125 -4.015625 -3.15625 -3.953125 -3.25 C -3.898438 -3.34375 -3.820312 -3.425781 -3.71875 -3.5 C -3.5 -3.601562 -3.289062 -3.753906 -3.09375 -3.953125 C -2.90625 -4.160156 -2.753906 -4.429688 -2.640625 -4.765625 C -2.535156 -5.109375 -2.492188 -5.53125 -2.515625 -6.03125 C -2.546875 -6.84375 -2.703125 -7.445312 -2.984375 -7.84375 C -3.265625 -8.238281 -3.628906 -8.425781 -4.078125 -8.40625 C -4.390625 -8.394531 -4.640625 -8.273438 -4.828125 -8.046875 C -5.023438 -7.816406 -5.195312 -7.460938 -5.34375 -6.984375 C -5.488281 -6.515625 -5.628906 -5.882812 -5.765625 -5.09375 C -5.941406 -4.144531 -6.171875 -3.335938 -6.453125 -2.671875 C -6.742188 -2.003906 -7.140625 -1.488281 -7.640625 -1.125 C -8.140625 -0.769531 -8.757812 -0.578125 -9.5 -0.546875 C -10.25 -0.515625 -10.921875 -0.695312 -11.515625 -1.09375 C -12.117188 -1.488281 -12.597656 -2.050781 -12.953125 -2.78125 C -13.316406 -3.519531 -13.519531 -4.410156 -13.5625 -5.453125 C -13.601562 -6.285156 -13.523438 -7.023438 -13.328125 -7.671875 C -13.128906 -8.328125 -12.851562 -8.878906 -12.5 -9.328125 C -12.15625 -9.773438 -11.78125 -10.117188 -11.375 -10.359375 C -10.976562 -10.597656 -10.585938 -10.734375 -10.203125 -10.765625 C -10.085938 -10.765625 -9.988281 -10.734375 -9.90625 -10.671875 C -9.820312 -10.609375 -9.773438 -10.515625 -9.765625 -10.390625 L -9.6875 -8.296875 C -9.675781 -8.179688 -9.691406 -8.066406 -9.734375 -7.953125 C -9.785156 -7.847656 -9.875 -7.757812 -10 -7.6875 C -10.332031 -7.601562 -10.609375 -7.375 -10.828125 -7 C -11.054688 -6.625 -11.15625 -6.144531 -11.125 -5.5625 C -11.101562 -4.945312 -10.972656 -4.460938 -10.734375 -4.109375 C -10.503906 -3.753906 -10.160156 -3.585938 -9.703125 -3.609375 C -9.398438 -3.617188 -9.148438 -3.722656 -8.953125 -3.921875 C -8.753906 -4.117188 -8.585938 -4.429688 -8.453125 -4.859375 C -8.316406 -5.296875 -8.175781 -5.882812 -8.03125 -6.625 C -7.851562 -7.71875 -7.617188 -8.613281 -7.328125 -9.3125 C -7.035156 -10.019531 -6.644531 -10.546875 -6.15625 -10.890625 C -5.675781 -11.234375 -5.0625 -11.421875 -4.3125 -11.453125 C -3.476562 -11.484375 -2.75 -11.28125 -2.125 -10.84375 C -1.507812 -10.40625 -1.023438 -9.78125 -0.671875 -8.96875 C -0.316406 -8.164062 -0.117188 -7.222656 -0.078125 -6.140625 Z M -0.078125 -6.140625 "/></g></g></g><g fill="#ff5b4d" fill-opacity="1"><g transform="translate(346.041469, 172.824028)"><g><path d="M -0.296875 -1.8125 C -0.273438 -1.695312 -0.300781 -1.585938 -0.375 -1.484375 C -0.457031 -1.378906 -0.566406 -1.316406 -0.703125 -1.296875 L -12.734375 0.703125 C -12.878906 0.722656 -13 0.695312 -13.09375 0.625 C -13.1875 0.550781 -13.242188 0.457031 -13.265625 0.34375 L -13.625 -1.796875 C -13.644531 -1.910156 -13.617188 -2.019531 -13.546875 -2.125 C -13.484375 -2.226562 -13.378906 -2.289062 -13.234375 -2.3125 L -1.203125 -4.3125 C -1.066406 -4.332031 -0.945312 -4.304688 -0.84375 -4.234375 C -0.738281 -4.160156 -0.675781 -4.066406 -0.65625 -3.953125 Z M -0.296875 -1.8125 "/></g></g></g><g fill="#ff5b4d" fill-opacity="1"><g transform="translate(342.763538, 156.179109)"><g><path d="M -1.34375 -4.5625 C -1.300781 -4.425781 -1.304688 -4.300781 -1.359375 -4.1875 C -1.421875 -4.082031 -1.519531 -4.015625 -1.65625 -3.984375 L -11.296875 -1.15625 L -10.328125 2.125 C -10.296875 2.25 -10.304688 2.363281 -10.359375 2.46875 C -10.421875 2.582031 -10.519531 2.660156 -10.65625 2.703125 L -12.265625 3.171875 C -12.410156 3.210938 -12.535156 3.203125 -12.640625 3.140625 C -12.742188 3.085938 -12.8125 3 -12.84375 2.875 L -15.625 -6.5625 C -15.65625 -6.695312 -15.644531 -6.816406 -15.59375 -6.921875 C -15.539062 -7.035156 -15.441406 -7.113281 -15.296875 -7.15625 L -13.6875 -7.625 C -13.550781 -7.664062 -13.425781 -7.65625 -13.3125 -7.59375 C -13.207031 -7.539062 -13.140625 -7.445312 -13.109375 -7.3125 L -12.15625 -4.0625 L -2.515625 -6.890625 C -2.378906 -6.921875 -2.253906 -6.90625 -2.140625 -6.84375 C -2.035156 -6.789062 -1.960938 -6.695312 -1.921875 -6.5625 Z M -1.34375 -4.5625 "/></g></g></g><g fill="#ff5b4d" fill-opacity="1"><g transform="translate(335.6103, 134.471886)"><g><path d="M -2.578125 -6.09375 C -2.109375 -5.0625 -1.867188 -4.085938 -1.859375 -3.171875 C -1.859375 -2.265625 -2.101562 -1.441406 -2.59375 -0.703125 C -3.09375 0.0351562 -3.859375 0.65625 -4.890625 1.15625 C -5.378906 1.40625 -5.863281 1.640625 -6.34375 1.859375 C -6.820312 2.085938 -7.320312 2.304688 -7.84375 2.515625 C -8.875 2.953125 -9.835938 3.113281 -10.734375 3 C -11.628906 2.894531 -12.425781 2.546875 -13.125 1.953125 C -13.820312 1.359375 -14.40625 0.550781 -14.875 -0.46875 C -15.332031 -1.46875 -15.554688 -2.425781 -15.546875 -3.34375 C -15.546875 -4.269531 -15.296875 -5.101562 -14.796875 -5.84375 C -14.296875 -6.59375 -13.539062 -7.222656 -12.53125 -7.734375 C -12.03125 -7.984375 -11.539062 -8.21875 -11.0625 -8.4375 C -10.582031 -8.664062 -10.085938 -8.882812 -9.578125 -9.09375 C -8.523438 -9.519531 -7.554688 -9.675781 -6.671875 -9.5625 C -5.785156 -9.457031 -5 -9.109375 -4.3125 -8.515625 C -3.625 -7.921875 -3.046875 -7.113281 -2.578125 -6.09375 Z M -4.796875 -5.078125 C -5.097656 -5.734375 -5.546875 -6.179688 -6.140625 -6.421875 C -6.734375 -6.671875 -7.476562 -6.601562 -8.375 -6.21875 C -8.894531 -6.019531 -9.375 -5.816406 -9.8125 -5.609375 C -10.257812 -5.410156 -10.710938 -5.1875 -11.171875 -4.9375 C -11.765625 -4.65625 -12.203125 -4.328125 -12.484375 -3.953125 C -12.765625 -3.578125 -12.914062 -3.179688 -12.9375 -2.765625 C -12.957031 -2.347656 -12.863281 -1.921875 -12.65625 -1.484375 C -12.457031 -1.046875 -12.191406 -0.691406 -11.859375 -0.421875 C -11.535156 -0.160156 -11.140625 -0.015625 -10.671875 0.015625 C -10.203125 0.046875 -9.664062 -0.0625 -9.0625 -0.3125 C -8.570312 -0.519531 -8.101562 -0.722656 -7.65625 -0.921875 C -7.21875 -1.128906 -6.753906 -1.351562 -6.265625 -1.59375 C -5.378906 -2.03125 -4.832031 -2.550781 -4.625 -3.15625 C -4.425781 -3.757812 -4.484375 -4.398438 -4.796875 -5.078125 Z M -4.796875 -5.078125 "/></g></g></g><g clip-path="url(#382262117b)"><path fill="#0097b2" d="M 254.839844 124.527344 L 112.554688 124.527344 C 111.824219 124.527344 111.097656 124.5625 110.375 124.632812 C 109.648438 124.707031 108.929688 124.8125 108.21875 124.957031 C 107.503906 125.097656 106.796875 125.277344 106.101562 125.488281 C 105.40625 125.699219 104.722656 125.945312 104.046875 126.222656 C 103.375 126.503906 102.71875 126.816406 102.078125 127.15625 C 101.433594 127.5 100.8125 127.875 100.207031 128.28125 C 99.601562 128.683594 99.015625 129.117188 98.453125 129.582031 C 97.890625 130.042969 97.351562 130.53125 96.839844 131.046875 C 96.324219 131.5625 95.835938 132.101562 95.375 132.664062 C 94.910156 133.226562 94.480469 133.808594 94.074219 134.414062 C 93.667969 135.019531 93.296875 135.644531 92.953125 136.289062 C 92.609375 136.929688 92.296875 137.585938 92.019531 138.257812 C 91.738281 138.933594 91.496094 139.617188 91.28125 140.3125 C 91.070312 141.011719 90.894531 141.714844 90.75 142.429688 C 90.609375 143.144531 90.5 143.863281 90.429688 144.589844 C 90.359375 145.3125 90.320312 146.039062 90.320312 146.769531 L 90.320312 235.742188 C 90.320312 236.46875 90.359375 237.195312 90.429688 237.921875 C 90.5 238.644531 90.609375 239.363281 90.75 240.078125 C 90.894531 240.792969 91.070312 241.5 91.28125 242.195312 C 91.496094 242.890625 91.738281 243.578125 92.019531 244.25 C 92.296875 244.921875 92.609375 245.578125 92.953125 246.222656 C 93.296875 246.863281 93.667969 247.488281 94.074219 248.09375 C 94.480469 248.699219 94.910156 249.28125 95.375 249.847656 C 95.835938 250.410156 96.324219 250.949219 96.839844 251.460938 C 97.351562 251.976562 97.890625 252.464844 98.453125 252.929688 C 99.015625 253.390625 99.601562 253.824219 100.207031 254.230469 C 100.8125 254.632812 101.433594 255.007812 102.078125 255.351562 C 102.71875 255.695312 103.375 256.007812 104.046875 256.285156 C 104.722656 256.5625 105.40625 256.808594 106.101562 257.019531 C 106.796875 257.234375 107.503906 257.410156 108.21875 257.554688 C 108.929688 257.695312 109.648438 257.800781 110.375 257.875 C 111.097656 257.945312 111.824219 257.984375 112.554688 257.984375 L 254.839844 257.984375 C 255.566406 257.984375 256.292969 257.945312 257.015625 257.875 C 257.742188 257.800781 258.460938 257.695312 259.175781 257.554688 C 259.886719 257.410156 260.59375 257.234375 261.289062 257.019531 C 261.988281 256.808594 262.671875 256.5625 263.34375 256.285156 C 264.015625 256.007812 264.671875 255.695312 265.316406 255.351562 C 265.957031 255.007812 266.582031 254.632812 267.183594 254.230469 C 267.789062 253.824219 268.375 253.390625 268.9375 252.929688 C 269.5 252.464844 270.039062 251.976562 270.554688 251.460938 C 271.066406 250.949219 271.554688 250.410156 272.019531 249.847656 C 272.480469 249.28125 272.914062 248.699219 273.316406 248.09375 C 273.722656 247.488281 274.097656 246.863281 274.441406 246.222656 C 274.78125 245.578125 275.09375 244.921875 275.375 244.25 C 275.652344 243.578125 275.898438 242.890625 276.109375 242.195312 C 276.320312 241.5 276.496094 240.792969 276.640625 240.078125 C 276.78125 239.363281 276.890625 238.644531 276.960938 237.921875 C 277.035156 237.195312 277.070312 236.46875 277.070312 235.742188 L 277.070312 146.769531 C 277.070312 146.039062 277.035156 145.3125 276.960938 144.589844 C 276.890625 143.863281 276.78125 143.144531 276.640625 142.429688 C 276.496094 141.714844 276.320312 141.011719 276.109375 140.3125 C 275.898438 139.617188 275.652344 138.933594 275.375 138.257812 C 275.09375 137.585938 274.78125 136.929688 274.441406 136.289062 C 274.097656 135.644531 273.722656 135.019531 273.316406 134.414062 C 272.914062 133.808594 272.480469 133.226562 272.019531 132.664062 C 271.554688 132.101562 271.066406 131.5625 270.554688 131.046875 C 270.039062 130.53125 269.5 130.042969 268.9375 129.582031 C 268.375 129.117188 267.789062 128.683594 267.183594 128.28125 C 266.582031 127.875 265.957031 127.5 265.316406 127.15625 C 264.671875 126.816406 264.015625 126.503906 263.34375 126.222656 C 262.671875 125.945312 261.988281 125.699219 261.289062 125.488281 C 260.59375 125.277344 259.886719 125.097656 259.175781 124.957031 C 258.460938 124.8125 257.742188 124.707031 257.015625 124.632812 C 256.292969 124.5625 255.566406 124.527344 254.839844 124.527344 Z M 268.179688 235.742188 C 268.175781 236.617188 268.089844 237.484375 267.917969 238.34375 C 267.746094 239.203125 267.496094 240.035156 267.160156 240.84375 C 266.824219 241.65625 266.414062 242.421875 265.925781 243.152344 C 265.4375 243.878906 264.886719 244.554688 264.265625 245.171875 C 263.648438 245.792969 262.972656 246.347656 262.246094 246.832031 C 261.519531 247.320312 260.75 247.730469 259.941406 248.066406 C 259.132812 248.402344 258.296875 248.65625 257.441406 248.828125 C 256.582031 249 255.714844 249.085938 254.839844 249.085938 L 112.554688 249.085938 C 111.675781 249.085938 110.808594 249 109.953125 248.828125 C 109.09375 248.65625 108.257812 248.402344 107.449219 248.066406 C 106.640625 247.730469 105.875 247.320312 105.144531 246.832031 C 104.417969 246.347656 103.742188 245.792969 103.125 245.171875 C 102.503906 244.554688 101.953125 243.878906 101.464844 243.152344 C 100.980469 242.421875 100.570312 241.65625 100.234375 240.84375 C 99.898438 240.035156 99.644531 239.203125 99.472656 238.34375 C 99.300781 237.484375 99.214844 236.617188 99.214844 235.742188 L 99.214844 146.769531 C 99.214844 145.890625 99.300781 145.023438 99.472656 144.164062 C 99.644531 143.308594 99.898438 142.472656 100.234375 141.664062 C 100.570312 140.855469 100.980469 140.085938 101.464844 139.359375 C 101.953125 138.628906 102.503906 137.957031 103.125 137.335938 C 103.742188 136.714844 104.417969 136.164062 105.144531 135.675781 C 105.875 135.191406 106.640625 134.777344 107.449219 134.441406 C 108.257812 134.105469 109.09375 133.851562 109.953125 133.679688 C 110.808594 133.511719 111.675781 133.421875 112.554688 133.421875 L 254.839844 133.421875 C 255.714844 133.421875 256.582031 133.511719 257.441406 133.679688 C 258.296875 133.851562 259.132812 134.105469 259.941406 134.441406 C 260.75 134.777344 261.519531 135.191406 262.246094 135.675781 C 262.972656 136.164062 263.648438 136.714844 264.265625 137.335938 C 264.886719 137.957031 265.4375 138.628906 265.925781 139.359375 C 266.414062 140.085938 266.824219 140.855469 267.160156 141.664062 C 267.496094 142.472656 267.746094 143.308594 267.917969 144.164062 C 268.089844 145.023438 268.175781 145.890625 268.179688 146.769531 Z M 148.125 195.703125 C 148.851562 195.703125 149.578125 195.667969 150.304688 195.597656 C 151.027344 195.523438 151.746094 195.417969 152.460938 195.277344 C 153.175781 195.132812 153.882812 194.957031 154.578125 194.746094 C 155.273438 194.535156 155.960938 194.289062 156.632812 194.011719 C 157.304688 193.730469 157.960938 193.421875 158.605469 193.078125 C 159.246094 192.734375 159.871094 192.359375 160.476562 191.953125 C 161.082031 191.550781 161.664062 191.117188 162.226562 190.652344 C 162.792969 190.191406 163.332031 189.703125 163.84375 189.1875 C 164.359375 188.671875 164.847656 188.132812 165.308594 187.570312 C 165.773438 187.007812 166.207031 186.421875 166.609375 185.816406 C 167.015625 185.210938 167.386719 184.589844 167.730469 183.945312 C 168.074219 183.304688 168.386719 182.644531 168.664062 181.972656 C 168.941406 181.300781 169.1875 180.613281 169.398438 179.917969 C 169.609375 179.21875 169.789062 178.515625 169.929688 177.800781 C 170.070312 177.085938 170.179688 176.367188 170.25 175.640625 C 170.320312 174.914062 170.355469 174.1875 170.355469 173.460938 C 170.355469 172.730469 170.320312 172.003906 170.25 171.28125 C 170.179688 170.554688 170.070312 169.835938 169.929688 169.121094 C 169.789062 168.40625 169.609375 167.699219 169.398438 167.003906 C 169.1875 166.304688 168.941406 165.621094 168.664062 164.949219 C 168.386719 164.273438 168.074219 163.617188 167.730469 162.976562 C 167.386719 162.332031 167.015625 161.707031 166.609375 161.101562 C 166.207031 160.496094 165.773438 159.914062 165.308594 159.347656 C 164.847656 158.785156 164.359375 158.246094 163.84375 157.730469 C 163.332031 157.21875 162.792969 156.726562 162.226562 156.265625 C 161.664062 155.804688 161.082031 155.371094 160.476562 154.964844 C 159.871094 154.5625 159.246094 154.1875 158.605469 153.84375 C 157.960938 153.5 157.304688 153.1875 156.632812 152.910156 C 155.960938 152.632812 155.273438 152.386719 154.578125 152.175781 C 153.882812 151.964844 153.175781 151.785156 152.460938 151.644531 C 151.746094 151.503906 151.027344 151.394531 150.304688 151.324219 C 149.578125 151.253906 148.851562 151.21875 148.125 151.21875 C 147.394531 151.21875 146.671875 151.253906 145.945312 151.324219 C 145.222656 151.394531 144.5 151.503906 143.789062 151.644531 C 143.074219 151.785156 142.367188 151.964844 141.671875 152.175781 C 140.972656 152.386719 140.289062 152.632812 139.617188 152.910156 C 138.945312 153.1875 138.285156 153.5 137.644531 153.84375 C 137.003906 154.1875 136.378906 154.5625 135.773438 154.964844 C 135.167969 155.371094 134.582031 155.804688 134.019531 156.265625 C 133.457031 156.726562 132.917969 157.21875 132.402344 157.730469 C 131.890625 158.246094 131.402344 158.785156 130.9375 159.347656 C 130.476562 159.914062 130.042969 160.496094 129.640625 161.101562 C 129.234375 161.707031 128.859375 162.332031 128.515625 162.976562 C 128.175781 163.617188 127.863281 164.273438 127.585938 164.949219 C 127.304688 165.621094 127.0625 166.304688 126.851562 167.003906 C 126.636719 167.699219 126.460938 168.40625 126.320312 169.121094 C 126.175781 169.835938 126.070312 170.554688 126 171.28125 C 125.929688 172.003906 125.890625 172.730469 125.890625 173.460938 C 125.894531 174.1875 125.929688 174.914062 126 175.640625 C 126.074219 176.363281 126.179688 177.082031 126.324219 177.796875 C 126.464844 178.511719 126.640625 179.21875 126.855469 179.914062 C 127.066406 180.613281 127.3125 181.296875 127.589844 181.96875 C 127.867188 182.640625 128.179688 183.300781 128.523438 183.941406 C 128.867188 184.582031 129.242188 185.207031 129.644531 185.8125 C 130.050781 186.417969 130.484375 187.003906 130.945312 187.566406 C 131.40625 188.128906 131.894531 188.667969 132.410156 189.183594 C 132.925781 189.699219 133.464844 190.1875 134.027344 190.648438 C 134.589844 191.109375 135.171875 191.542969 135.777344 191.949219 C 136.382812 192.351562 137.007812 192.726562 137.648438 193.070312 C 138.289062 193.414062 138.949219 193.726562 139.621094 194.003906 C 140.292969 194.285156 140.976562 194.527344 141.671875 194.742188 C 142.371094 194.953125 143.074219 195.128906 143.789062 195.273438 C 144.503906 195.414062 145.222656 195.523438 145.945312 195.59375 C 146.671875 195.667969 147.398438 195.703125 148.125 195.703125 Z M 148.125 160.113281 C 149 160.113281 149.867188 160.199219 150.726562 160.371094 C 151.585938 160.542969 152.421875 160.792969 153.230469 161.128906 C 154.039062 161.464844 154.808594 161.875 155.535156 162.363281 C 156.261719 162.851562 156.9375 163.402344 157.558594 164.023438 C 158.175781 164.644531 158.730469 165.316406 159.214844 166.046875 C 159.703125 166.773438 160.113281 167.542969 160.449219 168.351562 C 160.785156 169.164062 161.035156 169.996094 161.207031 170.855469 C 161.378906 171.714844 161.464844 172.582031 161.464844 173.460938 C 161.464844 174.335938 161.378906 175.203125 161.207031 176.0625 C 161.035156 176.921875 160.785156 177.757812 160.449219 178.566406 C 160.113281 179.378906 159.703125 180.144531 159.214844 180.875 C 158.730469 181.601562 158.175781 182.277344 157.558594 182.898438 C 156.9375 183.515625 156.261719 184.070312 155.535156 184.558594 C 154.808594 185.042969 154.039062 185.453125 153.230469 185.789062 C 152.421875 186.125 151.585938 186.378906 150.726562 186.550781 C 149.867188 186.71875 149 186.804688 148.125 186.804688 C 147.25 186.804688 146.382812 186.71875 145.523438 186.550781 C 144.664062 186.378906 143.828125 186.125 143.019531 185.789062 C 142.210938 185.453125 141.441406 185.042969 140.714844 184.558594 C 139.984375 184.070312 139.3125 183.515625 138.691406 182.898438 C 138.074219 182.277344 137.519531 181.601562 137.035156 180.875 C 136.546875 180.144531 136.136719 179.378906 135.800781 178.566406 C 135.464844 177.757812 135.210938 176.921875 135.042969 176.0625 C 134.871094 175.203125 134.785156 174.335938 134.785156 173.460938 C 134.785156 172.585938 134.871094 171.714844 135.042969 170.859375 C 135.214844 170 135.46875 169.164062 135.804688 168.355469 C 136.140625 167.546875 136.550781 166.777344 137.039062 166.050781 C 137.523438 165.320312 138.078125 164.648438 138.695312 164.027344 C 139.316406 163.40625 139.988281 162.855469 140.71875 162.367188 C 141.445312 161.882812 142.214844 161.46875 143.023438 161.132812 C 143.832031 160.796875 144.664062 160.542969 145.523438 160.375 C 146.382812 160.203125 147.25 160.117188 148.125 160.113281 Z M 179.25 226.84375 C 179.25 227.136719 179.222656 227.425781 179.164062 227.710938 C 179.105469 227.996094 179.023438 228.277344 178.910156 228.546875 C 178.800781 228.816406 178.664062 229.070312 178.5 229.316406 C 178.339844 229.558594 178.152344 229.78125 177.945312 229.988281 C 177.742188 230.195312 177.515625 230.378906 177.273438 230.542969 C 177.03125 230.703125 176.773438 230.839844 176.503906 230.953125 C 176.234375 231.066406 175.957031 231.148438 175.671875 231.207031 C 175.382812 231.261719 175.09375 231.292969 174.804688 231.292969 C 174.511719 231.292969 174.222656 231.261719 173.9375 231.207031 C 173.648438 231.148438 173.371094 231.066406 173.101562 230.953125 C 172.832031 230.839844 172.574219 230.703125 172.332031 230.542969 C 172.089844 230.378906 171.867188 230.195312 171.660156 229.988281 C 171.453125 229.78125 171.269531 229.558594 171.105469 229.316406 C 170.945312 229.070312 170.808594 228.816406 170.695312 228.546875 C 170.582031 228.277344 170.5 227.996094 170.441406 227.710938 C 170.386719 227.425781 170.355469 227.136719 170.355469 226.84375 C 170.355469 225.96875 170.269531 225.101562 170.097656 224.242188 C 169.925781 223.382812 169.671875 222.546875 169.335938 221.738281 C 169 220.929688 168.589844 220.160156 168.105469 219.433594 C 167.617188 218.703125 167.066406 218.03125 166.445312 217.410156 C 165.828125 216.792969 165.152344 216.238281 164.425781 215.75 C 163.695312 215.265625 162.929688 214.851562 162.121094 214.515625 C 161.3125 214.183594 160.476562 213.929688 159.617188 213.757812 C 158.761719 213.585938 157.894531 213.5 157.015625 213.496094 L 139.230469 213.496094 C 138.355469 213.5 137.488281 213.585938 136.628906 213.757812 C 135.773438 213.929688 134.9375 214.183594 134.128906 214.515625 C 133.320312 214.851562 132.550781 215.265625 131.824219 215.75 C 131.097656 216.238281 130.421875 216.792969 129.804688 217.410156 C 129.183594 218.03125 128.632812 218.703125 128.144531 219.433594 C 127.660156 220.160156 127.246094 220.929688 126.910156 221.738281 C 126.574219 222.546875 126.324219 223.382812 126.152344 224.242188 C 125.980469 225.101562 125.894531 225.96875 125.890625 226.84375 C 125.890625 227.136719 125.863281 227.425781 125.808594 227.710938 C 125.75 227.996094 125.664062 228.277344 125.554688 228.546875 C 125.441406 228.816406 125.304688 229.070312 125.144531 229.316406 C 124.980469 229.558594 124.796875 229.78125 124.589844 229.988281 C 124.382812 230.195312 124.160156 230.378906 123.917969 230.542969 C 123.671875 230.703125 123.417969 230.839844 123.148438 230.953125 C 122.878906 231.066406 122.601562 231.148438 122.3125 231.207031 C 122.027344 231.261719 121.738281 231.292969 121.445312 231.292969 C 121.152344 231.292969 120.863281 231.261719 120.578125 231.207031 C 120.292969 231.148438 120.015625 231.066406 119.746094 230.953125 C 119.472656 230.839844 119.21875 230.703125 118.976562 230.542969 C 118.734375 230.378906 118.507812 230.195312 118.300781 229.988281 C 118.09375 229.78125 117.910156 229.558594 117.75 229.316406 C 117.585938 229.070312 117.449219 228.816406 117.339844 228.546875 C 117.226562 228.277344 117.140625 227.996094 117.085938 227.710938 C 117.027344 227.425781 117 227.136719 117 226.84375 C 117 226.113281 117.035156 225.386719 117.109375 224.664062 C 117.179688 223.9375 117.289062 223.21875 117.429688 222.503906 C 117.574219 221.792969 117.75 221.085938 117.960938 220.390625 C 118.171875 219.691406 118.417969 219.007812 118.699219 218.335938 C 118.976562 217.660156 119.289062 217.003906 119.628906 216.363281 C 119.972656 215.71875 120.347656 215.097656 120.753906 214.492188 C 121.15625 213.886719 121.589844 213.300781 122.050781 212.738281 C 122.515625 212.175781 123.003906 211.636719 123.515625 211.121094 C 124.03125 210.605469 124.570312 210.117188 125.132812 209.65625 C 125.695312 209.195312 126.28125 208.761719 126.886719 208.355469 C 127.488281 207.949219 128.113281 207.578125 128.753906 207.234375 C 129.398438 206.890625 130.054688 206.578125 130.726562 206.300781 C 131.398438 206.019531 132.082031 205.773438 132.78125 205.5625 C 133.476562 205.351562 134.183594 205.171875 134.894531 205.03125 C 135.609375 204.886719 136.328125 204.78125 137.054688 204.710938 C 137.777344 204.636719 138.503906 204.601562 139.230469 204.601562 L 157.015625 204.601562 C 157.746094 204.601562 158.472656 204.636719 159.195312 204.710938 C 159.921875 204.78125 160.640625 204.886719 161.351562 205.03125 C 162.066406 205.171875 162.773438 205.351562 163.46875 205.5625 C 164.164062 205.773438 164.847656 206.019531 165.523438 206.300781 C 166.195312 206.578125 166.851562 206.890625 167.492188 207.234375 C 168.136719 207.578125 168.757812 207.949219 169.363281 208.355469 C 169.96875 208.761719 170.554688 209.195312 171.117188 209.65625 C 171.679688 210.117188 172.21875 210.605469 172.730469 211.121094 C 173.246094 211.636719 173.734375 212.175781 174.195312 212.738281 C 174.660156 213.300781 175.09375 213.886719 175.496094 214.492188 C 175.902344 215.097656 176.273438 215.71875 176.617188 216.363281 C 176.960938 217.003906 177.273438 217.660156 177.550781 218.335938 C 177.832031 219.007812 178.074219 219.691406 178.289062 220.390625 C 178.5 221.085938 178.675781 221.792969 178.820312 222.503906 C 178.960938 223.21875 179.070312 223.9375 179.140625 224.664062 C 179.210938 225.386719 179.25 226.113281 179.25 226.84375 Z M 250.390625 177.910156 C 250.390625 178.199219 250.363281 178.492188 250.308594 178.777344 C 250.25 179.0625 250.167969 179.339844 250.054688 179.613281 C 249.941406 179.882812 249.804688 180.136719 249.644531 180.382812 C 249.480469 180.625 249.296875 180.847656 249.089844 181.054688 C 248.882812 181.261719 248.660156 181.445312 248.417969 181.609375 C 248.175781 181.769531 247.917969 181.90625 247.648438 182.019531 C 247.378906 182.132812 247.101562 182.214844 246.8125 182.273438 C 246.527344 182.328125 246.238281 182.359375 245.945312 182.355469 L 210.375 182.355469 C 210.082031 182.355469 209.792969 182.328125 209.507812 182.273438 C 209.21875 182.214844 208.941406 182.128906 208.671875 182.019531 C 208.402344 181.90625 208.148438 181.769531 207.902344 181.609375 C 207.660156 181.445312 207.4375 181.261719 207.230469 181.054688 C 207.023438 180.847656 206.839844 180.625 206.675781 180.378906 C 206.515625 180.136719 206.378906 179.882812 206.265625 179.609375 C 206.15625 179.339844 206.070312 179.0625 206.011719 178.777344 C 205.957031 178.488281 205.929688 178.199219 205.929688 177.910156 C 205.929688 177.617188 205.957031 177.328125 206.011719 177.039062 C 206.070312 176.753906 206.15625 176.476562 206.265625 176.207031 C 206.378906 175.9375 206.515625 175.679688 206.675781 175.4375 C 206.839844 175.195312 207.023438 174.96875 207.230469 174.761719 C 207.4375 174.554688 207.660156 174.371094 207.902344 174.210938 C 208.148438 174.046875 208.402344 173.910156 208.671875 173.796875 C 208.941406 173.6875 209.21875 173.601562 209.507812 173.546875 C 209.792969 173.488281 210.082031 173.460938 210.375 173.460938 L 245.945312 173.460938 C 246.238281 173.460938 246.527344 173.488281 246.8125 173.546875 C 247.101562 173.601562 247.378906 173.6875 247.648438 173.796875 C 247.917969 173.910156 248.175781 174.046875 248.417969 174.210938 C 248.660156 174.371094 248.882812 174.554688 249.089844 174.761719 C 249.296875 174.96875 249.480469 175.195312 249.644531 175.4375 C 249.804688 175.679688 249.941406 175.9375 250.054688 176.207031 C 250.167969 176.476562 250.25 176.753906 250.308594 177.039062 C 250.363281 177.328125 250.390625 177.617188 250.390625 177.910156 Z M 232.605469 204.601562 C 232.605469 204.890625 232.578125 205.183594 232.523438 205.46875 C 232.464844 205.753906 232.378906 206.035156 232.269531 206.304688 C 232.15625 206.574219 232.019531 206.828125 231.859375 207.074219 C 231.695312 207.316406 231.511719 207.539062 231.304688 207.746094 C 231.097656 207.953125 230.875 208.136719 230.632812 208.300781 C 230.386719 208.460938 230.132812 208.597656 229.863281 208.710938 C 229.59375 208.824219 229.3125 208.90625 229.027344 208.964844 C 228.742188 209.019531 228.453125 209.050781 228.160156 209.050781 L 210.375 209.050781 C 210.082031 209.050781 209.792969 209.019531 209.507812 208.964844 C 209.21875 208.90625 208.941406 208.820312 208.671875 208.710938 C 208.402344 208.597656 208.148438 208.460938 207.902344 208.300781 C 207.660156 208.136719 207.4375 207.953125 207.230469 207.746094 C 207.023438 207.539062 206.839844 207.316406 206.675781 207.070312 C 206.515625 206.828125 206.378906 206.574219 206.265625 206.304688 C 206.15625 206.03125 206.070312 205.753906 206.011719 205.46875 C 205.957031 205.183594 205.929688 204.890625 205.929688 204.601562 C 205.929688 204.308594 205.957031 204.019531 206.011719 203.734375 C 206.070312 203.445312 206.15625 203.167969 206.265625 202.898438 C 206.378906 202.628906 206.515625 202.371094 206.675781 202.128906 C 206.839844 201.886719 207.023438 201.660156 207.230469 201.453125 C 207.4375 201.25 207.660156 201.0625 207.902344 200.902344 C 208.148438 200.738281 208.402344 200.601562 208.671875 200.492188 C 208.941406 200.378906 209.21875 200.292969 209.507812 200.238281 C 209.792969 200.179688 210.082031 200.152344 210.375 200.152344 L 228.160156 200.152344 C 228.453125 200.152344 228.742188 200.179688 229.027344 200.238281 C 229.3125 200.292969 229.59375 200.378906 229.863281 200.488281 C 230.132812 200.601562 230.386719 200.738281 230.632812 200.902344 C 230.875 201.0625 231.097656 201.246094 231.304688 201.453125 C 231.511719 201.660156 231.695312 201.886719 231.859375 202.128906 C 232.019531 202.371094 232.15625 202.628906 232.269531 202.898438 C 232.378906 203.167969 232.464844 203.445312 232.523438 203.730469 C 232.578125 204.019531 232.605469 204.308594 232.605469 204.601562 Z M 232.605469 204.601562 " fill-opacity="1" fill-rule="nonzero"/></g><g fill="#000000" fill-opacity="1"><g transform="translate(61.12444, 111.6688)"><g><path d="M 10.625 -9.609375 C 9.226562 -8.203125 7.800781 -7.023438 6.34375 -6.078125 C 4.894531 -5.140625 3.625 -4.425781 2.53125 -3.9375 C 1.445312 -3.457031 0.890625 -3.234375 0.859375 -3.265625 L -0.171875 -3.546875 C -0.347656 -3.785156 -0.742188 -4.316406 -1.359375 -5.140625 C -1.972656 -5.972656 -2.828125 -7.054688 -3.921875 -8.390625 C -5.015625 -9.722656 -6.128906 -10.953125 -7.265625 -12.078125 L -3.796875 -16.140625 C -2.066406 -14.421875 -0.585938 -13.257812 0.640625 -12.65625 C 1.878906 -12.050781 3.046875 -11.914062 4.140625 -12.25 C 5.242188 -12.59375 6.472656 -13.445312 7.828125 -14.8125 C 9.296875 -16.28125 10.144531 -17.78125 10.375 -19.3125 C 10.613281 -20.851562 10.164062 -22.191406 9.03125 -23.328125 C 8.007812 -24.335938 6.679688 -24.71875 5.046875 -24.46875 C 3.410156 -24.226562 1.128906 -23.601562 -1.796875 -22.59375 C -1.972656 -22.519531 -2.488281 -22.332031 -3.34375 -22.03125 C -6.75 -20.8125 -9.707031 -20.164062 -12.21875 -20.09375 C -14.738281 -20.03125 -16.984375 -20.976562 -18.953125 -22.9375 C -20.703125 -24.675781 -21.753906 -26.765625 -22.109375 -29.203125 C -22.472656 -31.640625 -22.125 -34.179688 -21.0625 -36.828125 C -20 -39.472656 -18.296875 -41.976562 -15.953125 -44.34375 C -14.597656 -45.707031 -13.253906 -46.875 -11.921875 -47.84375 C -10.597656 -48.8125 -9.492188 -49.539062 -8.609375 -50.03125 C -7.734375 -50.53125 -7.164062 -50.835938 -6.90625 -50.953125 L -5.984375 -50.6875 C -5.828125 -50.46875 -5.445312 -49.90625 -4.84375 -49 C -4.238281 -48.101562 -3.429688 -47 -2.421875 -45.6875 C -1.410156 -44.375 -0.332031 -43.0625 0.8125 -41.75 L -2.3125 -38.046875 L -3 -37.90625 C -3.09375 -38 -3.269531 -38.203125 -3.53125 -38.515625 C -3.789062 -38.835938 -4.132812 -39.210938 -4.5625 -39.640625 C -5.945312 -41.015625 -7.273438 -41.644531 -8.546875 -41.53125 C -9.828125 -41.425781 -11.28125 -40.5625 -12.90625 -38.9375 C -14.21875 -37.601562 -14.972656 -36.203125 -15.171875 -34.734375 C -15.378906 -33.265625 -14.992188 -32.039062 -14.015625 -31.0625 C -13.273438 -30.320312 -12.332031 -29.925781 -11.1875 -29.875 C -10.050781 -29.820312 -8.894531 -29.957031 -7.71875 -30.28125 C -6.550781 -30.601562 -4.894531 -31.132812 -2.75 -31.875 C -0.195312 -32.78125 1.972656 -33.457031 3.765625 -33.90625 C 5.554688 -34.363281 7.351562 -34.453125 9.15625 -34.171875 C 10.96875 -33.898438 12.597656 -33.046875 14.046875 -31.609375 C 15.898438 -29.773438 17 -27.632812 17.34375 -25.1875 C 17.695312 -22.738281 17.300781 -20.171875 16.15625 -17.484375 C 15.007812 -14.796875 13.164062 -12.171875 10.625 -9.609375 Z M 10.625 -9.609375 "/></g></g></g><g fill="#000000" fill-opacity="1"><g transform="translate(83.524056, 89.358626)"><g><path d="M 0.25 -4.578125 C 1.5625 -6.015625 2.273438 -7.207031 2.390625 -8.15625 C 2.503906 -9.113281 2.03125 -10.332031 0.96875 -11.8125 L -13.71875 -32.28125 C -14.5 -33.375 -15.144531 -34.015625 -15.65625 -34.203125 C -16.164062 -34.398438 -16.804688 -34.222656 -17.578125 -33.671875 L -19.40625 -32.296875 L -19.984375 -32.53125 L -21.75 -35.890625 L -14.421875 -41.078125 C -13.253906 -41.910156 -10.875 -43.800781 -7.28125 -46.75 L -5.03125 -43.078125 C -6.25 -41.941406 -6.941406 -41.03125 -7.109375 -40.34375 C -7.285156 -39.65625 -7.054688 -38.796875 -6.421875 -37.765625 C -0.910156 -29.109375 3.875 -21.945312 7.9375 -16.28125 C 8.976562 -14.832031 9.816406 -13.960938 10.453125 -13.671875 C 11.085938 -13.378906 11.8125 -13.523438 12.625 -14.109375 C 13.019531 -14.378906 13.757812 -14.984375 14.84375 -15.921875 L 15.28125 -15.765625 L 17.1875 -12.09375 L 15.25 -10.78125 L 9.3125 -6.671875 C 7.6875 -5.503906 5.363281 -3.601562 2.34375 -0.96875 Z M 0.25 -4.578125 "/></g></g></g><g fill="#000000" fill-opacity="1"><g transform="translate(99.493968, 76.833135)"><g><path d="M 5.171875 -6.765625 C 6.898438 -7.785156 8.078125 -8.640625 8.703125 -9.328125 C 9.335938 -10.023438 9.601562 -10.832031 9.5 -11.75 C 9.394531 -12.664062 8.910156 -14.019531 8.046875 -15.8125 L -3.3125 -39.296875 C -5.539062 -38.128906 -7.035156 -37.164062 -7.796875 -36.40625 C -8.566406 -35.65625 -8.894531 -34.71875 -8.78125 -33.59375 C -8.664062 -32.46875 -8.148438 -30.585938 -7.234375 -27.953125 L -11.859375 -25.28125 C -13.148438 -28.65625 -14.925781 -32.925781 -17.1875 -38.09375 L -16.859375 -39.0625 L -10.75 -41.203125 L 7.53125 -50.046875 L 13.140625 -53.5625 L 14.09375 -53.21875 C 16.4375 -48.5625 18.585938 -44.613281 20.546875 -41.375 L 15.90625 -38.703125 C 14.3125 -41.210938 13.113281 -42.875 12.3125 -43.6875 C 11.519531 -44.5 10.617188 -44.867188 9.609375 -44.796875 C 8.609375 -44.722656 7.015625 -44.203125 4.828125 -43.234375 C 6.023438 -40.253906 7.753906 -36.25 10.015625 -31.21875 C 12.285156 -26.195312 14.398438 -21.65625 16.359375 -17.59375 C 17.054688 -16.15625 17.804688 -15.242188 18.609375 -14.859375 C 19.421875 -14.484375 20.394531 -14.566406 21.53125 -15.109375 C 22.507812 -15.585938 23.519531 -16.144531 24.5625 -16.78125 L 24.9375 -16.59375 L 26.296875 -12.421875 C 22.078125 -10.578125 18.679688 -9.03125 16.109375 -7.78125 C 14.078125 -6.800781 10.894531 -5.117188 6.5625 -2.734375 Z M 5.171875 -6.765625 "/></g></g></g><g fill="#000000" fill-opacity="1"><g transform="translate(130.410726, 62.643499)"><g/></g></g><g fill="#000000" fill-opacity="1"><g transform="translate(139.888932, 59.525175)"><g/></g></g><g fill="#000000" fill-opacity="1"><g transform="translate(149.547781, 57.021783)"><g/></g></g><g fill="#000000" fill-opacity="1"><g transform="translate(159.347409, 55.14364)"><g/></g></g><g fill="#000000" fill-opacity="1"><g transform="translate(169.247421, 53.898499)"><g/></g></g><g fill="#000000" fill-opacity="1"><g transform="translate(179.206931, 53.291502)"><g/></g></g><g fill="#000000" fill-opacity="1"><g transform="translate(189.18487, 53.325143)"><g/></g></g><g fill="#000000" fill-opacity="1"><g transform="translate(209.03144, 55.311169)"><g/></g></g><g fill="#000000" fill-opacity="1"><g transform="translate(217.483507, 55.697882)"><g><path d="M 20.25 7.34375 L 21.859375 3.84375 C 23.296875 4.21875 24.351562 4.445312 25.03125 4.53125 C 25.71875 4.625 26.234375 4.582031 26.578125 4.40625 C 26.921875 4.238281 27.1875 3.890625 27.375 3.359375 C 27.550781 2.867188 27.703125 2.113281 27.828125 1.09375 L 28.265625 -4.0625 C 26.171875 -4.914062 24.3125 -5.640625 22.6875 -6.234375 C 21.957031 -6.492188 20.390625 -6.953125 17.984375 -7.609375 L 16.65625 -7.9375 L 13.4375 -3.796875 C 12.851562 -2.972656 12.5 -2.378906 12.375 -2.015625 C 12.101562 -1.285156 12.128906 -0.703125 12.453125 -0.265625 C 12.773438 0.171875 13.460938 0.582031 14.515625 0.96875 L 17.171875 1.9375 L 17.296875 2.46875 L 15.515625 6.0625 C 14.972656 5.8125 13.78125 5.289062 11.9375 4.5 C 10.101562 3.71875 8.367188 3.03125 6.734375 2.4375 C 5.015625 1.820312 3.460938 1.285156 2.078125 0.828125 C 0.703125 0.367188 -0.210938 0.078125 -0.671875 -0.046875 L 1.203125 -3.859375 C 2.191406 -3.691406 3.101562 -3.800781 3.9375 -4.1875 C 4.769531 -4.570312 5.695312 -5.363281 6.71875 -6.5625 L 28.953125 -33.59375 L 38.65625 -31.1875 L 39.21875 -30.625 C 38.988281 -28.082031 38.535156 -22.859375 37.859375 -14.953125 C 37.179688 -7.054688 36.75 -0.675781 36.5625 4.1875 C 36.476562 5.820312 36.664062 7.066406 37.125 7.921875 C 37.59375 8.785156 38.503906 9.53125 39.859375 10.15625 L 39.9375 10.6875 L 38.234375 14.0625 C 37.710938 13.84375 36.722656 13.441406 35.265625 12.859375 C 33.816406 12.285156 32.335938 11.726562 30.828125 11.1875 C 28.660156 10.394531 26.523438 9.695312 24.421875 9.09375 C 22.316406 8.488281 20.96875 8.101562 20.375 7.9375 Z M 24.390625 -10.953125 C 24.835938 -10.796875 26.375 -10.3125 29 -9.5 L 30.328125 -24.4375 L 29.53125 -24.71875 L 19.984375 -12.546875 Z M 24.390625 -10.953125 "/></g></g></g><g fill="#000000" fill-opacity="1"><g transform="translate(251.614606, 67.737496)"><g><path d="M 4.734375 -1.46875 C 6.390625 -0.757812 7.664062 -0.550781 8.5625 -0.84375 C 9.46875 -1.132812 10.425781 -2.066406 11.4375 -3.640625 L 24.84375 -24.5625 C 25.59375 -25.738281 25.976562 -26.601562 26 -27.15625 C 26.019531 -27.707031 25.679688 -28.207031 24.984375 -28.65625 C 24.585938 -28.914062 24.195312 -29.140625 23.8125 -29.328125 C 23.425781 -29.523438 23.179688 -29.660156 23.078125 -29.734375 L 23.03125 -30.375 L 25.515625 -33.34375 L 32.40625 -28.859375 C 33.789062 -27.972656 35.347656 -27.015625 37.078125 -25.984375 C 38.804688 -24.953125 40.03125 -24.234375 40.75 -23.828125 C 45.4375 -20.828125 48.171875 -17.6875 48.953125 -14.40625 C 49.734375 -11.125 49.148438 -7.96875 47.203125 -4.9375 C 45.816406 -2.78125 43.898438 -1.132812 41.453125 0 C 39.003906 1.132812 36.40625 1.632812 33.65625 1.5 C 30.90625 1.363281 28.398438 0.570312 26.140625 -0.875 L 21.53125 -3.828125 L 18.75 0.265625 C 17.84375 1.679688 17.242188 2.757812 16.953125 3.5 C 16.660156 4.25 16.613281 4.851562 16.8125 5.3125 C 17.007812 5.769531 17.488281 6.242188 18.25 6.734375 C 18.757812 7.054688 19.265625 7.351562 19.765625 7.625 C 20.265625 7.894531 20.601562 8.085938 20.78125 8.203125 L 20.765625 8.59375 L 18.046875 11.78125 C 17.535156 11.445312 16.609375 10.816406 15.265625 9.890625 C 13.929688 8.960938 12.625 8.085938 11.34375 7.265625 C 10.101562 6.472656 8.414062 5.46875 6.28125 4.25 C 4.15625 3.039062 2.71875 2.25 1.96875 1.875 Z M 29.171875 -4.75 C 33.015625 -3.300781 36.3125 -4.710938 39.0625 -8.984375 C 40.550781 -11.316406 40.984375 -13.445312 40.359375 -15.375 C 39.742188 -17.300781 38.007812 -19.175781 35.15625 -21 C 34.644531 -21.320312 34.296875 -21.476562 34.109375 -21.46875 C 33.921875 -21.457031 33.675781 -21.242188 33.375 -20.828125 C 31.039062 -17.679688 28.160156 -13.597656 24.734375 -8.578125 Z M 29.171875 -4.75 "/></g></g></g><g fill="#000000" fill-opacity="1"><g transform="translate(279.809026, 85.251736)"><g><path d="M 4.9375 -0.4375 C 6.40625 0.601562 7.609375 1.078125 8.546875 0.984375 C 9.492188 0.890625 10.628906 0.179688 11.953125 -1.140625 L 29.46875 -18.78125 C 30.457031 -19.769531 31.019531 -20.53125 31.15625 -21.0625 C 31.289062 -21.59375 31.066406 -22.148438 30.484375 -22.734375 C 30.140625 -23.066406 29.796875 -23.367188 29.453125 -23.640625 C 29.117188 -23.921875 28.910156 -24.101562 28.828125 -24.1875 L 28.90625 -24.84375 L 32 -27.1875 L 37.765625 -21.375 C 38.929688 -20.21875 40.25 -18.945312 41.71875 -17.5625 C 43.195312 -16.1875 44.25 -15.226562 44.875 -14.6875 C 48.8125 -10.769531 50.816406 -7.117188 50.890625 -3.734375 C 50.960938 -0.359375 49.726562 2.601562 47.1875 5.15625 C 45.375 6.96875 43.148438 8.164062 40.515625 8.75 C 37.878906 9.34375 35.234375 9.28125 32.578125 8.5625 C 29.929688 7.851562 27.65625 6.550781 25.75 4.65625 L 21.875 0.796875 L 18.265625 4.21875 C 17.078125 5.414062 16.265625 6.34375 15.828125 7 C 15.390625 7.664062 15.21875 8.242188 15.3125 8.734375 C 15.40625 9.234375 15.769531 9.800781 16.40625 10.4375 C 16.84375 10.863281 17.273438 11.257812 17.703125 11.625 C 18.140625 12 18.4375 12.265625 18.59375 12.421875 L 18.484375 12.78125 L 15.15625 15.328125 C 14.71875 14.898438 13.941406 14.085938 12.828125 12.890625 C 11.722656 11.703125 10.628906 10.570312 9.546875 9.5 C 8.503906 8.457031 7.066406 7.117188 5.234375 5.484375 C 3.398438 3.847656 2.164062 2.769531 1.53125 2.25 Z M 29.515625 1.53125 C 32.972656 3.75 36.492188 3.054688 40.078125 -0.546875 C 42.035156 -2.515625 42.910156 -4.5 42.703125 -6.5 C 42.492188 -8.507812 41.191406 -10.707031 38.796875 -13.09375 C 38.367188 -13.519531 38.0625 -13.75 37.875 -13.78125 C 37.6875 -13.8125 37.394531 -13.65625 37 -13.3125 C 34.070312 -10.726562 30.398438 -7.34375 25.984375 -3.15625 Z M 29.515625 1.53125 "/></g></g></g><g clip-path="url(#d378d83540)"><path fill="#ff5757" d="M 159.019531 29.390625 L 162.230469 21.191406 C 162.253906 21.117188 162.324219 21.070312 162.394531 21 C 162.5625 20.882812 162.796875 20.789062 163.058594 20.695312 C 164.261719 20.292969 166.007812 19.964844 168.039062 19.753906 C 173.496094 19.140625 179.660156 19.140625 185.117188 19.753906 C 187.148438 19.988281 188.898438 20.316406 190.101562 20.695312 C 190.359375 20.789062 190.597656 20.882812 190.761719 21 C 190.832031 21.046875 190.90625 21.117188 190.929688 21.191406 L 194.140625 29.390625 C 194.730469 29.578125 195.296875 29.816406 195.839844 30.074219 L 198.628906 31.441406 L 194.140625 19.941406 C 193.855469 19.210938 193.382812 18.644531 192.816406 18.21875 C 192.320312 17.867188 191.777344 17.609375 191.210938 17.417969 C 189.792969 16.949219 187.785156 16.570312 185.519531 16.3125 C 179.804688 15.675781 173.402344 15.675781 167.6875 16.3125 C 165.371094 16.59375 163.363281 16.972656 161.945312 17.441406 C 161.378906 17.632812 160.835938 17.867188 160.339844 18.242188 C 159.773438 18.667969 159.300781 19.210938 159.019531 19.964844 L 154.53125 31.464844 L 157.316406 30.097656 C 157.835938 29.816406 158.429688 29.601562 159.019531 29.390625 Z M 164.402344 30.050781 C 161.945312 30.332031 159.726562 30.804688 158.074219 31.605469 C 161.378906 32.40625 163.953125 35.117188 164.546875 38.488281 C 164.804688 39.972656 165.914062 41.058594 167.402344 41.292969 C 171.960938 42 181.171875 42 185.753906 41.292969 C 187.242188 41.058594 188.355469 39.972656 188.613281 38.488281 C 189.203125 35.117188 191.777344 32.40625 195.085938 31.628906 C 193.433594 30.804688 191.1875 30.332031 188.753906 30.074219 C 181.621094 29.25 171.511719 29.25 164.402344 30.050781 Z M 197.046875 33.089844 C 193.832031 33.089844 191.140625 35.28125 190.386719 38.230469 C 190.386719 38.230469 190.265625 38.722656 190.265625 38.769531 C 189.890625 40.960938 188.1875 42.636719 185.992188 42.964844 C 180.699219 43.789062 172.386719 43.789062 167.121094 42.964844 C 164.921875 42.613281 163.222656 40.960938 162.84375 38.769531 C 162.84375 38.722656 162.75 38.230469 162.726562 38.230469 C 161.96875 35.257812 159.277344 33.089844 156.066406 33.089844 C 152.261719 33.089844 149.191406 36.179688 149.191406 39.972656 L 149.191406 46.832031 C 149.191406 50.625 152.261719 53.6875 156.066406 53.6875 L 197.070312 53.6875 C 200.871094 53.6875 203.941406 50.625 203.941406 46.832031 L 203.941406 39.972656 C 203.941406 36.179688 200.847656 33.089844 197.046875 33.089844 Z M 157.789062 48.527344 L 153.492188 48.527344 C 153.019531 48.527344 152.640625 48.152344 152.640625 47.679688 C 152.640625 47.207031 153.019531 46.832031 153.492188 46.832031 L 157.789062 46.832031 C 158.261719 46.832031 158.640625 47.207031 158.640625 47.679688 C 158.640625 48.152344 158.261719 48.527344 157.789062 48.527344 Z M 156.066406 43.390625 C 154.175781 43.390625 152.617188 41.859375 152.617188 39.949219 C 152.617188 38.0625 154.152344 36.507812 156.066406 36.507812 C 157.957031 36.507812 159.515625 38.039062 159.515625 39.949219 C 159.515625 41.859375 157.957031 43.390625 156.066406 43.390625 Z M 188.472656 50.25 L 164.664062 50.25 C 163.71875 50.25 162.9375 49.46875 162.9375 48.527344 C 162.9375 47.585938 163.71875 46.808594 164.664062 46.808594 L 188.472656 46.808594 C 189.417969 46.808594 190.195312 47.585938 190.195312 48.527344 C 190.171875 49.46875 189.417969 50.25 188.472656 50.25 Z M 199.644531 48.527344 L 195.34375 48.527344 C 194.871094 48.527344 194.496094 48.152344 194.496094 47.679688 C 194.496094 47.207031 194.871094 46.832031 195.34375 46.832031 L 199.644531 46.832031 C 200.117188 46.832031 200.492188 47.207031 200.492188 47.679688 C 200.492188 48.152344 200.117188 48.527344 199.644531 48.527344 Z M 197.046875 43.390625 C 195.15625 43.390625 193.597656 41.859375 193.597656 39.949219 C 193.597656 38.0625 195.132812 36.507812 197.046875 36.507812 C 198.933594 36.507812 200.492188 38.039062 200.492188 39.949219 C 200.492188 41.859375 198.957031 43.390625 197.046875 43.390625 Z M 149.191406 51.96875 L 149.191406 58.828125 C 149.191406 59.769531 149.972656 60.546875 150.917969 60.546875 L 157.789062 60.546875 C 158.734375 60.546875 159.515625 59.769531 159.515625 58.828125 L 159.515625 55.386719 L 156.066406 55.386719 C 153.253906 55.410156 150.75 54.042969 149.191406 51.96875 Z M 197.046875 55.410156 L 193.597656 55.410156 L 193.597656 58.851562 C 193.597656 59.792969 194.375 60.570312 195.320312 60.570312 L 202.195312 60.570312 C 203.140625 60.570312 203.917969 59.792969 203.917969 58.851562 L 203.917969 51.992188 C 202.359375 54.042969 199.855469 55.410156 197.046875 55.410156 Z M 197.046875 55.410156 " fill-opacity="1" fill-rule="evenodd"/></g></svg>