<svg xmlns="http://www.w3.org/2000/svg" xmlns:xlink="http://www.w3.org/1999/xlink" width="500" zoomAndPan="magnify" viewBox="0 0 375 374.999991" height="500" preserveAspectRatio="xMidYMid meet" version="1.0"><defs><g/><clipPath id="949db6eff9"><path d="M 146.148438 150 L 211.398438 150 L 211.398438 203.753906 L 146.148438 203.753906 Z M 146.148438 150 " clip-rule="nonzero"/></clipPath></defs><g fill="#000000" fill-opacity="1"><g transform="translate(1.845689, 203.995269)"><g><path d="M 17.046875 0.9375 C 14.671875 0.9375 12.472656 0.710938 10.453125 0.265625 C 8.441406 -0.171875 6.773438 -0.644531 5.453125 -1.15625 C 4.140625 -1.675781 3.484375 -1.960938 3.484375 -2.015625 L 2.875 -3.09375 C 2.914062 -3.457031 3.023438 -4.242188 3.203125 -5.453125 C 3.390625 -6.671875 3.585938 -8.300781 3.796875 -10.34375 C 4.003906 -12.382812 4.109375 -14.363281 4.109375 -16.28125 L 10.46875 -16.734375 C 10.46875 -13.847656 10.722656 -11.628906 11.234375 -10.078125 C 11.753906 -8.523438 12.617188 -7.425781 13.828125 -6.78125 C 15.046875 -6.132812 16.789062 -5.8125 19.0625 -5.8125 C 21.539062 -5.8125 23.53125 -6.351562 25.03125 -7.4375 C 26.53125 -8.519531 27.28125 -10.019531 27.28125 -11.9375 C 27.28125 -13.644531 26.488281 -15.09375 24.90625 -16.28125 C 23.332031 -17.46875 20.894531 -18.859375 17.59375 -20.453125 C 17.382812 -20.554688 16.789062 -20.84375 15.8125 -21.3125 C 11.9375 -23.175781 8.910156 -25.140625 6.734375 -27.203125 C 4.566406 -29.265625 3.484375 -31.953125 3.484375 -35.265625 C 3.484375 -38.210938 4.359375 -40.859375 6.109375 -43.203125 C 7.867188 -45.554688 10.3125 -47.390625 13.4375 -48.703125 C 16.570312 -50.023438 20.128906 -50.6875 24.109375 -50.6875 C 26.378906 -50.6875 28.484375 -50.53125 30.421875 -50.21875 C 32.359375 -49.90625 33.90625 -49.582031 35.0625 -49.25 C 36.226562 -48.914062 36.96875 -48.695312 37.28125 -48.59375 L 37.8125 -47.578125 C 37.769531 -47.273438 37.617188 -46.488281 37.359375 -45.21875 C 37.097656 -43.957031 36.835938 -42.34375 36.578125 -40.375 C 36.316406 -38.414062 36.109375 -36.398438 35.953125 -34.328125 L 30.21875 -33.875 L 29.53125 -34.328125 C 29.53125 -34.484375 29.554688 -34.804688 29.609375 -35.296875 C 29.660156 -35.785156 29.6875 -36.394531 29.6875 -37.125 C 29.6875 -39.445312 29.101562 -41.097656 27.9375 -42.078125 C 26.769531 -43.066406 24.820312 -43.5625 22.09375 -43.5625 C 19.863281 -43.5625 18.039062 -43.03125 16.625 -41.96875 C 15.207031 -40.90625 14.5 -39.546875 14.5 -37.890625 C 14.5 -36.648438 14.945312 -35.523438 15.84375 -34.515625 C 16.75 -33.515625 17.832031 -32.648438 19.09375 -31.921875 C 20.363281 -31.203125 22.210938 -30.25 24.640625 -29.0625 C 27.535156 -27.664062 29.925781 -26.398438 31.8125 -25.265625 C 33.695312 -24.128906 35.285156 -22.679688 36.578125 -20.921875 C 37.867188 -19.171875 38.515625 -17.078125 38.515625 -14.640625 C 38.515625 -11.546875 37.625 -8.820312 35.84375 -6.46875 C 34.0625 -4.113281 31.554688 -2.289062 28.328125 -1 C 25.097656 0.289062 21.335938 0.9375 17.046875 0.9375 Z M 17.046875 0.9375 "/></g></g></g><g fill="#000000" fill-opacity="1"><g transform="translate(43.619133, 203.995269)"><g><path d="M 3.40625 -4.265625 C 5.675781 -4.722656 7.195312 -5.378906 7.96875 -6.234375 C 8.75 -7.085938 9.140625 -8.597656 9.140625 -10.765625 L 9.140625 -40.765625 C 9.140625 -42.367188 8.957031 -43.441406 8.59375 -43.984375 C 8.238281 -44.523438 7.492188 -44.796875 6.359375 -44.796875 L 3.640625 -44.71875 L 3.25 -45.34375 L 3.875 -49.828125 L 14.5625 -49.75 C 16.269531 -49.75 19.890625 -49.929688 25.421875 -50.296875 L 25.03125 -45.1875 C 23.070312 -44.925781 21.769531 -44.523438 21.125 -43.984375 C 20.476562 -43.441406 20.101562 -42.445312 20 -41 C 19.320312 -28.800781 18.984375 -18.546875 18.984375 -10.234375 C 18.984375 -8.109375 19.191406 -6.679688 19.609375 -5.953125 C 20.023438 -5.234375 20.828125 -4.875 22.015625 -4.875 C 22.578125 -4.875 23.710938 -4.953125 25.421875 -5.109375 L 25.734375 -4.65625 L 25.03125 0.234375 L 22.25 0.15625 L 13.640625 0 C 11.265625 0 7.695312 0.234375 2.9375 0.703125 Z M 3.40625 -4.265625 "/></g></g></g><g fill="#000000" fill-opacity="1"><g transform="translate(71.907274, 203.995269)"><g><path d="M 9.0625 -4.578125 C 11.4375 -4.773438 13.140625 -5.082031 14.171875 -5.5 C 15.210938 -5.914062 15.910156 -6.640625 16.265625 -7.671875 C 16.628906 -8.703125 16.8125 -10.40625 16.8125 -12.78125 L 16.8125 -43.859375 C 13.820312 -43.753906 11.71875 -43.492188 10.5 -43.078125 C 9.289062 -42.671875 8.453125 -41.832031 7.984375 -40.5625 C 7.515625 -39.300781 7.101562 -37.019531 6.75 -33.71875 L 0.390625 -33.25 C 0.753906 -37.539062 1.0625 -43.039062 1.3125 -49.75 L 2.171875 -50.609375 L 9.84375 -49.75 L 34.015625 -49.75 L 41.84375 -50.609375 L 42.703125 -49.75 C 42.804688 -43.550781 43.066406 -38.207031 43.484375 -33.71875 L 37.125 -33.25 C 36.707031 -36.757812 36.28125 -39.160156 35.84375 -40.453125 C 35.40625 -41.742188 34.628906 -42.609375 33.515625 -43.046875 C 32.410156 -43.484375 30.4375 -43.753906 27.59375 -43.859375 C 27.332031 -40.035156 27.109375 -34.84375 26.921875 -28.28125 C 26.742188 -21.71875 26.65625 -15.753906 26.65625 -10.390625 C 26.65625 -8.472656 26.988281 -7.097656 27.65625 -6.265625 C 28.332031 -5.441406 29.421875 -5.03125 30.921875 -5.03125 C 32.210938 -5.03125 33.582031 -5.109375 35.03125 -5.265625 L 35.34375 -4.875 L 34.640625 0.3125 C 29.160156 0.101562 24.71875 0 21.3125 0 C 18.625 0 14.335938 0.15625 8.453125 0.46875 Z M 9.0625 -4.578125 "/></g></g></g><g fill="#000000" fill-opacity="1"><g transform="translate(115.850774, 203.995269)"><g/></g></g><g fill="#000000" fill-opacity="1"><g transform="translate(129.336083, 203.995269)"><g/></g></g><g fill="#000000" fill-opacity="1"><g transform="translate(142.821389, 203.995269)"><g/></g></g><g fill="#000000" fill-opacity="1"><g transform="translate(156.306681, 203.995269)"><g/></g></g><g fill="#000000" fill-opacity="1"><g transform="translate(169.791987, 203.995269)"><g/></g></g><g fill="#000000" fill-opacity="1"><g transform="translate(183.277279, 203.995269)"><g/></g></g><g fill="#000000" fill-opacity="1"><g transform="translate(196.762585, 203.995269)"><g/></g></g><g fill="#000000" fill-opacity="1"><g transform="translate(210.247877, 203.995269)"><g/></g></g><g fill="#000000" fill-opacity="1"><g transform="translate(223.733169, 203.995269)"><g/></g></g><g fill="#000000" fill-opacity="1"><g transform="translate(237.218478, 203.995269)"><g><path d="M 25.65625 0 L 26.046875 -4.578125 C 27.796875 -4.734375 29.070312 -4.898438 29.875 -5.078125 C 30.675781 -5.253906 31.226562 -5.507812 31.53125 -5.84375 C 31.84375 -6.1875 32 -6.691406 32 -7.359375 C 32 -7.984375 31.875 -8.890625 31.625 -10.078125 L 30 -16.046875 C 27.3125 -16.148438 24.929688 -16.203125 22.859375 -16.203125 C 21.929688 -16.203125 19.992188 -16.070312 17.046875 -15.8125 L 15.421875 -15.65625 L 13.484375 -9.6875 C 13.171875 -8.550781 13.015625 -7.75 13.015625 -7.28125 C 13.015625 -6.351562 13.285156 -5.707031 13.828125 -5.34375 C 14.367188 -4.988281 15.3125 -4.8125 16.65625 -4.8125 L 20 -4.8125 L 20.375 -4.265625 L 19.84375 0.46875 C 19.113281 0.414062 17.5625 0.320312 15.1875 0.1875 C 12.8125 0.0625 10.59375 0 8.53125 0 C 6.351562 0 4.398438 0.0234375 2.671875 0.078125 C 0.941406 0.128906 -0.207031 0.179688 -0.78125 0.234375 L -0.234375 -4.8125 C 0.953125 -5.007812 1.929688 -5.492188 2.703125 -6.265625 C 3.484375 -7.046875 4.207031 -8.316406 4.875 -10.078125 L 18.75 -49.375 L 30.609375 -50.609375 L 31.46875 -50.21875 C 32.238281 -47.269531 33.847656 -41.234375 36.296875 -32.109375 C 38.753906 -22.992188 40.863281 -15.675781 42.625 -10.15625 C 43.195312 -8.289062 43.921875 -6.96875 44.796875 -6.1875 C 45.671875 -5.414062 46.988281 -4.957031 48.75 -4.8125 L 49.0625 -4.265625 L 48.515625 0.234375 C 47.835938 0.179688 46.566406 0.128906 44.703125 0.078125 C 42.847656 0.0234375 40.96875 0 39.0625 0 C 36.320312 0 33.644531 0.0859375 31.03125 0.265625 C 28.425781 0.453125 26.765625 0.570312 26.046875 0.625 Z M 22.859375 -22.171875 C 23.429688 -22.171875 25.34375 -22.242188 28.59375 -22.390625 L 24.03125 -39.6875 L 23.015625 -39.6875 L 17.28125 -22.171875 Z M 22.859375 -22.171875 "/></g></g></g><g fill="#000000" fill-opacity="1"><g transform="translate(285.657077, 203.995269)"><g><path d="M 3.796875 -4.5 C 5.910156 -4.851562 7.328125 -5.46875 8.046875 -6.34375 C 8.773438 -7.226562 9.140625 -8.78125 9.140625 -11 L 9.140625 -40.609375 C 9.140625 -42.265625 8.972656 -43.375 8.640625 -43.9375 C 8.304688 -44.507812 7.648438 -44.796875 6.671875 -44.796875 C 6.097656 -44.796875 5.550781 -44.769531 5.03125 -44.71875 C 4.519531 -44.664062 4.1875 -44.640625 4.03125 -44.640625 L 3.5625 -45.265625 L 4.1875 -49.828125 L 13.953125 -49.75 C 15.910156 -49.75 18.09375 -49.785156 20.5 -49.859375 C 22.90625 -49.941406 24.597656 -50.007812 25.578125 -50.0625 C 32.191406 -50.0625 36.941406 -48.664062 39.828125 -45.875 C 42.722656 -43.082031 44.171875 -39.546875 44.171875 -35.265625 C 44.171875 -32.210938 43.304688 -29.328125 41.578125 -26.609375 C 39.847656 -23.898438 37.5625 -21.734375 34.71875 -20.109375 C 31.875 -18.484375 28.851562 -17.671875 25.65625 -17.671875 L 19.140625 -17.671875 L 18.984375 -11.78125 C 18.984375 -9.757812 19.070312 -8.285156 19.25 -7.359375 C 19.4375 -6.429688 19.773438 -5.796875 20.265625 -5.453125 C 20.753906 -5.117188 21.539062 -4.953125 22.625 -4.953125 C 23.351562 -4.953125 24.050781 -4.976562 24.71875 -5.03125 C 25.394531 -5.082031 25.863281 -5.109375 26.125 -5.109375 L 26.34375 -4.734375 L 25.65625 0.234375 C 24.925781 0.234375 23.59375 0.191406 21.65625 0.109375 C 19.71875 0.0351562 17.847656 0 16.046875 0 C 14.285156 0 11.945312 0.078125 9.03125 0.234375 C 6.113281 0.390625 4.160156 0.519531 3.171875 0.625 Z M 26.1875 -23.484375 C 31 -24.515625 33.40625 -28.050781 33.40625 -34.09375 C 33.40625 -37.40625 32.472656 -39.820312 30.609375 -41.34375 C 28.753906 -42.863281 25.8125 -43.625 21.78125 -43.625 C 21.050781 -43.625 20.597656 -43.5625 20.421875 -43.4375 C 20.242188 -43.3125 20.128906 -42.9375 20.078125 -42.3125 C 19.765625 -37.664062 19.503906 -31.722656 19.296875 -24.484375 Z M 26.1875 -23.484375 "/></g></g></g><g fill="#000000" fill-opacity="1"><g transform="translate(330.29807, 203.995269)"><g><path d="M 3.796875 -4.5 C 5.910156 -4.851562 7.328125 -5.46875 8.046875 -6.34375 C 8.773438 -7.226562 9.140625 -8.78125 9.140625 -11 L 9.140625 -40.609375 C 9.140625 -42.265625 8.972656 -43.375 8.640625 -43.9375 C 8.304688 -44.507812 7.648438 -44.796875 6.671875 -44.796875 C 6.097656 -44.796875 5.550781 -44.769531 5.03125 -44.71875 C 4.519531 -44.664062 4.1875 -44.640625 4.03125 -44.640625 L 3.5625 -45.265625 L 4.1875 -49.828125 L 13.953125 -49.75 C 15.910156 -49.75 18.09375 -49.785156 20.5 -49.859375 C 22.90625 -49.941406 24.597656 -50.007812 25.578125 -50.0625 C 32.191406 -50.0625 36.941406 -48.664062 39.828125 -45.875 C 42.722656 -43.082031 44.171875 -39.546875 44.171875 -35.265625 C 44.171875 -32.210938 43.304688 -29.328125 41.578125 -26.609375 C 39.847656 -23.898438 37.5625 -21.734375 34.71875 -20.109375 C 31.875 -18.484375 28.851562 -17.671875 25.65625 -17.671875 L 19.140625 -17.671875 L 18.984375 -11.78125 C 18.984375 -9.757812 19.070312 -8.285156 19.25 -7.359375 C 19.4375 -6.429688 19.773438 -5.796875 20.265625 -5.453125 C 20.753906 -5.117188 21.539062 -4.953125 22.625 -4.953125 C 23.351562 -4.953125 24.050781 -4.976562 24.71875 -5.03125 C 25.394531 -5.082031 25.863281 -5.109375 26.125 -5.109375 L 26.34375 -4.734375 L 25.65625 0.234375 C 24.925781 0.234375 23.59375 0.191406 21.65625 0.109375 C 19.71875 0.0351562 17.847656 0 16.046875 0 C 14.285156 0 11.945312 0.078125 9.03125 0.234375 C 6.113281 0.390625 4.160156 0.519531 3.171875 0.625 Z M 26.1875 -23.484375 C 31 -24.515625 33.40625 -28.050781 33.40625 -34.09375 C 33.40625 -37.40625 32.472656 -39.820312 30.609375 -41.34375 C 28.753906 -42.863281 25.8125 -43.625 21.78125 -43.625 C 21.050781 -43.625 20.597656 -43.5625 20.421875 -43.4375 C 20.242188 -43.3125 20.128906 -42.9375 20.078125 -42.3125 C 19.765625 -37.664062 19.503906 -31.722656 19.296875 -24.484375 Z M 26.1875 -23.484375 "/></g></g></g><g clip-path="url(#949db6eff9)"><path fill="#0097b2" d="M 157.859375 166.277344 L 161.6875 156.433594 C 161.714844 156.347656 161.800781 156.292969 161.882812 156.207031 C 162.082031 156.066406 162.363281 155.953125 162.671875 155.839844 C 164.109375 155.359375 166.191406 154.960938 168.613281 154.707031 C 175.113281 153.972656 182.460938 153.972656 188.964844 154.707031 C 191.382812 154.992188 193.46875 155.386719 194.902344 155.839844 C 195.210938 155.953125 195.496094 156.066406 195.691406 156.207031 C 195.777344 156.261719 195.859375 156.347656 195.886719 156.433594 L 199.714844 166.277344 C 200.421875 166.503906 201.097656 166.785156 201.742188 167.097656 L 205.066406 168.738281 L 199.714844 154.933594 C 199.378906 154.058594 198.816406 153.378906 198.140625 152.871094 C 197.550781 152.445312 196.902344 152.132812 196.226562 151.90625 C 194.539062 151.34375 192.144531 150.890625 189.441406 150.578125 C 182.628906 149.816406 175 149.816406 168.191406 150.578125 C 165.429688 150.917969 163.039062 151.371094 161.347656 151.9375 C 160.671875 152.160156 160.027344 152.445312 159.433594 152.898438 C 158.757812 153.40625 158.195312 154.058594 157.859375 154.960938 L 152.511719 168.765625 L 155.832031 167.125 C 156.453125 166.785156 157.15625 166.53125 157.859375 166.277344 Z M 164.277344 167.066406 C 161.347656 167.40625 158.703125 167.972656 156.734375 168.933594 C 160.671875 169.894531 163.742188 173.148438 164.445312 177.195312 C 164.753906 178.976562 166.078125 180.277344 167.851562 180.558594 C 173.285156 181.40625 184.261719 181.40625 189.722656 180.558594 C 191.496094 180.277344 192.820312 178.976562 193.128906 177.195312 C 193.832031 173.148438 196.902344 169.894531 200.84375 168.964844 C 198.871094 167.972656 196.199219 167.40625 193.296875 167.097656 C 184.796875 166.105469 172.75 166.105469 164.277344 167.066406 Z M 203.179688 170.714844 C 199.351562 170.714844 196.140625 173.347656 195.242188 176.882812 C 195.242188 176.882812 195.101562 177.476562 195.101562 177.53125 C 194.648438 180.164062 192.625 182.171875 190.003906 182.566406 C 183.699219 183.558594 173.792969 183.558594 167.515625 182.566406 C 164.894531 182.144531 162.871094 180.164062 162.417969 177.53125 C 162.417969 177.476562 162.304688 176.882812 162.277344 176.882812 C 161.378906 173.320312 158.167969 170.714844 154.339844 170.714844 C 149.808594 170.714844 146.148438 174.421875 146.148438 178.976562 L 146.148438 187.207031 C 146.148438 191.761719 149.808594 195.4375 154.339844 195.4375 L 203.207031 195.4375 C 207.738281 195.4375 211.398438 191.761719 211.398438 187.207031 L 211.398438 178.976562 C 211.398438 174.421875 207.710938 170.714844 203.179688 170.714844 Z M 156.394531 189.242188 L 151.273438 189.242188 C 150.707031 189.242188 150.257812 188.789062 150.257812 188.222656 C 150.257812 187.660156 150.707031 187.207031 151.273438 187.207031 L 156.394531 187.207031 C 156.957031 187.207031 157.410156 187.660156 157.410156 188.222656 C 157.410156 188.789062 156.957031 189.242188 156.394531 189.242188 Z M 154.339844 183.078125 C 152.089844 183.078125 150.230469 181.238281 150.230469 178.949219 C 150.230469 176.683594 152.058594 174.816406 154.339844 174.816406 C 156.59375 174.816406 158.449219 176.65625 158.449219 178.949219 C 158.449219 181.238281 156.59375 183.078125 154.339844 183.078125 Z M 192.960938 191.308594 L 164.585938 191.308594 C 163.460938 191.308594 162.53125 190.375 162.53125 189.242188 C 162.53125 188.113281 163.460938 187.179688 164.585938 187.179688 L 192.960938 187.179688 C 194.085938 187.179688 195.015625 188.113281 195.015625 189.242188 C 194.988281 190.375 194.085938 191.308594 192.960938 191.308594 Z M 206.277344 189.242188 L 201.152344 189.242188 C 200.589844 189.242188 200.140625 188.789062 200.140625 188.222656 C 200.140625 187.660156 200.589844 187.207031 201.152344 187.207031 L 206.277344 187.207031 C 206.839844 187.207031 207.289062 187.660156 207.289062 188.222656 C 207.289062 188.789062 206.839844 189.242188 206.277344 189.242188 Z M 203.179688 183.078125 C 200.925781 183.078125 199.070312 181.238281 199.070312 178.949219 C 199.070312 176.683594 200.898438 174.816406 203.179688 174.816406 C 205.429688 174.816406 207.289062 176.65625 207.289062 178.949219 C 207.289062 181.238281 205.460938 183.078125 203.179688 183.078125 Z M 146.148438 193.371094 L 146.148438 201.601562 C 146.148438 202.734375 147.078125 203.667969 148.203125 203.667969 L 156.394531 203.667969 C 157.519531 203.667969 158.449219 202.734375 158.449219 201.601562 L 158.449219 197.472656 L 154.339844 197.472656 C 150.992188 197.5 148.007812 195.863281 146.148438 193.371094 Z M 203.179688 197.5 L 199.070312 197.5 L 199.070312 201.632812 C 199.070312 202.761719 200 203.695312 201.125 203.695312 L 209.316406 203.695312 C 210.441406 203.695312 211.371094 202.761719 211.371094 201.632812 L 211.371094 193.402344 C 209.511719 195.863281 206.527344 197.5 203.179688 197.5 Z M 203.179688 197.5 " fill-opacity="1" fill-rule="evenodd"/></g></svg>