<svg xmlns="http://www.w3.org/2000/svg" xmlns:xlink="http://www.w3.org/1999/xlink" width="500" zoomAndPan="magnify" viewBox="0 0 375 374.999991" height="500" preserveAspectRatio="xMidYMid meet" version="1.0"><defs><g/><clipPath id="be32855c99"><path d="M 94.21875 124.503906 L 280.96875 124.503906 L 280.96875 258 L 94.21875 258 Z M 94.21875 124.503906 " clip-rule="nonzero"/></clipPath></defs><g clip-path="url(#be32855c99)"><path fill="#0097b2" d="M 258.734375 124.527344 L 116.449219 124.527344 C 115.722656 124.527344 114.996094 124.5625 114.273438 124.632812 C 113.546875 124.707031 112.828125 124.8125 112.113281 124.957031 C 111.402344 125.097656 110.695312 125.277344 110 125.488281 C 109.300781 125.699219 108.617188 125.945312 107.945312 126.222656 C 107.273438 126.503906 106.617188 126.8125 105.972656 127.15625 C 105.332031 127.5 104.707031 127.875 104.105469 128.28125 C 103.5 128.683594 102.914062 129.117188 102.351562 129.582031 C 101.789062 130.042969 101.25 130.53125 100.734375 131.046875 C 100.222656 131.5625 99.734375 132.101562 99.269531 132.664062 C 98.808594 133.226562 98.375 133.808594 97.972656 134.414062 C 97.566406 135.019531 97.191406 135.644531 96.847656 136.289062 C 96.507812 136.929688 96.195312 137.585938 95.914062 138.257812 C 95.636719 138.933594 95.390625 139.617188 95.179688 140.3125 C 94.96875 141.011719 94.792969 141.714844 94.648438 142.429688 C 94.507812 143.144531 94.398438 143.863281 94.328125 144.589844 C 94.253906 145.3125 94.21875 146.039062 94.21875 146.769531 L 94.21875 235.742188 C 94.21875 236.46875 94.253906 237.195312 94.328125 237.921875 C 94.398438 238.644531 94.507812 239.363281 94.648438 240.078125 C 94.792969 240.792969 94.96875 241.5 95.179688 242.195312 C 95.390625 242.890625 95.636719 243.578125 95.914062 244.25 C 96.195312 244.921875 96.507812 245.578125 96.847656 246.222656 C 97.191406 246.863281 97.566406 247.488281 97.972656 248.09375 C 98.375 248.699219 98.808594 249.28125 99.269531 249.847656 C 99.734375 250.410156 100.222656 250.949219 100.734375 251.460938 C 101.25 251.976562 101.789062 252.464844 102.351562 252.929688 C 102.914062 253.390625 103.5 253.824219 104.105469 254.230469 C 104.707031 254.632812 105.332031 255.007812 105.972656 255.351562 C 106.617188 255.695312 107.273438 256.007812 107.945312 256.285156 C 108.617188 256.5625 109.300781 256.808594 110 257.019531 C 110.695312 257.234375 111.402344 257.410156 112.113281 257.554688 C 112.828125 257.695312 113.546875 257.800781 114.273438 257.875 C 114.996094 257.945312 115.722656 257.984375 116.449219 257.984375 L 258.734375 257.984375 C 259.464844 257.984375 260.191406 257.945312 260.914062 257.875 C 261.640625 257.800781 262.359375 257.695312 263.070312 257.554688 C 263.785156 257.410156 264.492188 257.234375 265.1875 257.019531 C 265.882812 256.808594 266.566406 256.5625 267.242188 256.285156 C 267.914062 256.007812 268.570312 255.695312 269.210938 255.351562 C 269.855469 255.007812 270.476562 254.632812 271.082031 254.230469 C 271.6875 253.824219 272.273438 253.390625 272.835938 252.929688 C 273.398438 252.464844 273.9375 251.976562 274.449219 251.460938 C 274.964844 250.949219 275.453125 250.410156 275.914062 249.847656 C 276.378906 249.28125 276.808594 248.699219 277.214844 248.09375 C 277.621094 247.488281 277.992188 246.863281 278.335938 246.222656 C 278.679688 245.578125 278.992188 244.921875 279.269531 244.25 C 279.550781 243.578125 279.792969 242.890625 280.007812 242.195312 C 280.21875 241.5 280.394531 240.792969 280.539062 240.078125 C 280.679688 239.363281 280.789062 238.644531 280.859375 237.921875 C 280.929688 237.195312 280.96875 236.46875 280.96875 235.742188 L 280.96875 146.769531 C 280.96875 146.039062 280.929688 145.3125 280.859375 144.589844 C 280.789062 143.863281 280.679688 143.144531 280.539062 142.429688 C 280.394531 141.714844 280.21875 141.011719 280.007812 140.3125 C 279.792969 139.617188 279.550781 138.933594 279.269531 138.257812 C 278.992188 137.585938 278.679688 136.929688 278.335938 136.289062 C 277.992188 135.644531 277.621094 135.019531 277.214844 134.414062 C 276.808594 133.808594 276.378906 133.226562 275.914062 132.664062 C 275.453125 132.101562 274.964844 131.5625 274.449219 131.046875 C 273.9375 130.53125 273.398438 130.042969 272.835938 129.582031 C 272.273438 129.117188 271.6875 128.683594 271.082031 128.28125 C 270.476562 127.875 269.855469 127.5 269.210938 127.15625 C 268.570312 126.8125 267.914062 126.503906 267.242188 126.222656 C 266.566406 125.945312 265.882812 125.699219 265.1875 125.488281 C 264.492188 125.277344 263.785156 125.097656 263.070312 124.957031 C 262.359375 124.8125 261.640625 124.707031 260.914062 124.632812 C 260.191406 124.5625 259.464844 124.527344 258.734375 124.527344 Z M 272.074219 235.742188 C 272.074219 236.617188 271.988281 237.484375 271.816406 238.34375 C 271.644531 239.203125 271.390625 240.035156 271.054688 240.84375 C 270.71875 241.65625 270.308594 242.421875 269.824219 243.152344 C 269.335938 243.878906 268.78125 244.554688 268.164062 245.171875 C 267.542969 245.792969 266.871094 246.347656 266.144531 246.832031 C 265.414062 247.320312 264.648438 247.730469 263.839844 248.066406 C 263.03125 248.402344 262.195312 248.65625 261.335938 248.828125 C 260.480469 249 259.613281 249.085938 258.734375 249.085938 L 116.449219 249.085938 C 115.574219 249.085938 114.707031 249 113.847656 248.828125 C 112.992188 248.65625 112.15625 248.402344 111.347656 248.066406 C 110.539062 247.730469 109.769531 247.320312 109.042969 246.832031 C 108.316406 246.347656 107.640625 245.792969 107.023438 245.171875 C 106.402344 244.554688 105.851562 243.878906 105.363281 243.152344 C 104.875 242.421875 104.464844 241.65625 104.128906 240.84375 C 103.792969 240.035156 103.542969 239.203125 103.371094 238.34375 C 103.199219 237.484375 103.113281 236.617188 103.109375 235.742188 L 103.109375 146.769531 C 103.113281 145.890625 103.199219 145.023438 103.371094 144.164062 C 103.542969 143.308594 103.792969 142.472656 104.128906 141.664062 C 104.464844 140.855469 104.875 140.085938 105.363281 139.359375 C 105.851562 138.628906 106.402344 137.957031 107.023438 137.335938 C 107.640625 136.714844 108.316406 136.164062 109.042969 135.675781 C 109.769531 135.191406 110.539062 134.777344 111.347656 134.441406 C 112.15625 134.105469 112.992188 133.851562 113.847656 133.679688 C 114.707031 133.511719 115.574219 133.421875 116.449219 133.421875 L 258.734375 133.421875 C 259.613281 133.421875 260.480469 133.511719 261.335938 133.679688 C 262.195312 133.851562 263.03125 134.105469 263.839844 134.441406 C 264.648438 134.777344 265.414062 135.191406 266.144531 135.675781 C 266.871094 136.164062 267.542969 136.714844 268.164062 137.335938 C 268.78125 137.957031 269.335938 138.628906 269.824219 139.359375 C 270.308594 140.085938 270.71875 140.855469 271.054688 141.664062 C 271.390625 142.472656 271.644531 143.308594 271.816406 144.164062 C 271.988281 145.023438 272.074219 145.890625 272.074219 146.769531 Z M 152.023438 195.703125 C 152.75 195.703125 153.476562 195.667969 154.199219 195.597656 C 154.925781 195.523438 155.644531 195.417969 156.359375 195.277344 C 157.074219 195.132812 157.777344 194.957031 158.476562 194.746094 C 159.171875 194.535156 159.855469 194.289062 160.53125 194.011719 C 161.203125 193.730469 161.859375 193.421875 162.5 193.078125 C 163.144531 192.734375 163.769531 192.359375 164.375 191.953125 C 164.980469 191.550781 165.5625 191.117188 166.125 190.652344 C 166.6875 190.191406 167.226562 189.703125 167.742188 189.1875 C 168.257812 188.671875 168.746094 188.132812 169.207031 187.570312 C 169.667969 187.007812 170.101562 186.421875 170.507812 185.816406 C 170.910156 185.210938 171.285156 184.585938 171.628906 183.945312 C 171.972656 183.304688 172.28125 182.644531 172.5625 181.972656 C 172.839844 181.300781 173.085938 180.613281 173.296875 179.917969 C 173.507812 179.21875 173.683594 178.515625 173.828125 177.800781 C 173.96875 177.085938 174.074219 176.367188 174.148438 175.640625 C 174.21875 174.914062 174.253906 174.1875 174.253906 173.460938 C 174.253906 172.730469 174.21875 172.003906 174.148438 171.28125 C 174.074219 170.554688 173.96875 169.835938 173.828125 169.121094 C 173.683594 168.40625 173.507812 167.699219 173.296875 167.003906 C 173.085938 166.304688 172.839844 165.621094 172.5625 164.949219 C 172.28125 164.273438 171.972656 163.617188 171.628906 162.976562 C 171.285156 162.332031 170.910156 161.707031 170.507812 161.101562 C 170.101562 160.496094 169.667969 159.914062 169.207031 159.347656 C 168.746094 158.785156 168.257812 158.246094 167.742188 157.730469 C 167.226562 157.21875 166.6875 156.726562 166.125 156.265625 C 165.5625 155.804688 164.980469 155.371094 164.375 154.964844 C 163.769531 154.5625 163.144531 154.1875 162.5 153.84375 C 161.859375 153.5 161.203125 153.1875 160.53125 152.910156 C 159.855469 152.632812 159.171875 152.386719 158.476562 152.175781 C 157.777344 151.964844 157.074219 151.785156 156.359375 151.644531 C 155.644531 151.503906 154.925781 151.394531 154.199219 151.324219 C 153.476562 151.253906 152.75 151.21875 152.023438 151.21875 C 151.292969 151.21875 150.566406 151.253906 149.84375 151.324219 C 149.117188 151.394531 148.398438 151.503906 147.683594 151.644531 C 146.96875 151.785156 146.265625 151.964844 145.566406 152.175781 C 144.871094 152.386719 144.1875 152.632812 143.515625 152.910156 C 142.839844 153.1875 142.183594 153.5 141.542969 153.84375 C 140.898438 154.1875 140.277344 154.5625 139.671875 154.964844 C 139.066406 155.371094 138.480469 155.804688 137.917969 156.265625 C 137.355469 156.726562 136.816406 157.21875 136.300781 157.730469 C 135.785156 158.246094 135.296875 158.785156 134.835938 159.347656 C 134.375 159.914062 133.941406 160.496094 133.535156 161.101562 C 133.132812 161.707031 132.757812 162.332031 132.414062 162.976562 C 132.070312 163.617188 131.761719 164.273438 131.480469 164.949219 C 131.203125 165.621094 130.957031 166.304688 130.746094 167.003906 C 130.535156 167.699219 130.359375 168.40625 130.214844 169.121094 C 130.074219 169.835938 129.96875 170.554688 129.898438 171.28125 C 129.824219 172.003906 129.789062 172.730469 129.789062 173.460938 C 129.789062 174.1875 129.828125 174.914062 129.898438 175.640625 C 129.96875 176.363281 130.078125 177.082031 130.21875 177.796875 C 130.363281 178.511719 130.539062 179.21875 130.75 179.914062 C 130.964844 180.613281 131.207031 181.296875 131.488281 181.96875 C 131.765625 182.640625 132.078125 183.300781 132.421875 183.941406 C 132.765625 184.582031 133.136719 185.207031 133.542969 185.8125 C 133.945312 186.417969 134.378906 187.003906 134.84375 187.566406 C 135.304688 188.128906 135.792969 188.667969 136.308594 189.183594 C 136.820312 189.699219 137.359375 190.1875 137.921875 190.648438 C 138.484375 191.109375 139.070312 191.542969 139.675781 191.949219 C 140.28125 192.351562 140.902344 192.726562 141.546875 193.070312 C 142.1875 193.414062 142.84375 193.726562 143.515625 194.003906 C 144.1875 194.285156 144.875 194.527344 145.570312 194.742188 C 146.265625 194.953125 146.972656 195.128906 147.6875 195.273438 C 148.398438 195.414062 149.117188 195.523438 149.84375 195.59375 C 150.566406 195.667969 151.292969 195.703125 152.023438 195.703125 Z M 152.023438 160.113281 C 152.898438 160.113281 153.765625 160.199219 154.625 160.371094 C 155.484375 160.542969 156.316406 160.792969 157.125 161.128906 C 157.9375 161.464844 158.703125 161.875 159.433594 162.363281 C 160.160156 162.851562 160.835938 163.402344 161.453125 164.023438 C 162.074219 164.644531 162.625 165.316406 163.113281 166.046875 C 163.597656 166.773438 164.011719 167.542969 164.34375 168.351562 C 164.679688 169.164062 164.933594 169.996094 165.105469 170.855469 C 165.277344 171.714844 165.359375 172.582031 165.359375 173.460938 C 165.359375 174.335938 165.277344 175.203125 165.105469 176.0625 C 164.933594 176.921875 164.679688 177.757812 164.34375 178.566406 C 164.011719 179.378906 163.597656 180.144531 163.113281 180.875 C 162.625 181.601562 162.074219 182.277344 161.453125 182.898438 C 160.835938 183.515625 160.160156 184.070312 159.433594 184.558594 C 158.703125 185.042969 157.9375 185.453125 157.125 185.789062 C 156.316406 186.125 155.484375 186.378906 154.625 186.550781 C 153.765625 186.71875 152.898438 186.804688 152.023438 186.804688 C 151.144531 186.804688 150.277344 186.71875 149.417969 186.550781 C 148.558594 186.378906 147.726562 186.125 146.917969 185.789062 C 146.109375 185.453125 145.339844 185.042969 144.609375 184.558594 C 143.882812 184.070312 143.207031 183.515625 142.589844 182.898438 C 141.96875 182.277344 141.417969 181.601562 140.929688 180.875 C 140.445312 180.144531 140.03125 179.378906 139.699219 178.566406 C 139.363281 177.757812 139.109375 176.921875 138.9375 176.0625 C 138.769531 175.203125 138.683594 174.335938 138.683594 173.460938 C 138.683594 172.585938 138.769531 171.714844 138.941406 170.859375 C 139.113281 170 139.367188 169.164062 139.703125 168.355469 C 140.039062 167.546875 140.449219 166.777344 140.933594 166.050781 C 141.421875 165.320312 141.972656 164.648438 142.59375 164.027344 C 143.210938 163.40625 143.886719 162.855469 144.613281 162.367188 C 145.34375 161.882812 146.109375 161.46875 146.917969 161.132812 C 147.726562 160.796875 148.5625 160.542969 149.421875 160.375 C 150.277344 160.203125 151.144531 160.117188 152.023438 160.113281 Z M 183.148438 226.84375 C 183.148438 227.136719 183.117188 227.425781 183.0625 227.710938 C 183.003906 227.996094 182.921875 228.277344 182.808594 228.546875 C 182.695312 228.816406 182.558594 229.070312 182.398438 229.316406 C 182.234375 229.558594 182.050781 229.78125 181.84375 229.988281 C 181.636719 230.195312 181.414062 230.378906 181.171875 230.542969 C 180.929688 230.703125 180.671875 230.839844 180.402344 230.953125 C 180.132812 231.066406 179.855469 231.148438 179.566406 231.207031 C 179.28125 231.261719 178.992188 231.292969 178.699219 231.292969 C 178.410156 231.292969 178.121094 231.261719 177.832031 231.207031 C 177.546875 231.148438 177.269531 231.066406 177 230.953125 C 176.730469 230.839844 176.472656 230.703125 176.230469 230.542969 C 175.988281 230.378906 175.761719 230.195312 175.554688 229.988281 C 175.351562 229.78125 175.164062 229.558594 175.003906 229.316406 C 174.839844 229.070312 174.703125 228.816406 174.59375 228.546875 C 174.480469 228.277344 174.394531 227.996094 174.339844 227.710938 C 174.28125 227.425781 174.253906 227.136719 174.253906 226.84375 C 174.253906 225.96875 174.167969 225.101562 173.996094 224.242188 C 173.824219 223.382812 173.570312 222.546875 173.234375 221.738281 C 172.898438 220.929688 172.488281 220.160156 172 219.433594 C 171.515625 218.703125 170.960938 218.03125 170.34375 217.410156 C 169.722656 216.792969 169.050781 216.238281 168.320312 215.75 C 167.59375 215.265625 166.824219 214.851562 166.015625 214.515625 C 165.207031 214.183594 164.375 213.929688 163.515625 213.757812 C 162.65625 213.585938 161.789062 213.5 160.914062 213.496094 L 143.128906 213.496094 C 142.253906 213.5 141.386719 213.585938 140.527344 213.757812 C 139.667969 213.929688 138.835938 214.183594 138.027344 214.515625 C 137.21875 214.851562 136.449219 215.265625 135.722656 215.75 C 134.992188 216.238281 134.320312 216.792969 133.699219 217.410156 C 133.082031 218.03125 132.527344 218.703125 132.042969 219.433594 C 131.554688 220.160156 131.144531 220.929688 130.808594 221.738281 C 130.472656 222.546875 130.21875 223.382812 130.046875 224.242188 C 129.875 225.101562 129.789062 225.96875 129.789062 226.84375 C 129.789062 227.136719 129.761719 227.425781 129.703125 227.710938 C 129.648438 227.996094 129.5625 228.277344 129.449219 228.546875 C 129.339844 228.816406 129.203125 229.070312 129.039062 229.316406 C 128.878906 229.558594 128.695312 229.78125 128.488281 229.988281 C 128.28125 230.195312 128.054688 230.378906 127.8125 230.542969 C 127.570312 230.703125 127.3125 230.839844 127.042969 230.953125 C 126.773438 231.066406 126.496094 231.148438 126.210938 231.207031 C 125.925781 231.261719 125.636719 231.292969 125.34375 231.292969 C 125.050781 231.292969 124.761719 231.261719 124.476562 231.207031 C 124.1875 231.148438 123.910156 231.066406 123.640625 230.953125 C 123.371094 230.839844 123.117188 230.703125 122.871094 230.542969 C 122.628906 230.378906 122.40625 230.195312 122.199219 229.988281 C 121.992188 229.78125 121.808594 229.558594 121.644531 229.316406 C 121.484375 229.070312 121.347656 228.816406 121.234375 228.546875 C 121.125 228.277344 121.039062 227.996094 120.980469 227.710938 C 120.925781 227.425781 120.898438 227.136719 120.898438 226.84375 C 120.898438 226.113281 120.933594 225.386719 121.003906 224.664062 C 121.078125 223.9375 121.183594 223.21875 121.328125 222.503906 C 121.46875 221.792969 121.648438 221.085938 121.859375 220.390625 C 122.070312 219.691406 122.316406 219.007812 122.59375 218.335938 C 122.875 217.660156 123.183594 217.003906 123.527344 216.363281 C 123.871094 215.71875 124.246094 215.097656 124.648438 214.492188 C 125.054688 213.886719 125.488281 213.300781 125.949219 212.738281 C 126.410156 212.175781 126.898438 211.636719 127.414062 211.121094 C 127.929688 210.605469 128.46875 210.117188 129.03125 209.65625 C 129.59375 209.195312 130.175781 208.761719 130.78125 208.355469 C 131.386719 207.949219 132.011719 207.578125 132.652344 207.234375 C 133.292969 206.890625 133.953125 206.578125 134.625 206.300781 C 135.296875 206.019531 135.980469 205.773438 136.675781 205.5625 C 137.375 205.351562 138.078125 205.171875 138.792969 205.03125 C 139.507812 204.886719 140.226562 204.78125 140.949219 204.710938 C 141.675781 204.636719 142.402344 204.601562 143.128906 204.601562 L 160.914062 204.601562 C 161.640625 204.601562 162.367188 204.636719 163.09375 204.710938 C 163.816406 204.78125 164.535156 204.886719 165.25 205.03125 C 165.964844 205.171875 166.667969 205.351562 167.367188 205.5625 C 168.0625 205.773438 168.746094 206.019531 169.417969 206.300781 C 170.089844 206.578125 170.75 206.890625 171.390625 207.234375 C 172.03125 207.578125 172.65625 207.949219 173.261719 208.355469 C 173.867188 208.761719 174.449219 209.195312 175.011719 209.65625 C 175.574219 210.117188 176.113281 210.605469 176.628906 211.121094 C 177.144531 211.636719 177.632812 212.175781 178.09375 212.738281 C 178.554688 213.300781 178.988281 213.886719 179.394531 214.492188 C 179.796875 215.097656 180.171875 215.71875 180.515625 216.363281 C 180.859375 217.003906 181.171875 217.660156 181.449219 218.335938 C 181.726562 219.007812 181.972656 219.691406 182.183594 220.390625 C 182.398438 221.085938 182.574219 221.792969 182.714844 222.503906 C 182.859375 223.21875 182.964844 223.9375 183.039062 224.664062 C 183.109375 225.386719 183.144531 226.113281 183.148438 226.84375 Z M 254.289062 177.910156 C 254.289062 178.199219 254.261719 178.492188 254.203125 178.777344 C 254.148438 179.0625 254.0625 179.339844 253.953125 179.613281 C 253.839844 179.882812 253.703125 180.136719 253.542969 180.382812 C 253.378906 180.625 253.195312 180.847656 252.988281 181.054688 C 252.78125 181.261719 252.558594 181.445312 252.3125 181.609375 C 252.070312 181.769531 251.816406 181.90625 251.546875 182.019531 C 251.273438 182.132812 250.996094 182.214844 250.710938 182.273438 C 250.425781 182.328125 250.136719 182.359375 249.84375 182.355469 L 214.273438 182.355469 C 213.980469 182.355469 213.691406 182.328125 213.402344 182.273438 C 213.117188 182.214844 212.839844 182.128906 212.570312 182.019531 C 212.300781 181.90625 212.042969 181.769531 211.800781 181.609375 C 211.558594 181.445312 211.335938 181.261719 211.128906 181.054688 C 210.921875 180.847656 210.738281 180.625 210.574219 180.378906 C 210.414062 180.136719 210.277344 179.882812 210.164062 179.609375 C 210.050781 179.339844 209.96875 179.0625 209.910156 178.777344 C 209.855469 178.488281 209.824219 178.199219 209.824219 177.910156 C 209.824219 177.617188 209.855469 177.328125 209.910156 177.039062 C 209.96875 176.753906 210.050781 176.476562 210.164062 176.207031 C 210.277344 175.9375 210.414062 175.679688 210.574219 175.4375 C 210.738281 175.195312 210.921875 174.96875 211.128906 174.761719 C 211.335938 174.554688 211.558594 174.371094 211.800781 174.210938 C 212.042969 174.046875 212.300781 173.910156 212.570312 173.796875 C 212.839844 173.6875 213.117188 173.601562 213.402344 173.546875 C 213.691406 173.488281 213.980469 173.460938 214.273438 173.460938 L 249.84375 173.460938 C 250.136719 173.460938 250.425781 173.488281 250.710938 173.546875 C 250.996094 173.601562 251.273438 173.6875 251.546875 173.796875 C 251.816406 173.910156 252.070312 174.046875 252.3125 174.210938 C 252.558594 174.371094 252.78125 174.554688 252.988281 174.761719 C 253.195312 174.96875 253.378906 175.195312 253.542969 175.4375 C 253.703125 175.679688 253.839844 175.9375 253.953125 176.207031 C 254.0625 176.476562 254.148438 176.753906 254.203125 177.039062 C 254.261719 177.328125 254.289062 177.617188 254.289062 177.910156 Z M 236.503906 204.601562 C 236.503906 204.890625 236.476562 205.183594 236.417969 205.46875 C 236.363281 205.753906 236.277344 206.035156 236.167969 206.304688 C 236.054688 206.574219 235.917969 206.828125 235.753906 207.074219 C 235.59375 207.316406 235.410156 207.539062 235.203125 207.746094 C 234.996094 207.953125 234.769531 208.136719 234.527344 208.300781 C 234.285156 208.460938 234.027344 208.597656 233.757812 208.710938 C 233.488281 208.824219 233.210938 208.90625 232.925781 208.964844 C 232.636719 209.019531 232.347656 209.050781 232.058594 209.050781 L 214.273438 209.050781 C 213.980469 209.050781 213.691406 209.019531 213.402344 208.964844 C 213.117188 208.90625 212.839844 208.820312 212.570312 208.710938 C 212.300781 208.597656 212.042969 208.460938 211.800781 208.300781 C 211.558594 208.136719 211.335938 207.953125 211.128906 207.746094 C 210.921875 207.539062 210.738281 207.316406 210.574219 207.070312 C 210.414062 206.828125 210.277344 206.574219 210.164062 206.304688 C 210.050781 206.03125 209.96875 205.753906 209.910156 205.46875 C 209.855469 205.183594 209.824219 204.890625 209.824219 204.601562 C 209.824219 204.308594 209.855469 204.019531 209.910156 203.734375 C 209.96875 203.445312 210.050781 203.167969 210.164062 202.898438 C 210.277344 202.628906 210.414062 202.371094 210.574219 202.128906 C 210.738281 201.886719 210.921875 201.660156 211.128906 201.453125 C 211.335938 201.25 211.558594 201.0625 211.800781 200.902344 C 212.042969 200.738281 212.300781 200.601562 212.570312 200.492188 C 212.839844 200.378906 213.117188 200.292969 213.402344 200.238281 C 213.691406 200.179688 213.980469 200.152344 214.273438 200.152344 L 232.058594 200.152344 C 232.347656 200.152344 232.636719 200.179688 232.925781 200.238281 C 233.210938 200.292969 233.488281 200.378906 233.757812 200.488281 C 234.027344 200.601562 234.285156 200.738281 234.527344 200.902344 C 234.769531 201.0625 234.996094 201.246094 235.203125 201.453125 C 235.410156 201.660156 235.59375 201.886719 235.753906 202.128906 C 235.917969 202.371094 236.054688 202.628906 236.167969 202.898438 C 236.277344 203.167969 236.363281 203.445312 236.417969 203.730469 C 236.476562 204.019531 236.503906 204.308594 236.503906 204.601562 Z M 236.503906 204.601562 " fill-opacity="1" fill-rule="nonzero"/></g><g fill="#000000" fill-opacity="1"><g transform="translate(128.296638, 106.496059)"><g><path d="M 14.3125 0.78125 C 12.320312 0.78125 10.476562 0.59375 8.78125 0.21875 C 7.09375 -0.144531 5.691406 -0.539062 4.578125 -0.96875 C 3.472656 -1.40625 2.921875 -1.644531 2.921875 -1.6875 L 2.40625 -2.609375 C 2.445312 -2.910156 2.539062 -3.570312 2.6875 -4.59375 C 2.84375 -5.613281 3.007812 -6.976562 3.1875 -8.6875 C 3.363281 -10.40625 3.453125 -12.066406 3.453125 -13.671875 L 8.78125 -14.0625 C 8.78125 -11.625 9 -9.753906 9.4375 -8.453125 C 9.875 -7.148438 10.597656 -6.226562 11.609375 -5.6875 C 12.628906 -5.144531 14.097656 -4.875 16.015625 -4.875 C 18.097656 -4.875 19.765625 -5.328125 21.015625 -6.234375 C 22.273438 -7.148438 22.90625 -8.410156 22.90625 -10.015625 C 22.90625 -11.453125 22.242188 -12.664062 20.921875 -13.65625 C 19.597656 -14.65625 17.546875 -15.832031 14.765625 -17.1875 C 14.597656 -17.269531 14.101562 -17.503906 13.28125 -17.890625 C 10.019531 -19.453125 7.476562 -21.101562 5.65625 -22.84375 C 3.832031 -24.582031 2.921875 -26.835938 2.921875 -29.609375 C 2.921875 -32.078125 3.660156 -34.296875 5.140625 -36.265625 C 6.617188 -38.242188 8.671875 -39.785156 11.296875 -40.890625 C 13.921875 -42.003906 16.898438 -42.5625 20.234375 -42.5625 C 22.148438 -42.5625 23.921875 -42.429688 25.546875 -42.171875 C 27.171875 -41.910156 28.46875 -41.640625 29.4375 -41.359375 C 30.414062 -41.078125 31.035156 -40.890625 31.296875 -40.796875 L 31.765625 -39.953125 C 31.710938 -39.691406 31.578125 -39.03125 31.359375 -37.96875 C 31.148438 -36.90625 30.9375 -35.550781 30.71875 -33.90625 C 30.5 -32.257812 30.328125 -30.566406 30.203125 -28.828125 L 25.375 -28.4375 L 24.796875 -28.828125 C 24.796875 -28.960938 24.816406 -29.234375 24.859375 -29.640625 C 24.898438 -30.054688 24.921875 -30.566406 24.921875 -31.171875 C 24.921875 -33.117188 24.429688 -34.503906 23.453125 -35.328125 C 22.484375 -36.160156 20.847656 -36.578125 18.546875 -36.578125 C 16.679688 -36.578125 15.148438 -36.128906 13.953125 -35.234375 C 12.765625 -34.347656 12.171875 -33.210938 12.171875 -31.828125 C 12.171875 -30.785156 12.550781 -29.835938 13.3125 -28.984375 C 14.070312 -28.140625 14.984375 -27.414062 16.046875 -26.8125 C 17.109375 -26.207031 18.65625 -25.40625 20.6875 -24.40625 C 23.125 -23.226562 25.132812 -22.160156 26.71875 -21.203125 C 28.300781 -20.253906 29.632812 -19.039062 30.71875 -17.5625 C 31.800781 -16.09375 32.34375 -14.335938 32.34375 -12.296875 C 32.34375 -9.691406 31.59375 -7.398438 30.09375 -5.421875 C 28.601562 -3.453125 26.5 -1.925781 23.78125 -0.84375 C 21.070312 0.238281 17.914062 0.78125 14.3125 0.78125 Z M 14.3125 0.78125 "/></g></g></g><g fill="#000000" fill-opacity="1"><g transform="translate(163.376142, 106.496059)"><g><path d="M 2.859375 -3.578125 C 4.773438 -3.972656 6.054688 -4.523438 6.703125 -5.234375 C 7.347656 -5.953125 7.671875 -7.222656 7.671875 -9.046875 L 7.671875 -34.234375 C 7.671875 -35.578125 7.519531 -36.472656 7.21875 -36.921875 C 6.914062 -37.378906 6.289062 -37.609375 5.34375 -37.609375 L 3.0625 -37.546875 L 2.734375 -38.078125 L 3.25 -41.84375 L 12.234375 -41.78125 C 13.660156 -41.78125 16.695312 -41.929688 21.34375 -42.234375 L 21.015625 -37.9375 C 19.367188 -37.71875 18.273438 -37.378906 17.734375 -36.921875 C 17.191406 -36.472656 16.878906 -35.640625 16.796875 -34.421875 C 16.222656 -24.179688 15.9375 -15.570312 15.9375 -8.59375 C 15.9375 -6.8125 16.109375 -5.613281 16.453125 -5 C 16.804688 -4.394531 17.484375 -4.09375 18.484375 -4.09375 C 18.960938 -4.09375 19.914062 -4.160156 21.34375 -4.296875 L 21.609375 -3.90625 L 21.015625 0.1875 L 18.671875 0.125 L 11.453125 0 C 9.453125 0 6.457031 0.191406 2.46875 0.578125 Z M 2.859375 -3.578125 "/></g></g></g><g fill="#000000" fill-opacity="1"><g transform="translate(187.131293, 106.496059)"><g><path d="M 7.609375 -3.84375 C 9.609375 -4.007812 11.039062 -4.265625 11.90625 -4.609375 C 12.769531 -4.960938 13.351562 -5.570312 13.65625 -6.4375 C 13.96875 -7.3125 14.125 -8.742188 14.125 -10.734375 L 14.125 -36.828125 C 11.601562 -36.742188 9.832031 -36.523438 8.8125 -36.171875 C 7.789062 -35.828125 7.085938 -35.125 6.703125 -34.0625 C 6.316406 -33 5.96875 -31.082031 5.65625 -28.3125 L 0.328125 -27.921875 C 0.628906 -31.515625 0.890625 -36.132812 1.109375 -41.78125 L 1.828125 -42.5 L 8.265625 -41.78125 L 28.5625 -41.78125 L 35.140625 -42.5 L 35.859375 -41.78125 C 35.941406 -36.570312 36.160156 -32.082031 36.515625 -28.3125 L 31.171875 -27.921875 C 30.828125 -30.867188 30.46875 -32.882812 30.09375 -33.96875 C 29.726562 -35.050781 29.078125 -35.773438 28.140625 -36.140625 C 27.210938 -36.515625 25.554688 -36.742188 23.171875 -36.828125 C 22.953125 -33.617188 22.765625 -29.257812 22.609375 -23.75 C 22.460938 -18.238281 22.390625 -13.226562 22.390625 -8.71875 C 22.390625 -7.113281 22.671875 -5.960938 23.234375 -5.265625 C 23.796875 -4.578125 24.707031 -4.234375 25.96875 -4.234375 C 27.050781 -4.234375 28.203125 -4.296875 29.421875 -4.421875 L 29.671875 -4.09375 L 29.09375 0.265625 C 24.488281 0.0859375 20.753906 0 17.890625 0 C 15.640625 0 12.039062 0.128906 7.09375 0.390625 Z M 7.609375 -3.84375 "/></g></g></g><g fill="#000000" fill-opacity="1"><g transform="translate(224.033119, 106.496059)"><g/></g></g><g fill="#000000" fill-opacity="1"><g transform="translate(235.357475, 106.496059)"><g/></g></g><g fill="#000000" fill-opacity="1"><g transform="translate(118.347791, 317.893623)"><g><path d="M 21.546875 0 L 21.859375 -3.84375 C 23.335938 -3.96875 24.410156 -4.101562 25.078125 -4.25 C 25.753906 -4.40625 26.222656 -4.625 26.484375 -4.90625 C 26.742188 -5.195312 26.875 -5.625 26.875 -6.1875 C 26.875 -6.707031 26.765625 -7.460938 26.546875 -8.453125 L 25.1875 -13.46875 C 22.925781 -13.550781 20.929688 -13.59375 19.203125 -13.59375 C 18.421875 -13.59375 16.789062 -13.488281 14.3125 -13.28125 L 12.953125 -13.140625 L 11.328125 -8.140625 C 11.066406 -7.179688 10.9375 -6.507812 10.9375 -6.125 C 10.9375 -5.34375 11.160156 -4.796875 11.609375 -4.484375 C 12.066406 -4.179688 12.859375 -4.03125 13.984375 -4.03125 L 16.796875 -4.03125 L 17.109375 -3.578125 L 16.65625 0.390625 C 16.050781 0.347656 14.75 0.269531 12.75 0.15625 C 10.757812 0.0507812 8.894531 0 7.15625 0 C 5.332031 0 3.691406 0.0195312 2.234375 0.0625 C 0.785156 0.101562 -0.175781 0.144531 -0.65625 0.1875 L -0.1875 -4.03125 C 0.800781 -4.207031 1.617188 -4.617188 2.265625 -5.265625 C 2.921875 -5.921875 3.53125 -6.984375 4.09375 -8.453125 L 15.75 -41.453125 L 25.703125 -42.5 L 26.421875 -42.171875 C 27.066406 -39.703125 28.421875 -34.632812 30.484375 -26.96875 C 32.546875 -19.3125 34.316406 -13.164062 35.796875 -8.53125 C 36.273438 -6.96875 36.878906 -5.859375 37.609375 -5.203125 C 38.347656 -4.554688 39.457031 -4.164062 40.9375 -4.03125 L 41.1875 -3.578125 L 40.734375 0.1875 C 40.171875 0.144531 39.109375 0.101562 37.546875 0.0625 C 35.984375 0.0195312 34.398438 0 32.796875 0 C 30.492188 0 28.25 0.0703125 26.0625 0.21875 C 23.875 0.375 22.472656 0.472656 21.859375 0.515625 Z M 19.203125 -18.609375 C 19.671875 -18.609375 21.273438 -18.675781 24.015625 -18.8125 L 20.171875 -33.3125 L 19.328125 -33.3125 L 14.515625 -18.609375 Z M 19.203125 -18.609375 "/></g></g></g><g fill="#000000" fill-opacity="1"><g transform="translate(159.024418, 317.893623)"><g><path d="M 3.1875 -3.78125 C 4.96875 -4.082031 6.160156 -4.597656 6.765625 -5.328125 C 7.367188 -6.066406 7.671875 -7.367188 7.671875 -9.234375 L 7.671875 -34.09375 C 7.671875 -35.488281 7.53125 -36.421875 7.25 -36.890625 C 6.96875 -37.367188 6.414062 -37.609375 5.59375 -37.609375 C 5.113281 -37.609375 4.65625 -37.585938 4.21875 -37.546875 C 3.789062 -37.503906 3.515625 -37.484375 3.390625 -37.484375 L 3 -38 L 3.515625 -41.84375 L 11.71875 -41.78125 C 13.363281 -41.78125 15.191406 -41.8125 17.203125 -41.875 C 19.222656 -41.9375 20.644531 -41.992188 21.46875 -42.046875 C 27.03125 -42.046875 31.023438 -40.875 33.453125 -38.53125 C 35.878906 -36.1875 37.09375 -33.210938 37.09375 -29.609375 C 37.09375 -27.046875 36.363281 -24.625 34.90625 -22.34375 C 33.457031 -20.070312 31.539062 -18.253906 29.15625 -16.890625 C 26.769531 -15.523438 24.234375 -14.84375 21.546875 -14.84375 L 16.078125 -14.84375 L 15.9375 -9.890625 C 15.9375 -8.203125 16.015625 -6.96875 16.171875 -6.1875 C 16.328125 -5.40625 16.609375 -4.875 17.015625 -4.59375 C 17.429688 -4.3125 18.09375 -4.171875 19 -4.171875 C 19.601562 -4.171875 20.1875 -4.191406 20.75 -4.234375 C 21.320312 -4.273438 21.71875 -4.296875 21.9375 -4.296875 L 22.125 -3.96875 L 21.546875 0.1875 C 20.929688 0.1875 19.8125 0.15625 18.1875 0.09375 C 16.5625 0.03125 14.988281 0 13.46875 0 C 12 0 10.035156 0.0625 7.578125 0.1875 C 5.128906 0.320312 3.492188 0.429688 2.671875 0.515625 Z M 22 -19.71875 C 26.03125 -20.582031 28.046875 -23.554688 28.046875 -28.640625 C 28.046875 -31.410156 27.265625 -33.4375 25.703125 -34.71875 C 24.140625 -36 21.664062 -36.640625 18.28125 -36.640625 C 17.675781 -36.640625 17.296875 -36.582031 17.140625 -36.46875 C 16.992188 -36.363281 16.898438 -36.050781 16.859375 -35.53125 C 16.597656 -31.625 16.378906 -26.632812 16.203125 -20.5625 Z M 22 -19.71875 "/></g></g></g><g fill="#000000" fill-opacity="1"><g transform="translate(196.511979, 317.893623)"><g><path d="M 3.1875 -3.78125 C 4.96875 -4.082031 6.160156 -4.597656 6.765625 -5.328125 C 7.367188 -6.066406 7.671875 -7.367188 7.671875 -9.234375 L 7.671875 -34.09375 C 7.671875 -35.488281 7.53125 -36.421875 7.25 -36.890625 C 6.96875 -37.367188 6.414062 -37.609375 5.59375 -37.609375 C 5.113281 -37.609375 4.65625 -37.585938 4.21875 -37.546875 C 3.789062 -37.503906 3.515625 -37.484375 3.390625 -37.484375 L 3 -38 L 3.515625 -41.84375 L 11.71875 -41.78125 C 13.363281 -41.78125 15.191406 -41.8125 17.203125 -41.875 C 19.222656 -41.9375 20.644531 -41.992188 21.46875 -42.046875 C 27.03125 -42.046875 31.023438 -40.875 33.453125 -38.53125 C 35.878906 -36.1875 37.09375 -33.210938 37.09375 -29.609375 C 37.09375 -27.046875 36.363281 -24.625 34.90625 -22.34375 C 33.457031 -20.070312 31.539062 -18.253906 29.15625 -16.890625 C 26.769531 -15.523438 24.234375 -14.84375 21.546875 -14.84375 L 16.078125 -14.84375 L 15.9375 -9.890625 C 15.9375 -8.203125 16.015625 -6.96875 16.171875 -6.1875 C 16.328125 -5.40625 16.609375 -4.875 17.015625 -4.59375 C 17.429688 -4.3125 18.09375 -4.171875 19 -4.171875 C 19.601562 -4.171875 20.1875 -4.191406 20.75 -4.234375 C 21.320312 -4.273438 21.71875 -4.296875 21.9375 -4.296875 L 22.125 -3.96875 L 21.546875 0.1875 C 20.929688 0.1875 19.8125 0.15625 18.1875 0.09375 C 16.5625 0.03125 14.988281 0 13.46875 0 C 12 0 10.035156 0.0625 7.578125 0.1875 C 5.128906 0.320312 3.492188 0.429688 2.671875 0.515625 Z M 22 -19.71875 C 26.03125 -20.582031 28.046875 -23.554688 28.046875 -28.640625 C 28.046875 -31.410156 27.265625 -33.4375 25.703125 -34.71875 C 24.140625 -36 21.664062 -36.640625 18.28125 -36.640625 C 17.675781 -36.640625 17.296875 -36.582031 17.140625 -36.46875 C 16.992188 -36.363281 16.898438 -36.050781 16.859375 -35.53125 C 16.597656 -31.625 16.378906 -26.632812 16.203125 -20.5625 Z M 22 -19.71875 "/></g></g></g><g fill="#000000" fill-opacity="1"><g transform="translate(245.323925, 317.893623)"><g/></g></g></svg>