<svg xmlns="http://www.w3.org/2000/svg" xmlns:xlink="http://www.w3.org/1999/xlink" width="500" zoomAndPan="magnify" viewBox="0 0 375 374.999991" height="500" preserveAspectRatio="xMidYMid meet" version="1.0"><defs><g/><clipPath id="297e34ee38"><path d="M 111.859375 125.199219 L 263.359375 125.199219 L 263.359375 249.699219 L 111.859375 249.699219 Z M 111.859375 125.199219 " clip-rule="nonzero"/></clipPath></defs><g fill="#000000" fill-opacity="1"><g transform="translate(135.430544, 106.496043)"><g><path d="M 14.3125 0.78125 C 12.320312 0.78125 10.476562 0.59375 8.78125 0.21875 C 7.09375 -0.144531 5.691406 -0.539062 4.578125 -0.96875 C 3.472656 -1.40625 2.921875 -1.644531 2.921875 -1.6875 L 2.40625 -2.609375 C 2.445312 -2.910156 2.539062 -3.570312 2.6875 -4.59375 C 2.84375 -5.613281 3.007812 -6.976562 3.1875 -8.6875 C 3.363281 -10.40625 3.453125 -12.066406 3.453125 -13.671875 L 8.78125 -14.0625 C 8.78125 -11.625 9 -9.753906 9.4375 -8.453125 C 9.875 -7.148438 10.597656 -6.226562 11.609375 -5.6875 C 12.628906 -5.144531 14.097656 -4.875 16.015625 -4.875 C 18.097656 -4.875 19.765625 -5.328125 21.015625 -6.234375 C 22.273438 -7.148438 22.90625 -8.410156 22.90625 -10.015625 C 22.90625 -11.453125 22.242188 -12.664062 20.921875 -13.65625 C 19.597656 -14.65625 17.546875 -15.832031 14.765625 -17.1875 C 14.597656 -17.269531 14.101562 -17.503906 13.28125 -17.890625 C 10.019531 -19.453125 7.476562 -21.101562 5.65625 -22.84375 C 3.832031 -24.582031 2.921875 -26.835938 2.921875 -29.609375 C 2.921875 -32.078125 3.660156 -34.296875 5.140625 -36.265625 C 6.617188 -38.242188 8.671875 -39.785156 11.296875 -40.890625 C 13.921875 -42.003906 16.898438 -42.5625 20.234375 -42.5625 C 22.148438 -42.5625 23.921875 -42.429688 25.546875 -42.171875 C 27.171875 -41.910156 28.46875 -41.640625 29.4375 -41.359375 C 30.414062 -41.078125 31.035156 -40.890625 31.296875 -40.796875 L 31.765625 -39.953125 C 31.710938 -39.691406 31.578125 -39.03125 31.359375 -37.96875 C 31.148438 -36.90625 30.9375 -35.550781 30.71875 -33.90625 C 30.5 -32.257812 30.328125 -30.566406 30.203125 -28.828125 L 25.375 -28.4375 L 24.796875 -28.828125 C 24.796875 -28.960938 24.816406 -29.234375 24.859375 -29.640625 C 24.898438 -30.054688 24.921875 -30.566406 24.921875 -31.171875 C 24.921875 -33.117188 24.429688 -34.503906 23.453125 -35.328125 C 22.484375 -36.160156 20.847656 -36.578125 18.546875 -36.578125 C 16.679688 -36.578125 15.148438 -36.128906 13.953125 -35.234375 C 12.765625 -34.347656 12.171875 -33.210938 12.171875 -31.828125 C 12.171875 -30.785156 12.550781 -29.835938 13.3125 -28.984375 C 14.070312 -28.140625 14.984375 -27.414062 16.046875 -26.8125 C 17.109375 -26.207031 18.65625 -25.40625 20.6875 -24.40625 C 23.125 -23.226562 25.132812 -22.160156 26.71875 -21.203125 C 28.300781 -20.253906 29.632812 -19.039062 30.71875 -17.5625 C 31.800781 -16.09375 32.34375 -14.335938 32.34375 -12.296875 C 32.34375 -9.691406 31.59375 -7.398438 30.09375 -5.421875 C 28.601562 -3.453125 26.5 -1.925781 23.78125 -0.84375 C 21.070312 0.238281 17.914062 0.78125 14.3125 0.78125 Z M 14.3125 0.78125 "/></g></g></g><g fill="#000000" fill-opacity="1"><g transform="translate(170.510063, 106.496043)"><g><path d="M 2.859375 -3.578125 C 4.773438 -3.972656 6.054688 -4.523438 6.703125 -5.234375 C 7.347656 -5.953125 7.671875 -7.222656 7.671875 -9.046875 L 7.671875 -34.234375 C 7.671875 -35.578125 7.519531 -36.472656 7.21875 -36.921875 C 6.914062 -37.378906 6.289062 -37.609375 5.34375 -37.609375 L 3.0625 -37.546875 L 2.734375 -38.078125 L 3.25 -41.84375 L 12.234375 -41.78125 C 13.660156 -41.78125 16.695312 -41.929688 21.34375 -42.234375 L 21.015625 -37.9375 C 19.367188 -37.71875 18.273438 -37.378906 17.734375 -36.921875 C 17.191406 -36.472656 16.878906 -35.640625 16.796875 -34.421875 C 16.222656 -24.179688 15.9375 -15.570312 15.9375 -8.59375 C 15.9375 -6.8125 16.109375 -5.613281 16.453125 -5 C 16.804688 -4.394531 17.484375 -4.09375 18.484375 -4.09375 C 18.960938 -4.09375 19.914062 -4.160156 21.34375 -4.296875 L 21.609375 -3.90625 L 21.015625 0.1875 L 18.671875 0.125 L 11.453125 0 C 9.453125 0 6.457031 0.191406 2.46875 0.578125 Z M 2.859375 -3.578125 "/></g></g></g><g fill="#000000" fill-opacity="1"><g transform="translate(194.265196, 106.496043)"><g><path d="M 7.609375 -3.84375 C 9.609375 -4.007812 11.039062 -4.265625 11.90625 -4.609375 C 12.769531 -4.960938 13.351562 -5.570312 13.65625 -6.4375 C 13.96875 -7.3125 14.125 -8.742188 14.125 -10.734375 L 14.125 -36.828125 C 11.601562 -36.742188 9.832031 -36.523438 8.8125 -36.171875 C 7.789062 -35.828125 7.085938 -35.125 6.703125 -34.0625 C 6.316406 -33 5.96875 -31.082031 5.65625 -28.3125 L 0.328125 -27.921875 C 0.628906 -31.515625 0.890625 -36.132812 1.109375 -41.78125 L 1.828125 -42.5 L 8.265625 -41.78125 L 28.5625 -41.78125 L 35.140625 -42.5 L 35.859375 -41.78125 C 35.941406 -36.570312 36.160156 -32.082031 36.515625 -28.3125 L 31.171875 -27.921875 C 30.828125 -30.867188 30.46875 -32.882812 30.09375 -33.96875 C 29.726562 -35.050781 29.078125 -35.773438 28.140625 -36.140625 C 27.210938 -36.515625 25.554688 -36.742188 23.171875 -36.828125 C 22.953125 -33.617188 22.765625 -29.257812 22.609375 -23.75 C 22.460938 -18.238281 22.390625 -13.226562 22.390625 -8.71875 C 22.390625 -7.113281 22.671875 -5.960938 23.234375 -5.265625 C 23.796875 -4.578125 24.707031 -4.234375 25.96875 -4.234375 C 27.050781 -4.234375 28.203125 -4.296875 29.421875 -4.421875 L 29.671875 -4.09375 L 29.09375 0.265625 C 24.488281 0.0859375 20.753906 0 17.890625 0 C 15.640625 0 12.039062 0.128906 7.09375 0.390625 Z M 7.609375 -3.84375 "/></g></g></g><g fill="#000000" fill-opacity="1"><g transform="translate(231.167042, 106.496043)"><g/></g></g><g fill="#000000" fill-opacity="1"><g transform="translate(242.49141, 106.496043)"><g/></g></g><g fill="#000000" fill-opacity="1"><g transform="translate(133.168214, 319.475744)"><g><path d="M 21.546875 0 L 21.859375 -3.84375 C 23.335938 -3.96875 24.410156 -4.101562 25.078125 -4.25 C 25.753906 -4.40625 26.222656 -4.625 26.484375 -4.90625 C 26.742188 -5.195312 26.875 -5.625 26.875 -6.1875 C 26.875 -6.707031 26.765625 -7.460938 26.546875 -8.453125 L 25.1875 -13.46875 C 22.925781 -13.550781 20.929688 -13.59375 19.203125 -13.59375 C 18.421875 -13.59375 16.789062 -13.488281 14.3125 -13.28125 L 12.953125 -13.140625 L 11.328125 -8.140625 C 11.066406 -7.179688 10.9375 -6.507812 10.9375 -6.125 C 10.9375 -5.34375 11.160156 -4.796875 11.609375 -4.484375 C 12.066406 -4.179688 12.859375 -4.03125 13.984375 -4.03125 L 16.796875 -4.03125 L 17.109375 -3.578125 L 16.65625 0.390625 C 16.050781 0.347656 14.75 0.269531 12.75 0.15625 C 10.757812 0.0507812 8.894531 0 7.15625 0 C 5.332031 0 3.691406 0.0195312 2.234375 0.0625 C 0.785156 0.101562 -0.175781 0.144531 -0.65625 0.1875 L -0.1875 -4.03125 C 0.800781 -4.207031 1.617188 -4.617188 2.265625 -5.265625 C 2.921875 -5.921875 3.53125 -6.984375 4.09375 -8.453125 L 15.75 -41.453125 L 25.703125 -42.5 L 26.421875 -42.171875 C 27.066406 -39.703125 28.421875 -34.632812 30.484375 -26.96875 C 32.546875 -19.3125 34.316406 -13.164062 35.796875 -8.53125 C 36.273438 -6.96875 36.878906 -5.859375 37.609375 -5.203125 C 38.347656 -4.554688 39.457031 -4.164062 40.9375 -4.03125 L 41.1875 -3.578125 L 40.734375 0.1875 C 40.171875 0.144531 39.109375 0.101562 37.546875 0.0625 C 35.984375 0.0195312 34.398438 0 32.796875 0 C 30.492188 0 28.25 0.0703125 26.0625 0.21875 C 23.875 0.375 22.472656 0.472656 21.859375 0.515625 Z M 19.203125 -18.609375 C 19.671875 -18.609375 21.273438 -18.675781 24.015625 -18.8125 L 20.171875 -33.3125 L 19.328125 -33.3125 L 14.515625 -18.609375 Z M 19.203125 -18.609375 "/></g></g></g><g fill="#000000" fill-opacity="1"><g transform="translate(173.844827, 319.475744)"><g><path d="M 3.1875 -3.78125 C 4.96875 -4.082031 6.160156 -4.597656 6.765625 -5.328125 C 7.367188 -6.066406 7.671875 -7.367188 7.671875 -9.234375 L 7.671875 -34.09375 C 7.671875 -35.488281 7.53125 -36.421875 7.25 -36.890625 C 6.96875 -37.367188 6.414062 -37.609375 5.59375 -37.609375 C 5.113281 -37.609375 4.65625 -37.585938 4.21875 -37.546875 C 3.789062 -37.503906 3.515625 -37.484375 3.390625 -37.484375 L 3 -38 L 3.515625 -41.84375 L 11.71875 -41.78125 C 13.363281 -41.78125 15.191406 -41.8125 17.203125 -41.875 C 19.222656 -41.9375 20.644531 -41.992188 21.46875 -42.046875 C 27.03125 -42.046875 31.023438 -40.875 33.453125 -38.53125 C 35.878906 -36.1875 37.09375 -33.210938 37.09375 -29.609375 C 37.09375 -27.046875 36.363281 -24.625 34.90625 -22.34375 C 33.457031 -20.070312 31.539062 -18.253906 29.15625 -16.890625 C 26.769531 -15.523438 24.234375 -14.84375 21.546875 -14.84375 L 16.078125 -14.84375 L 15.9375 -9.890625 C 15.9375 -8.203125 16.015625 -6.96875 16.171875 -6.1875 C 16.328125 -5.40625 16.609375 -4.875 17.015625 -4.59375 C 17.429688 -4.3125 18.09375 -4.171875 19 -4.171875 C 19.601562 -4.171875 20.1875 -4.191406 20.75 -4.234375 C 21.320312 -4.273438 21.71875 -4.296875 21.9375 -4.296875 L 22.125 -3.96875 L 21.546875 0.1875 C 20.929688 0.1875 19.8125 0.15625 18.1875 0.09375 C 16.5625 0.03125 14.988281 0 13.46875 0 C 12 0 10.035156 0.0625 7.578125 0.1875 C 5.128906 0.320312 3.492188 0.429688 2.671875 0.515625 Z M 22 -19.71875 C 26.03125 -20.582031 28.046875 -23.554688 28.046875 -28.640625 C 28.046875 -31.410156 27.265625 -33.4375 25.703125 -34.71875 C 24.140625 -36 21.664062 -36.640625 18.28125 -36.640625 C 17.675781 -36.640625 17.296875 -36.582031 17.140625 -36.46875 C 16.992188 -36.363281 16.898438 -36.050781 16.859375 -35.53125 C 16.597656 -31.625 16.378906 -26.632812 16.203125 -20.5625 Z M 22 -19.71875 "/></g></g></g><g fill="#000000" fill-opacity="1"><g transform="translate(211.332388, 319.475744)"><g><path d="M 3.1875 -3.78125 C 4.96875 -4.082031 6.160156 -4.597656 6.765625 -5.328125 C 7.367188 -6.066406 7.671875 -7.367188 7.671875 -9.234375 L 7.671875 -34.09375 C 7.671875 -35.488281 7.53125 -36.421875 7.25 -36.890625 C 6.96875 -37.367188 6.414062 -37.609375 5.59375 -37.609375 C 5.113281 -37.609375 4.65625 -37.585938 4.21875 -37.546875 C 3.789062 -37.503906 3.515625 -37.484375 3.390625 -37.484375 L 3 -38 L 3.515625 -41.84375 L 11.71875 -41.78125 C 13.363281 -41.78125 15.191406 -41.8125 17.203125 -41.875 C 19.222656 -41.9375 20.644531 -41.992188 21.46875 -42.046875 C 27.03125 -42.046875 31.023438 -40.875 33.453125 -38.53125 C 35.878906 -36.1875 37.09375 -33.210938 37.09375 -29.609375 C 37.09375 -27.046875 36.363281 -24.625 34.90625 -22.34375 C 33.457031 -20.070312 31.539062 -18.253906 29.15625 -16.890625 C 26.769531 -15.523438 24.234375 -14.84375 21.546875 -14.84375 L 16.078125 -14.84375 L 15.9375 -9.890625 C 15.9375 -8.203125 16.015625 -6.96875 16.171875 -6.1875 C 16.328125 -5.40625 16.609375 -4.875 17.015625 -4.59375 C 17.429688 -4.3125 18.09375 -4.171875 19 -4.171875 C 19.601562 -4.171875 20.1875 -4.191406 20.75 -4.234375 C 21.320312 -4.273438 21.71875 -4.296875 21.9375 -4.296875 L 22.125 -3.96875 L 21.546875 0.1875 C 20.929688 0.1875 19.8125 0.15625 18.1875 0.09375 C 16.5625 0.03125 14.988281 0 13.46875 0 C 12 0 10.035156 0.0625 7.578125 0.1875 C 5.128906 0.320312 3.492188 0.429688 2.671875 0.515625 Z M 22 -19.71875 C 26.03125 -20.582031 28.046875 -23.554688 28.046875 -28.640625 C 28.046875 -31.410156 27.265625 -33.4375 25.703125 -34.71875 C 24.140625 -36 21.664062 -36.640625 18.28125 -36.640625 C 17.675781 -36.640625 17.296875 -36.582031 17.140625 -36.46875 C 16.992188 -36.363281 16.898438 -36.050781 16.859375 -35.53125 C 16.597656 -31.625 16.378906 -26.632812 16.203125 -20.5625 Z M 22 -19.71875 "/></g></g></g><g fill="#000000" fill-opacity="1"><g transform="translate(248.819963, 319.475744)"><g/></g></g><g clip-path="url(#297e34ee38)"><path fill="#0097b2" d="M 139.050781 163.289062 L 147.9375 140.59375 C 148.003906 140.398438 148.199219 140.269531 148.394531 140.074219 C 148.855469 139.746094 149.507812 139.488281 150.226562 139.226562 C 153.558594 138.117188 158.394531 137.203125 164.015625 136.617188 C 179.113281 134.921875 196.171875 134.921875 211.269531 136.617188 C 216.890625 137.269531 221.726562 138.183594 225.0625 139.226562 C 225.78125 139.488281 226.433594 139.746094 226.890625 140.074219 C 227.085938 140.203125 227.285156 140.398438 227.347656 140.59375 L 236.238281 163.289062 C 237.871094 163.8125 239.441406 164.464844 240.941406 165.179688 L 248.65625 168.964844 L 236.238281 137.140625 C 235.453125 135.117188 234.144531 133.550781 232.578125 132.378906 C 231.203125 131.398438 229.703125 130.683594 228.132812 130.160156 C 224.210938 128.855469 218.65625 127.8125 212.382812 127.097656 C 196.566406 125.335938 178.851562 125.335938 163.035156 127.097656 C 156.632812 127.878906 151.074219 128.921875 147.152344 130.226562 C 145.585938 130.75 144.082031 131.398438 142.710938 132.445312 C 141.140625 133.617188 139.835938 135.117188 139.050781 137.203125 L 126.632812 169.027344 L 134.34375 165.246094 C 135.78125 164.464844 137.414062 163.875 139.050781 163.289062 Z M 153.953125 165.117188 C 147.152344 165.898438 141.011719 167.203125 136.433594 169.417969 C 145.585938 171.636719 152.710938 179.136719 154.34375 188.460938 C 155.0625 192.570312 158.132812 195.570312 162.253906 196.222656 C 174.867188 198.179688 200.355469 198.179688 213.035156 196.222656 C 217.152344 195.570312 220.222656 192.570312 220.945312 188.460938 C 222.578125 179.136719 229.703125 171.636719 238.851562 169.484375 C 234.277344 167.203125 228.066406 165.898438 221.335938 165.179688 C 201.597656 162.898438 173.625 162.898438 153.953125 165.117188 Z M 244.277344 173.527344 C 235.386719 173.527344 227.9375 179.59375 225.84375 187.746094 C 225.84375 187.746094 225.519531 189.113281 225.519531 189.246094 C 224.472656 195.308594 219.765625 199.9375 213.6875 200.851562 C 199.046875 203.132812 176.042969 203.132812 161.46875 200.851562 C 155.390625 199.875 150.683594 195.308594 149.636719 189.246094 C 149.636719 189.113281 149.375 187.746094 149.3125 187.746094 C 147.21875 179.527344 139.769531 173.527344 130.878906 173.527344 C 120.359375 173.527344 111.859375 182.070312 111.859375 192.570312 L 111.859375 211.546875 C 111.859375 222.046875 120.359375 230.523438 130.878906 230.523438 L 244.339844 230.523438 C 254.863281 230.523438 263.359375 222.046875 263.359375 211.546875 L 263.359375 192.570312 C 263.359375 182.070312 254.800781 173.527344 244.277344 173.527344 Z M 135.652344 216.242188 L 123.757812 216.242188 C 122.449219 216.242188 121.402344 215.199219 121.402344 213.894531 C 121.402344 212.589844 122.449219 211.546875 123.757812 211.546875 L 135.652344 211.546875 C 136.957031 211.546875 138.003906 212.589844 138.003906 213.894531 C 138.003906 215.199219 136.957031 216.242188 135.652344 216.242188 Z M 130.878906 202.027344 C 125.652344 202.027344 121.335938 197.789062 121.335938 192.503906 C 121.335938 187.289062 125.585938 182.984375 130.878906 182.984375 C 136.109375 182.984375 140.421875 187.222656 140.421875 192.503906 C 140.421875 197.789062 136.109375 202.027344 130.878906 202.027344 Z M 220.550781 221.003906 L 154.671875 221.003906 C 152.054688 221.003906 149.898438 218.851562 149.898438 216.242188 C 149.898438 213.632812 152.054688 211.480469 154.671875 211.480469 L 220.550781 211.480469 C 223.164062 211.480469 225.324219 213.632812 225.324219 216.242188 C 225.257812 218.851562 223.164062 221.003906 220.550781 221.003906 Z M 251.464844 216.242188 L 239.570312 216.242188 C 238.261719 216.242188 237.21875 215.199219 237.21875 213.894531 C 237.21875 212.589844 238.261719 211.546875 239.570312 211.546875 L 251.464844 211.546875 C 252.773438 211.546875 253.820312 212.589844 253.820312 213.894531 C 253.820312 215.199219 252.773438 216.242188 251.464844 216.242188 Z M 244.277344 202.027344 C 239.046875 202.027344 234.734375 197.789062 234.734375 192.503906 C 234.734375 187.289062 238.980469 182.984375 244.277344 182.984375 C 249.503906 182.984375 253.820312 187.222656 253.820312 192.503906 C 253.820312 197.789062 249.570312 202.027344 244.277344 202.027344 Z M 111.859375 225.761719 L 111.859375 244.742188 C 111.859375 247.347656 114.019531 249.5 116.632812 249.5 L 135.652344 249.5 C 138.265625 249.5 140.421875 247.347656 140.421875 244.742188 L 140.421875 235.21875 L 130.878906 235.21875 C 123.101562 235.285156 116.175781 231.503906 111.859375 225.761719 Z M 244.277344 235.285156 L 234.734375 235.285156 L 234.734375 244.804688 C 234.734375 247.414062 236.890625 249.566406 239.503906 249.566406 L 258.523438 249.566406 C 261.140625 249.566406 263.296875 247.414062 263.296875 244.804688 L 263.296875 225.828125 C 258.980469 231.503906 252.054688 235.285156 244.277344 235.285156 Z M 244.277344 235.285156 " fill-opacity="1" fill-rule="evenodd"/></g></svg>