<svg xmlns="http://www.w3.org/2000/svg" xmlns:xlink="http://www.w3.org/1999/xlink" width="500" zoomAndPan="magnify" viewBox="0 0 375 374.999991" height="500" preserveAspectRatio="xMidYMid meet" version="1.0"><defs><g/><clipPath id="d879360050"><path d="M 143.398438 151.730469 L 219.898438 151.730469 L 219.898438 206.480469 L 143.398438 206.480469 Z M 143.398438 151.730469 " clip-rule="nonzero"/></clipPath></defs><g fill="#000000" fill-opacity="1"><g transform="translate(1.845689, 203.995094)"><g><path d="M 17.046875 0.9375 C 14.671875 0.9375 12.472656 0.710938 10.453125 0.265625 C 8.441406 -0.171875 6.773438 -0.644531 5.453125 -1.15625 C 4.140625 -1.675781 3.484375 -1.960938 3.484375 -2.015625 L 2.875 -3.09375 C 2.914062 -3.457031 3.023438 -4.242188 3.203125 -5.453125 C 3.390625 -6.671875 3.585938 -8.300781 3.796875 -10.34375 C 4.003906 -12.382812 4.109375 -14.363281 4.109375 -16.28125 L 10.46875 -16.734375 C 10.46875 -13.847656 10.722656 -11.628906 11.234375 -10.078125 C 11.753906 -8.523438 12.617188 -7.425781 13.828125 -6.78125 C 15.046875 -6.132812 16.789062 -5.8125 19.0625 -5.8125 C 21.539062 -5.8125 23.53125 -6.351562 25.03125 -7.4375 C 26.53125 -8.519531 27.28125 -10.019531 27.28125 -11.9375 C 27.28125 -13.644531 26.488281 -15.09375 24.90625 -16.28125 C 23.332031 -17.46875 20.894531 -18.859375 17.59375 -20.453125 C 17.382812 -20.554688 16.789062 -20.84375 15.8125 -21.3125 C 11.9375 -23.175781 8.910156 -25.140625 6.734375 -27.203125 C 4.566406 -29.265625 3.484375 -31.953125 3.484375 -35.265625 C 3.484375 -38.210938 4.359375 -40.859375 6.109375 -43.203125 C 7.867188 -45.554688 10.3125 -47.390625 13.4375 -48.703125 C 16.570312 -50.023438 20.128906 -50.6875 24.109375 -50.6875 C 26.378906 -50.6875 28.484375 -50.53125 30.421875 -50.21875 C 32.359375 -49.90625 33.90625 -49.582031 35.0625 -49.25 C 36.226562 -48.914062 36.96875 -48.695312 37.28125 -48.59375 L 37.8125 -47.578125 C 37.769531 -47.273438 37.617188 -46.488281 37.359375 -45.21875 C 37.097656 -43.957031 36.835938 -42.34375 36.578125 -40.375 C 36.316406 -38.414062 36.109375 -36.398438 35.953125 -34.328125 L 30.21875 -33.875 L 29.53125 -34.328125 C 29.53125 -34.484375 29.554688 -34.804688 29.609375 -35.296875 C 29.660156 -35.785156 29.6875 -36.394531 29.6875 -37.125 C 29.6875 -39.445312 29.101562 -41.097656 27.9375 -42.078125 C 26.769531 -43.066406 24.820312 -43.5625 22.09375 -43.5625 C 19.863281 -43.5625 18.039062 -43.03125 16.625 -41.96875 C 15.207031 -40.90625 14.5 -39.546875 14.5 -37.890625 C 14.5 -36.648438 14.945312 -35.523438 15.84375 -34.515625 C 16.75 -33.515625 17.832031 -32.648438 19.09375 -31.921875 C 20.363281 -31.203125 22.210938 -30.25 24.640625 -29.0625 C 27.535156 -27.664062 29.925781 -26.398438 31.8125 -25.265625 C 33.695312 -24.128906 35.285156 -22.679688 36.578125 -20.921875 C 37.867188 -19.171875 38.515625 -17.078125 38.515625 -14.640625 C 38.515625 -11.546875 37.625 -8.820312 35.84375 -6.46875 C 34.0625 -4.113281 31.554688 -2.289062 28.328125 -1 C 25.097656 0.289062 21.335938 0.9375 17.046875 0.9375 Z M 17.046875 0.9375 "/></g></g></g><g fill="#000000" fill-opacity="1"><g transform="translate(43.619133, 203.995094)"><g><path d="M 3.40625 -4.265625 C 5.675781 -4.722656 7.195312 -5.378906 7.96875 -6.234375 C 8.75 -7.085938 9.140625 -8.597656 9.140625 -10.765625 L 9.140625 -40.765625 C 9.140625 -42.367188 8.957031 -43.441406 8.59375 -43.984375 C 8.238281 -44.523438 7.492188 -44.796875 6.359375 -44.796875 L 3.640625 -44.71875 L 3.25 -45.34375 L 3.875 -49.828125 L 14.5625 -49.75 C 16.269531 -49.75 19.890625 -49.929688 25.421875 -50.296875 L 25.03125 -45.1875 C 23.070312 -44.925781 21.769531 -44.523438 21.125 -43.984375 C 20.476562 -43.441406 20.101562 -42.445312 20 -41 C 19.320312 -28.800781 18.984375 -18.546875 18.984375 -10.234375 C 18.984375 -8.109375 19.191406 -6.679688 19.609375 -5.953125 C 20.023438 -5.234375 20.828125 -4.875 22.015625 -4.875 C 22.578125 -4.875 23.710938 -4.953125 25.421875 -5.109375 L 25.734375 -4.65625 L 25.03125 0.234375 L 22.25 0.15625 L 13.640625 0 C 11.265625 0 7.695312 0.234375 2.9375 0.703125 Z M 3.40625 -4.265625 "/></g></g></g><g fill="#000000" fill-opacity="1"><g transform="translate(71.907274, 203.995094)"><g><path d="M 9.0625 -4.578125 C 11.4375 -4.773438 13.140625 -5.082031 14.171875 -5.5 C 15.210938 -5.914062 15.910156 -6.640625 16.265625 -7.671875 C 16.628906 -8.703125 16.8125 -10.40625 16.8125 -12.78125 L 16.8125 -43.859375 C 13.820312 -43.753906 11.71875 -43.492188 10.5 -43.078125 C 9.289062 -42.671875 8.453125 -41.832031 7.984375 -40.5625 C 7.515625 -39.300781 7.101562 -37.019531 6.75 -33.71875 L 0.390625 -33.25 C 0.753906 -37.539062 1.0625 -43.039062 1.3125 -49.75 L 2.171875 -50.609375 L 9.84375 -49.75 L 34.015625 -49.75 L 41.84375 -50.609375 L 42.703125 -49.75 C 42.804688 -43.550781 43.066406 -38.207031 43.484375 -33.71875 L 37.125 -33.25 C 36.707031 -36.757812 36.28125 -39.160156 35.84375 -40.453125 C 35.40625 -41.742188 34.628906 -42.609375 33.515625 -43.046875 C 32.410156 -43.484375 30.4375 -43.753906 27.59375 -43.859375 C 27.332031 -40.035156 27.109375 -34.84375 26.921875 -28.28125 C 26.742188 -21.71875 26.65625 -15.753906 26.65625 -10.390625 C 26.65625 -8.472656 26.988281 -7.097656 27.65625 -6.265625 C 28.332031 -5.441406 29.421875 -5.03125 30.921875 -5.03125 C 32.210938 -5.03125 33.582031 -5.109375 35.03125 -5.265625 L 35.34375 -4.875 L 34.640625 0.3125 C 29.160156 0.101562 24.71875 0 21.3125 0 C 18.625 0 14.335938 0.15625 8.453125 0.46875 Z M 9.0625 -4.578125 "/></g></g></g><g fill="#000000" fill-opacity="1"><g transform="translate(115.850774, 203.995094)"><g/></g></g><g fill="#000000" fill-opacity="1"><g transform="translate(129.336083, 203.995094)"><g/></g></g><g fill="#000000" fill-opacity="1"><g transform="translate(142.821389, 203.995094)"><g/></g></g><g fill="#000000" fill-opacity="1"><g transform="translate(156.306681, 203.995094)"><g/></g></g><g fill="#000000" fill-opacity="1"><g transform="translate(169.791987, 203.995094)"><g/></g></g><g fill="#000000" fill-opacity="1"><g transform="translate(183.277279, 203.995094)"><g/></g></g><g fill="#000000" fill-opacity="1"><g transform="translate(196.762585, 203.995094)"><g/></g></g><g fill="#000000" fill-opacity="1"><g transform="translate(210.247877, 203.995094)"><g/></g></g><g fill="#000000" fill-opacity="1"><g transform="translate(223.733169, 203.995094)"><g/></g></g><g fill="#000000" fill-opacity="1"><g transform="translate(237.218478, 203.995094)"><g><path d="M 25.65625 0 L 26.046875 -4.578125 C 27.796875 -4.734375 29.070312 -4.898438 29.875 -5.078125 C 30.675781 -5.253906 31.226562 -5.507812 31.53125 -5.84375 C 31.84375 -6.1875 32 -6.691406 32 -7.359375 C 32 -7.984375 31.875 -8.890625 31.625 -10.078125 L 30 -16.046875 C 27.3125 -16.148438 24.929688 -16.203125 22.859375 -16.203125 C 21.929688 -16.203125 19.992188 -16.070312 17.046875 -15.8125 L 15.421875 -15.65625 L 13.484375 -9.6875 C 13.171875 -8.550781 13.015625 -7.75 13.015625 -7.28125 C 13.015625 -6.351562 13.285156 -5.707031 13.828125 -5.34375 C 14.367188 -4.988281 15.3125 -4.8125 16.65625 -4.8125 L 20 -4.8125 L 20.375 -4.265625 L 19.84375 0.46875 C 19.113281 0.414062 17.5625 0.320312 15.1875 0.1875 C 12.8125 0.0625 10.59375 0 8.53125 0 C 6.351562 0 4.398438 0.0234375 2.671875 0.078125 C 0.941406 0.128906 -0.207031 0.179688 -0.78125 0.234375 L -0.234375 -4.8125 C 0.953125 -5.007812 1.929688 -5.492188 2.703125 -6.265625 C 3.484375 -7.046875 4.207031 -8.316406 4.875 -10.078125 L 18.75 -49.375 L 30.609375 -50.609375 L 31.46875 -50.21875 C 32.238281 -47.269531 33.847656 -41.234375 36.296875 -32.109375 C 38.753906 -22.992188 40.863281 -15.675781 42.625 -10.15625 C 43.195312 -8.289062 43.921875 -6.96875 44.796875 -6.1875 C 45.671875 -5.414062 46.988281 -4.957031 48.75 -4.8125 L 49.0625 -4.265625 L 48.515625 0.234375 C 47.835938 0.179688 46.566406 0.128906 44.703125 0.078125 C 42.847656 0.0234375 40.96875 0 39.0625 0 C 36.320312 0 33.644531 0.0859375 31.03125 0.265625 C 28.425781 0.453125 26.765625 0.570312 26.046875 0.625 Z M 22.859375 -22.171875 C 23.429688 -22.171875 25.34375 -22.242188 28.59375 -22.390625 L 24.03125 -39.6875 L 23.015625 -39.6875 L 17.28125 -22.171875 Z M 22.859375 -22.171875 "/></g></g></g><g fill="#000000" fill-opacity="1"><g transform="translate(285.657077, 203.995094)"><g><path d="M 3.796875 -4.5 C 5.910156 -4.851562 7.328125 -5.46875 8.046875 -6.34375 C 8.773438 -7.226562 9.140625 -8.78125 9.140625 -11 L 9.140625 -40.609375 C 9.140625 -42.265625 8.972656 -43.375 8.640625 -43.9375 C 8.304688 -44.507812 7.648438 -44.796875 6.671875 -44.796875 C 6.097656 -44.796875 5.550781 -44.769531 5.03125 -44.71875 C 4.519531 -44.664062 4.1875 -44.640625 4.03125 -44.640625 L 3.5625 -45.265625 L 4.1875 -49.828125 L 13.953125 -49.75 C 15.910156 -49.75 18.09375 -49.785156 20.5 -49.859375 C 22.90625 -49.941406 24.597656 -50.007812 25.578125 -50.0625 C 32.191406 -50.0625 36.941406 -48.664062 39.828125 -45.875 C 42.722656 -43.082031 44.171875 -39.546875 44.171875 -35.265625 C 44.171875 -32.210938 43.304688 -29.328125 41.578125 -26.609375 C 39.847656 -23.898438 37.5625 -21.734375 34.71875 -20.109375 C 31.875 -18.484375 28.851562 -17.671875 25.65625 -17.671875 L 19.140625 -17.671875 L 18.984375 -11.78125 C 18.984375 -9.757812 19.070312 -8.285156 19.25 -7.359375 C 19.4375 -6.429688 19.773438 -5.796875 20.265625 -5.453125 C 20.753906 -5.117188 21.539062 -4.953125 22.625 -4.953125 C 23.351562 -4.953125 24.050781 -4.976562 24.71875 -5.03125 C 25.394531 -5.082031 25.863281 -5.109375 26.125 -5.109375 L 26.34375 -4.734375 L 25.65625 0.234375 C 24.925781 0.234375 23.59375 0.191406 21.65625 0.109375 C 19.71875 0.0351562 17.847656 0 16.046875 0 C 14.285156 0 11.945312 0.078125 9.03125 0.234375 C 6.113281 0.390625 4.160156 0.519531 3.171875 0.625 Z M 26.1875 -23.484375 C 31 -24.515625 33.40625 -28.050781 33.40625 -34.09375 C 33.40625 -37.40625 32.472656 -39.820312 30.609375 -41.34375 C 28.753906 -42.863281 25.8125 -43.625 21.78125 -43.625 C 21.050781 -43.625 20.597656 -43.5625 20.421875 -43.4375 C 20.242188 -43.3125 20.128906 -42.9375 20.078125 -42.3125 C 19.765625 -37.664062 19.503906 -31.722656 19.296875 -24.484375 Z M 26.1875 -23.484375 "/></g></g></g><g fill="#000000" fill-opacity="1"><g transform="translate(330.29807, 203.995094)"><g><path d="M 3.796875 -4.5 C 5.910156 -4.851562 7.328125 -5.46875 8.046875 -6.34375 C 8.773438 -7.226562 9.140625 -8.78125 9.140625 -11 L 9.140625 -40.609375 C 9.140625 -42.265625 8.972656 -43.375 8.640625 -43.9375 C 8.304688 -44.507812 7.648438 -44.796875 6.671875 -44.796875 C 6.097656 -44.796875 5.550781 -44.769531 5.03125 -44.71875 C 4.519531 -44.664062 4.1875 -44.640625 4.03125 -44.640625 L 3.5625 -45.265625 L 4.1875 -49.828125 L 13.953125 -49.75 C 15.910156 -49.75 18.09375 -49.785156 20.5 -49.859375 C 22.90625 -49.941406 24.597656 -50.007812 25.578125 -50.0625 C 32.191406 -50.0625 36.941406 -48.664062 39.828125 -45.875 C 42.722656 -43.082031 44.171875 -39.546875 44.171875 -35.265625 C 44.171875 -32.210938 43.304688 -29.328125 41.578125 -26.609375 C 39.847656 -23.898438 37.5625 -21.734375 34.71875 -20.109375 C 31.875 -18.484375 28.851562 -17.671875 25.65625 -17.671875 L 19.140625 -17.671875 L 18.984375 -11.78125 C 18.984375 -9.757812 19.070312 -8.285156 19.25 -7.359375 C 19.4375 -6.429688 19.773438 -5.796875 20.265625 -5.453125 C 20.753906 -5.117188 21.539062 -4.953125 22.625 -4.953125 C 23.351562 -4.953125 24.050781 -4.976562 24.71875 -5.03125 C 25.394531 -5.082031 25.863281 -5.109375 26.125 -5.109375 L 26.34375 -4.734375 L 25.65625 0.234375 C 24.925781 0.234375 23.59375 0.191406 21.65625 0.109375 C 19.71875 0.0351562 17.847656 0 16.046875 0 C 14.285156 0 11.945312 0.078125 9.03125 0.234375 C 6.113281 0.390625 4.160156 0.519531 3.171875 0.625 Z M 26.1875 -23.484375 C 31 -24.515625 33.40625 -28.050781 33.40625 -34.09375 C 33.40625 -37.40625 32.472656 -39.820312 30.609375 -41.34375 C 28.753906 -42.863281 25.8125 -43.625 21.78125 -43.625 C 21.050781 -43.625 20.597656 -43.5625 20.421875 -43.4375 C 20.242188 -43.3125 20.128906 -42.9375 20.078125 -42.3125 C 19.765625 -37.664062 19.503906 -31.722656 19.296875 -24.484375 Z M 26.1875 -23.484375 "/></g></g></g><g clip-path="url(#d879360050)"><path fill="#0097b2" d="M 210.792969 151.738281 L 152.507812 151.738281 C 151.910156 151.738281 151.316406 151.800781 150.730469 151.917969 C 150.144531 152.035156 149.574219 152.207031 149.023438 152.4375 C 148.46875 152.664062 147.945312 152.945312 147.449219 153.28125 C 146.953125 153.613281 146.492188 153.992188 146.070312 154.414062 C 145.644531 154.835938 145.269531 155.296875 144.9375 155.796875 C 144.605469 156.292969 144.324219 156.820312 144.09375 157.371094 C 143.867188 157.925781 143.691406 158.496094 143.574219 159.082031 C 143.457031 159.667969 143.398438 160.261719 143.398438 160.859375 L 143.398438 197.347656 C 143.398438 197.945312 143.457031 198.539062 143.574219 199.125 C 143.691406 199.714844 143.867188 200.285156 144.09375 200.835938 C 144.324219 201.390625 144.605469 201.914062 144.9375 202.414062 C 145.269531 202.910156 145.644531 203.371094 146.070312 203.796875 C 146.492188 204.21875 146.953125 204.597656 147.449219 204.929688 C 147.945312 205.261719 148.46875 205.542969 149.023438 205.773438 C 149.574219 206.003906 150.144531 206.175781 150.730469 206.292969 C 151.316406 206.410156 151.910156 206.46875 152.507812 206.46875 L 210.792969 206.46875 C 211.390625 206.46875 211.980469 206.410156 212.566406 206.292969 C 213.15625 206.175781 213.722656 206.003906 214.277344 205.773438 C 214.828125 205.542969 215.351562 205.261719 215.851562 204.929688 C 216.347656 204.597656 216.804688 204.21875 217.230469 203.796875 C 217.652344 203.371094 218.03125 202.910156 218.363281 202.414062 C 218.695312 201.914062 218.972656 201.390625 219.203125 200.835938 C 219.433594 200.285156 219.605469 199.714844 219.722656 199.125 C 219.839844 198.539062 219.898438 197.945312 219.898438 197.347656 L 219.898438 160.859375 C 219.898438 160.261719 219.839844 159.667969 219.722656 159.082031 C 219.605469 158.496094 219.433594 157.925781 219.203125 157.371094 C 218.972656 156.820312 218.695312 156.292969 218.363281 155.796875 C 218.03125 155.296875 217.652344 154.835938 217.230469 154.414062 C 216.804688 153.992188 216.347656 153.613281 215.851562 153.28125 C 215.351562 152.945312 214.828125 152.664062 214.277344 152.4375 C 213.722656 152.207031 213.15625 152.035156 212.566406 151.917969 C 211.980469 151.800781 211.390625 151.738281 210.792969 151.738281 Z M 216.257812 197.347656 C 216.253906 197.707031 216.21875 198.0625 216.148438 198.414062 C 216.078125 198.765625 215.976562 199.109375 215.839844 199.441406 C 215.703125 199.773438 215.53125 200.089844 215.332031 200.386719 C 215.132812 200.6875 214.90625 200.960938 214.652344 201.214844 C 214.402344 201.46875 214.125 201.695312 213.828125 201.894531 C 213.527344 202.097656 213.214844 202.265625 212.882812 202.402344 C 212.550781 202.539062 212.210938 202.644531 211.859375 202.714844 C 211.503906 202.785156 211.152344 202.820312 210.792969 202.820312 L 152.507812 202.820312 C 152.148438 202.820312 151.792969 202.785156 151.441406 202.714844 C 151.089844 202.644531 150.746094 202.539062 150.417969 202.402344 C 150.085938 202.265625 149.769531 202.097656 149.472656 201.894531 C 149.171875 201.695312 148.898438 201.46875 148.644531 201.214844 C 148.390625 200.960938 148.164062 200.6875 147.964844 200.386719 C 147.765625 200.089844 147.597656 199.773438 147.460938 199.441406 C 147.320312 199.109375 147.21875 198.765625 147.148438 198.414062 C 147.078125 198.0625 147.042969 197.707031 147.042969 197.347656 L 147.042969 160.859375 C 147.042969 160.5 147.078125 160.144531 147.148438 159.792969 C 147.21875 159.441406 147.320312 159.097656 147.460938 158.769531 C 147.597656 158.4375 147.765625 158.121094 147.964844 157.820312 C 148.164062 157.523438 148.390625 157.246094 148.644531 156.992188 C 148.898438 156.738281 149.171875 156.511719 149.472656 156.3125 C 149.769531 156.113281 150.085938 155.945312 150.417969 155.804688 C 150.746094 155.667969 151.089844 155.566406 151.441406 155.496094 C 151.792969 155.425781 152.148438 155.386719 152.507812 155.386719 L 210.792969 155.386719 C 211.152344 155.386719 211.503906 155.425781 211.859375 155.496094 C 212.210938 155.566406 212.550781 155.667969 212.882812 155.804688 C 213.214844 155.945312 213.527344 156.113281 213.828125 156.3125 C 214.125 156.511719 214.402344 156.738281 214.652344 156.992188 C 214.90625 157.246094 215.132812 157.523438 215.332031 157.820312 C 215.53125 158.121094 215.703125 158.4375 215.839844 158.769531 C 215.976562 159.097656 216.078125 159.441406 216.148438 159.792969 C 216.21875 160.144531 216.253906 160.5 216.257812 160.859375 Z M 167.078125 180.929688 C 167.675781 180.929688 168.269531 180.871094 168.855469 180.753906 C 169.441406 180.636719 170.011719 180.464844 170.5625 180.234375 C 171.117188 180.003906 171.640625 179.722656 172.136719 179.390625 C 172.632812 179.058594 173.09375 178.679688 173.515625 178.257812 C 173.941406 177.832031 174.316406 177.371094 174.648438 176.875 C 174.980469 176.375 175.261719 175.851562 175.492188 175.296875 C 175.71875 174.746094 175.894531 174.175781 176.011719 173.585938 C 176.125 173 176.183594 172.40625 176.183594 171.808594 C 176.183594 171.207031 176.125 170.613281 176.011719 170.027344 C 175.894531 169.441406 175.71875 168.871094 175.492188 168.316406 C 175.261719 167.761719 174.980469 167.238281 174.648438 166.738281 C 174.316406 166.242188 173.941406 165.78125 173.515625 165.355469 C 173.09375 164.933594 172.632812 164.554688 172.136719 164.222656 C 171.640625 163.890625 171.117188 163.609375 170.5625 163.378906 C 170.011719 163.152344 169.441406 162.976562 168.855469 162.859375 C 168.269531 162.742188 167.675781 162.683594 167.078125 162.683594 C 166.480469 162.683594 165.886719 162.742188 165.300781 162.859375 C 164.714844 162.976562 164.144531 163.152344 163.59375 163.378906 C 163.039062 163.609375 162.515625 163.890625 162.019531 164.222656 C 161.519531 164.554688 161.0625 164.933594 160.636719 165.355469 C 160.214844 165.78125 159.835938 166.242188 159.503906 166.738281 C 159.171875 167.238281 158.894531 167.761719 158.664062 168.316406 C 158.433594 168.871094 158.261719 169.441406 158.144531 170.027344 C 158.027344 170.613281 157.96875 171.207031 157.96875 171.808594 C 157.972656 172.40625 158.03125 173 158.148438 173.585938 C 158.265625 174.171875 158.4375 174.742188 158.664062 175.296875 C 158.894531 175.851562 159.175781 176.375 159.507812 176.871094 C 159.839844 177.371094 160.21875 177.832031 160.640625 178.253906 C 161.0625 178.679688 161.523438 179.054688 162.019531 179.390625 C 162.515625 179.722656 163.042969 180.003906 163.59375 180.230469 C 164.144531 180.460938 164.714844 180.636719 165.300781 180.753906 C 165.886719 180.871094 166.480469 180.929688 167.078125 180.929688 Z M 167.078125 166.335938 C 167.4375 166.335938 167.792969 166.371094 168.144531 166.4375 C 168.496094 166.507812 168.835938 166.613281 169.167969 166.75 C 169.5 166.886719 169.816406 167.058594 170.113281 167.257812 C 170.410156 167.457031 170.6875 167.683594 170.941406 167.9375 C 171.195312 168.191406 171.421875 168.46875 171.621094 168.765625 C 171.820312 169.066406 171.988281 169.378906 172.125 169.710938 C 172.261719 170.042969 172.367188 170.386719 172.4375 170.738281 C 172.507812 171.09375 172.542969 171.449219 172.542969 171.808594 C 172.542969 172.167969 172.507812 172.523438 172.4375 172.875 C 172.367188 173.226562 172.261719 173.570312 172.125 173.902344 C 171.988281 174.234375 171.820312 174.550781 171.621094 174.847656 C 171.421875 175.148438 171.195312 175.421875 170.941406 175.675781 C 170.6875 175.929688 170.410156 176.15625 170.113281 176.359375 C 169.816406 176.558594 169.5 176.726562 169.167969 176.863281 C 168.835938 177 168.496094 177.105469 168.144531 177.175781 C 167.792969 177.246094 167.4375 177.28125 167.078125 177.28125 C 166.71875 177.28125 166.363281 177.246094 166.011719 177.175781 C 165.660156 177.105469 165.316406 177 164.988281 176.863281 C 164.65625 176.726562 164.339844 176.558594 164.042969 176.359375 C 163.742188 176.15625 163.46875 175.929688 163.214844 175.675781 C 162.960938 175.421875 162.734375 175.148438 162.535156 174.847656 C 162.335938 174.550781 162.167969 174.234375 162.03125 173.902344 C 161.890625 173.570312 161.789062 173.226562 161.71875 172.875 C 161.648438 172.523438 161.613281 172.167969 161.613281 171.808594 C 161.613281 171.449219 161.648438 171.09375 161.71875 170.738281 C 161.789062 170.386719 161.894531 170.046875 162.03125 169.714844 C 162.167969 169.382812 162.335938 169.066406 162.535156 168.769531 C 162.734375 168.46875 162.960938 168.191406 163.214844 167.9375 C 163.46875 167.683594 163.746094 167.457031 164.042969 167.257812 C 164.339844 167.058594 164.65625 166.890625 164.988281 166.753906 C 165.320312 166.613281 165.660156 166.511719 166.011719 166.441406 C 166.363281 166.371094 166.71875 166.335938 167.078125 166.335938 Z M 179.828125 193.699219 C 179.828125 193.941406 179.78125 194.171875 179.6875 194.398438 C 179.597656 194.621094 179.464844 194.816406 179.292969 194.988281 C 179.125 195.160156 178.925781 195.292969 178.703125 195.382812 C 178.480469 195.476562 178.246094 195.523438 178.007812 195.523438 C 177.765625 195.523438 177.53125 195.476562 177.308594 195.382812 C 177.085938 195.292969 176.890625 195.160156 176.71875 194.988281 C 176.546875 194.816406 176.414062 194.621094 176.324219 194.398438 C 176.230469 194.171875 176.183594 193.941406 176.183594 193.699219 C 176.183594 193.339844 176.148438 192.984375 176.078125 192.632812 C 176.007812 192.28125 175.90625 191.9375 175.765625 191.605469 C 175.628906 191.273438 175.460938 190.957031 175.261719 190.660156 C 175.0625 190.359375 174.835938 190.085938 174.582031 189.832031 C 174.328125 189.578125 174.054688 189.351562 173.753906 189.148438 C 173.457031 188.949219 173.140625 188.78125 172.8125 188.644531 C 172.480469 188.507812 172.136719 188.402344 171.785156 188.332031 C 171.433594 188.261719 171.078125 188.226562 170.71875 188.226562 L 163.433594 188.226562 C 163.074219 188.226562 162.722656 188.261719 162.371094 188.332031 C 162.015625 188.402344 161.675781 188.507812 161.34375 188.644531 C 161.011719 188.78125 160.699219 188.949219 160.402344 189.148438 C 160.101562 189.351562 159.828125 189.578125 159.574219 189.832031 C 159.320312 190.085938 159.09375 190.359375 158.894531 190.660156 C 158.695312 190.957031 158.527344 191.273438 158.386719 191.605469 C 158.25 191.9375 158.148438 192.28125 158.078125 192.632812 C 158.007812 192.984375 157.972656 193.339844 157.96875 193.699219 C 157.96875 193.941406 157.925781 194.171875 157.832031 194.398438 C 157.738281 194.621094 157.609375 194.816406 157.4375 194.988281 C 157.265625 195.160156 157.070312 195.292969 156.847656 195.382812 C 156.621094 195.476562 156.390625 195.523438 156.148438 195.523438 C 155.90625 195.523438 155.675781 195.476562 155.453125 195.382812 C 155.230469 195.292969 155.03125 195.160156 154.859375 194.988281 C 154.691406 194.816406 154.558594 194.621094 154.464844 194.398438 C 154.375 194.171875 154.328125 193.941406 154.328125 193.699219 C 154.328125 193.101562 154.386719 192.507812 154.503906 191.921875 C 154.621094 191.332031 154.792969 190.761719 155.023438 190.210938 C 155.253906 189.65625 155.53125 189.132812 155.863281 188.632812 C 156.199219 188.136719 156.574219 187.675781 156.996094 187.25 C 157.421875 186.828125 157.878906 186.449219 158.378906 186.117188 C 158.875 185.785156 159.398438 185.503906 159.949219 185.273438 C 160.503906 185.042969 161.074219 184.871094 161.660156 184.753906 C 162.246094 184.636719 162.835938 184.578125 163.433594 184.578125 L 170.71875 184.578125 C 171.316406 184.578125 171.910156 184.636719 172.496094 184.753906 C 173.082031 184.871094 173.652344 185.042969 174.203125 185.273438 C 174.757812 185.503906 175.28125 185.785156 175.777344 186.117188 C 176.273438 186.449219 176.734375 186.828125 177.15625 187.25 C 177.582031 187.675781 177.957031 188.136719 178.289062 188.632812 C 178.621094 189.132812 178.902344 189.65625 179.132812 190.210938 C 179.359375 190.761719 179.535156 191.332031 179.652344 191.921875 C 179.769531 192.507812 179.828125 193.101562 179.828125 193.699219 Z M 208.96875 173.632812 C 208.96875 173.875 208.925781 174.105469 208.832031 174.328125 C 208.738281 174.554688 208.609375 174.75 208.4375 174.921875 C 208.265625 175.09375 208.070312 175.226562 207.847656 175.316406 C 207.625 175.410156 207.390625 175.457031 207.148438 175.457031 L 192.578125 175.457031 C 192.335938 175.457031 192.105469 175.410156 191.878906 175.316406 C 191.65625 175.222656 191.460938 175.09375 191.289062 174.921875 C 191.117188 174.75 190.988281 174.554688 190.894531 174.328125 C 190.800781 174.105469 190.757812 173.875 190.757812 173.632812 C 190.757812 173.390625 190.800781 173.15625 190.894531 172.933594 C 190.988281 172.710938 191.117188 172.511719 191.289062 172.339844 C 191.460938 172.171875 191.65625 172.039062 191.878906 171.945312 C 192.105469 171.851562 192.335938 171.808594 192.578125 171.808594 L 207.148438 171.808594 C 207.390625 171.808594 207.625 171.851562 207.847656 171.945312 C 208.070312 172.039062 208.265625 172.171875 208.4375 172.339844 C 208.609375 172.511719 208.738281 172.710938 208.832031 172.933594 C 208.925781 173.15625 208.96875 173.390625 208.96875 173.632812 Z M 201.683594 184.578125 C 201.683594 184.820312 201.640625 185.050781 201.546875 185.277344 C 201.453125 185.5 201.324219 185.695312 201.152344 185.867188 C 200.980469 186.039062 200.785156 186.171875 200.5625 186.261719 C 200.335938 186.355469 200.105469 186.402344 199.863281 186.402344 L 192.578125 186.402344 C 192.335938 186.402344 192.105469 186.355469 191.878906 186.261719 C 191.65625 186.171875 191.460938 186.039062 191.289062 185.867188 C 191.117188 185.695312 190.988281 185.5 190.894531 185.277344 C 190.800781 185.050781 190.757812 184.820312 190.757812 184.578125 C 190.757812 184.335938 190.800781 184.101562 190.894531 183.878906 C 190.988281 183.65625 191.117188 183.457031 191.289062 183.289062 C 191.460938 183.117188 191.65625 182.984375 191.878906 182.890625 C 192.105469 182.800781 192.335938 182.753906 192.578125 182.753906 L 199.863281 182.753906 C 200.105469 182.753906 200.335938 182.800781 200.5625 182.890625 C 200.785156 182.984375 200.980469 183.117188 201.152344 183.285156 C 201.324219 183.457031 201.453125 183.65625 201.546875 183.878906 C 201.640625 184.101562 201.683594 184.335938 201.683594 184.578125 Z M 201.683594 184.578125 " fill-opacity="1" fill-rule="nonzero"/></g></svg>