<svg id="visual" viewBox="0 0 900 600" width="900" height="600" xmlns="http://www.w3.org/2000/svg" xmlns:xlink="http://www.w3.org/1999/xlink" version="1.1"><rect x="0" y="0" width="900" height="600" fill="#a0cff3"></rect><defs><linearGradient id="grad1_0" x1="33.3%" y1="0%" x2="100%" y2="100%"><stop offset="20%" stop-color="#2591f6" stop-opacity="1"></stop><stop offset="80%" stop-color="#2591f6" stop-opacity="1"></stop></linearGradient></defs><defs><linearGradient id="grad1_1" x1="33.3%" y1="0%" x2="100%" y2="100%"><stop offset="20%" stop-color="#2591f6" stop-opacity="1"></stop><stop offset="80%" stop-color="#47a1f6" stop-opacity="1"></stop></linearGradient></defs><defs><linearGradient id="grad1_2" x1="33.3%" y1="0%" x2="100%" y2="100%"><stop offset="20%" stop-color="#65b1f6" stop-opacity="1"></stop><stop offset="80%" stop-color="#47a1f6" stop-opacity="1"></stop></linearGradient></defs><defs><linearGradient id="grad1_3" x1="33.3%" y1="0%" x2="100%" y2="100%"><stop offset="20%" stop-color="#65b1f6" stop-opacity="1"></stop><stop offset="80%" stop-color="#83c0f4" stop-opacity="1"></stop></linearGradient></defs><defs><linearGradient id="grad1_4" x1="33.3%" y1="0%" x2="100%" y2="100%"><stop offset="20%" stop-color="#a0cff3" stop-opacity="1"></stop><stop offset="80%" stop-color="#83c0f4" stop-opacity="1"></stop></linearGradient></defs><defs><linearGradient id="grad2_0" x1="0%" y1="0%" x2="66.7%" y2="100%"><stop offset="20%" stop-color="#2591f6" stop-opacity="1"></stop><stop offset="80%" stop-color="#2591f6" stop-opacity="1"></stop></linearGradient></defs><defs><linearGradient id="grad2_1" x1="0%" y1="0%" x2="66.7%" y2="100%"><stop offset="20%" stop-color="#47a1f6" stop-opacity="1"></stop><stop offset="80%" stop-color="#2591f6" stop-opacity="1"></stop></linearGradient></defs><defs><linearGradient id="grad2_2" x1="0%" y1="0%" x2="66.7%" y2="100%"><stop offset="20%" stop-color="#47a1f6" stop-opacity="1"></stop><stop offset="80%" stop-color="#65b1f6" stop-opacity="1"></stop></linearGradient></defs><defs><linearGradient id="grad2_3" x1="0%" y1="0%" x2="66.7%" y2="100%"><stop offset="20%" stop-color="#83c0f4" stop-opacity="1"></stop><stop offset="80%" stop-color="#65b1f6" stop-opacity="1"></stop></linearGradient></defs><defs><linearGradient id="grad2_4" x1="0%" y1="0%" x2="66.7%" y2="100%"><stop offset="20%" stop-color="#83c0f4" stop-opacity="1"></stop><stop offset="80%" stop-color="#a0cff3" stop-opacity="1"></stop></linearGradient></defs><g transform="translate(900, 0)"><path d="M0 486.7C-53.1 443.1 -106.3 399.4 -152.3 367.7C-198.3 336 -237.3 316.4 -291.3 291.3C-345.4 266.3 -414.6 235.7 -449.7 186.3C-484.8 136.8 -485.8 68.4 -486.7 0L0 0Z" fill="#91c8f4"></path><path d="M0 389.4C-42.5 354.4 -85 319.5 -121.8 294.2C-158.7 268.8 -189.8 253.1 -233.1 233.1C-276.3 213 -331.7 188.6 -359.8 149C-387.8 109.4 -388.6 54.7 -389.4 0L0 0Z" fill="#74b9f5"></path><path d="M0 292C-31.9 265.8 -63.8 239.6 -91.4 220.6C-119 201.6 -142.4 189.8 -174.8 174.8C-207.2 159.8 -248.8 141.4 -269.8 111.8C-290.9 82.1 -291.5 41 -292 0L0 0Z" fill="#56a9f6"></path><path d="M0 194.7C-21.3 177.2 -42.5 159.7 -60.9 147.1C-79.3 134.4 -94.9 126.6 -116.5 116.5C-138.2 106.5 -165.8 94.3 -179.9 74.5C-193.9 54.7 -194.3 27.4 -194.7 0L0 0Z" fill="#3799f6"></path><path d="M0 97.3C-10.6 88.6 -21.3 79.9 -30.5 73.5C-39.7 67.2 -47.5 63.3 -58.3 58.3C-69.1 53.3 -82.9 47.1 -89.9 37.3C-97 27.4 -97.2 13.7 -97.3 0L0 0Z" fill="#2591f6"></path></g><g transform="translate(0, 600)"><path d="M0 -486.7C63.5 -479.8 127 -472.9 186.3 -449.7C245.5 -426.5 300.4 -386.9 338 -338C375.5 -289.1 395.7 -230.9 417.6 -173C439.5 -115.1 463.1 -57.5 486.7 0L0 0Z" fill="#91c8f4"></path><path d="M0 -389.4C50.8 -383.9 101.6 -378.3 149 -359.8C196.4 -341.2 240.4 -309.5 270.4 -270.4C300.4 -231.3 316.6 -184.7 334.1 -138.4C351.6 -92.1 370.5 -46 389.4 0L0 0Z" fill="#74b9f5"></path><path d="M0 -292C38.1 -287.9 76.2 -283.8 111.8 -269.8C147.3 -255.9 180.3 -232.1 202.8 -202.8C225.3 -173.5 237.4 -138.5 250.6 -103.8C263.7 -69.1 277.9 -34.5 292 0L0 0Z" fill="#56a9f6"></path><path d="M0 -194.7C25.4 -191.9 50.8 -189.2 74.5 -179.9C98.2 -170.6 120.2 -154.8 135.2 -135.2C150.2 -115.6 158.3 -92.3 167 -69.2C175.8 -46 185.2 -23 194.7 0L0 0Z" fill="#3799f6"></path><path d="M0 -97.3C12.7 -96 25.4 -94.6 37.3 -89.9C49.1 -85.3 60.1 -77.4 67.6 -67.6C75.1 -57.8 79.1 -46.2 83.5 -34.6C87.9 -23 92.6 -11.5 97.3 0L0 0Z" fill="#2591f6"></path></g></svg>