<?xml version="1.0" standalone="no"?>
<!DOCTYPE svg PUBLIC "-//W3C//DTD SVG 20010904//EN"
 "http://www.w3.org/TR/2001/REC-SVG-20010904/DTD/svg10.dtd">
<svg version="1.0" xmlns="http://www.w3.org/2000/svg"
 width="500.000000pt" height="500.000000pt" viewBox="0 0 500.000000 500.000000"
 preserveAspectRatio="xMidYMid meet">

<g transform="translate(0.000000,500.000000) scale(0.100000,-0.100000)"
fill="#000000" stroke="none">
<path d="M2314 4343 c-12 -2 -28 -12 -36 -21 -18 -21 -51 -103 -44 -110 11
-10 33 19 44 57 15 48 24 51 169 51 139 0 157 -6 175 -62 8 -25 22 -44 31 -46
16 -3 15 1 -3 48 -11 28 -20 53 -20 56 0 3 -16 12 -35 20 -33 13 -224 18 -281
7z"/>
<path d="M3066 4136 c-79 -97 -136 -158 -151 -162 -20 -5 -41 -31 -33 -40 2
-1 32 -14 68 -27 36 -13 73 -27 82 -31 11 -5 20 -1 28 13 9 18 7 22 -15 31
-31 12 -32 32 -4 69 20 27 24 28 58 19 20 -6 48 -16 62 -23 23 -12 25 -18 20
-57 -6 -41 -7 -43 -39 -40 -24 2 -32 -1 -32 -12 0 -28 4 -31 70 -52 36 -11
110 -49 165 -83 93 -58 100 -61 113 -44 11 16 10 20 -7 32 -12 7 -21 20 -21
28 0 12 21 49 47 82 1 2 25 -8 52 -22 80 -44 160 -32 214 32 21 26 27 43 27
82 0 44 -4 53 -39 87 -21 20 -77 60 -124 89 -73 44 -87 50 -98 37 -9 -11 -8
-18 5 -32 15 -17 11 -27 -68 -152 -46 -73 -91 -137 -100 -142 -19 -11 -62 15
-68 40 -5 16 0 96 17 318 l7 91 -30 6 c-16 3 -41 9 -54 12 -22 6 -38 -10 -152
-149z m137 -13 c-3 -38 -9 -72 -13 -76 -7 -8 -90 11 -90 20 0 7 95 123 101
123 4 0 4 -30 2 -67z m449 -120 c32 -31 36 -67 11 -103 -39 -56 -85 -66 -123
-25 l-23 25 44 65 c24 36 48 65 53 65 6 0 23 -12 38 -27z"/>
<path d="M1754 4270 c-14 -14 -248 -128 -279 -136 -31 -8 -31 -16 -1 -89 26
-65 33 -71 58 -51 14 10 16 19 8 45 -5 18 -7 38 -4 45 6 15 51 42 59 35 10
-11 135 -282 135 -295 0 -7 -11 -21 -24 -29 -16 -11 -22 -22 -19 -35 3 -11 7
-20 8 -20 2 0 50 23 108 51 89 43 104 54 99 71 -5 19 -14 20 -52 4 -8 -3 -21
-2 -28 2 -7 5 -42 73 -78 152 -69 152 -70 160 -12 160 19 0 32 -8 45 -30 20
-34 21 -35 47 -15 19 15 19 17 -15 80 -36 68 -39 71 -55 55z"/>
<path d="M2318 4203 c-41 -5 -47 -13 -22 -33 8 -8 21 -28 28 -45 13 -30 18
-32 75 -38 55 -6 82 -4 147 9 13 2 24 14 28 29 4 14 15 34 26 45 12 12 15 22
9 26 -13 8 -240 14 -291 7z"/>
<path d="M2185 4145 c-33 -33 -36 -119 -4 -159 l20 -26 245 0 c291 0 284 -3
284 105 0 52 -4 69 -20 85 -38 38 -92 21 -110 -36 -16 -46 -39 -54 -158 -54
-101 0 -142 13 -142 46 0 22 -46 64 -70 64 -11 0 -32 -11 -45 -25z m75 -20
c26 -32 -13 -81 -47 -59 -35 22 -23 74 17 74 10 0 23 -7 30 -15z m438 -2 c15
-29 -3 -63 -33 -63 -17 0 -28 7 -34 23 -12 30 4 57 34 57 13 0 28 -8 33 -17z
m-438 -103 c0 -5 -16 -10 -35 -10 -19 0 -35 5 -35 10 0 6 16 10 35 10 19 0 35
-4 35 -10z m335 -10 c0 -13 -24 -15 -147 -18 -144 -2 -148 -2 -148 18 0 20 4
20 148 18 123 -3 147 -5 147 -18z m110 10 c4 -6 -10 -10 -35 -10 -25 0 -39 4
-35 10 3 6 19 10 35 10 16 0 32 -4 35 -10z"/>
<path d="M1303 4013 c-77 -56 -78 -59 -63 -83 7 -12 12 -12 22 -2 6 6 17 12
23 12 17 0 195 -254 195 -277 0 -10 -5 -24 -10 -29 -7 -7 -6 -16 2 -27 12 -16
20 -12 88 39 41 32 74 62 72 68 -7 22 -22 30 -34 18 -7 -7 -18 -12 -25 -12 -7
0 -48 53 -91 118 -105 156 -105 157 -90 182 10 16 10 22 -2 34 -13 12 -25 6
-87 -41z"/>
<path d="M2160 3926 c0 -29 4 -37 24 -42 42 -10 71 -1 74 24 3 18 -1 22 -25
22 -16 0 -39 7 -51 16 -21 15 -22 14 -22 -20z"/>
<path d="M2700 3940 c-8 -5 -27 -10 -42 -10 -37 0 -40 -37 -4 -46 48 -12 71
-2 74 34 3 33 -3 38 -28 22z"/>
<path d="M3872 3891 c-12 -7 -12 -12 -1 -30 13 -20 6 -29 -101 -137 -106 -106
-117 -115 -146 -110 -62 9 -59 -14 13 -86 70 -70 81 -76 101 -56 9 9 7 17 -10
35 l-22 23 39 40 38 39 43 -39 c72 -66 160 -67 226 0 46 46 51 94 15 151 -18
31 -167 179 -178 179 -2 0 -10 -4 -17 -9z m105 -153 c34 -31 31 -82 -6 -119
-45 -44 -90 -39 -131 15 -13 17 -10 23 45 72 33 29 62 54 64 54 3 0 15 -10 28
-22z"/>
<path d="M1115 3861 c-49 -30 -113 -106 -124 -149 -15 -56 -4 -97 36 -132 41
-36 56 -37 163 -5 98 29 104 30 124 9 23 -22 20 -48 -10 -83 -29 -34 -73 -42
-94 -16 -16 20 -33 19 -52 -2 -15 -17 -13 -22 27 -66 l43 -49 30 16 c133 69
190 229 105 296 -33 26 -83 26 -165 0 -104 -33 -138 -26 -138 28 0 21 49 72
70 72 9 0 27 -10 39 -22 l24 -21 17 23 c17 23 17 24 -19 71 -20 26 -38 48 -41
48 -3 1 -18 -7 -35 -18z"/>
<path d="M947 3182 c-21 -23 -22 -65 -3 -81 11 -10 21 -6 49 19 42 36 47 37
47 5 0 -16 -6 -25 -15 -25 -8 0 -15 -7 -15 -15 0 -19 27 -9 40 16 17 30 12 57
-12 65 -17 5 -27 0 -44 -21 -14 -18 -28 -26 -38 -22 -22 8 -20 24 4 44 11 10
20 21 20 25 0 14 -16 9 -33 -10z"/>
<path d="M1721 3189 c-58 -11 -109 -46 -146 -99 l-30 -43 -3 -541 -3 -540 26
-53 c33 -66 92 -109 169 -124 34 -6 339 -9 828 -7 l773 3 48 23 c26 13 61 40
77 60 60 72 61 88 58 649 l-3 508 -27 45 c-33 56 -62 84 -113 107 -37 17 -93
18 -825 20 -432 0 -805 -3 -829 -8z m1628 -97 c19 -9 44 -30 55 -45 21 -28 21
-40 24 -545 3 -583 5 -566 -73 -609 l-40 -23 -789 0 c-779 0 -789 0 -825 21
-20 11 -45 32 -56 47 -19 26 -20 45 -23 537 l-3 511 23 43 c46 86 -12 81 883
81 732 0 793 -1 824 -18z"/>
<path d="M2067 2896 c-90 -32 -150 -122 -148 -222 1 -135 114 -234 253 -221
76 7 129 41 173 112 57 92 34 226 -50 291 -68 52 -152 67 -228 40z m161 -92
c60 -39 81 -138 42 -202 -27 -44 -96 -75 -146 -66 -92 17 -150 124 -110 202
43 82 141 113 214 66z"/>
<path d="M2798 2673 c-23 -6 -34 -49 -18 -68 18 -22 422 -22 440 0 17 21 4 61
-22 69 -26 7 -374 6 -400 -1z"/>
<path d="M2782 2378 c-19 -19 -14 -45 10 -62 23 -16 167 -23 216 -10 26 8 39
48 22 69 -16 19 -229 22 -248 3z"/>
<path d="M1966 2325 c-77 -27 -146 -124 -146 -206 0 -34 23 -53 54 -45 20 5
27 16 36 61 9 41 19 61 45 84 42 36 89 45 227 39 141 -5 185 -33 206 -134 9
-44 34 -64 60 -48 12 9 17 25 17 62 -1 72 -43 137 -114 174 -51 27 -58 28
-200 28 -98 -1 -159 -5 -185 -15z"/>
<path d="M4019 3175 c-36 -19 -42 -40 -23 -77 14 -27 19 -30 51 -25 65 11 89
50 57 95 -17 25 -47 28 -85 7z m76 -35 c0 -17 -9 -29 -29 -39 -54 -25 -91 25
-39 53 40 22 68 17 68 -14z"/>
<path d="M856 2961 c-6 -10 114 -54 123 -46 8 9 -12 22 -63 39 -58 19 -53 18
-60 7z"/>
<path d="M4064 2918 c4 -13 9 -35 12 -50 7 -32 24 -38 24 -8 0 14 11 22 43 31
46 13 64 25 54 35 -3 3 -27 -1 -53 -10 -49 -16 -64 -14 -64 10 0 8 -5 14 -11
14 -7 0 -9 -9 -5 -22z"/>
<path d="M817 2782 c-29 -32 -17 -92 19 -92 7 0 22 16 33 36 20 34 40 41 48
17 2 -6 -4 -18 -13 -27 -20 -21 -11 -34 11 -16 24 20 16 74 -12 78 -16 2 -26
-5 -38 -27 -8 -17 -22 -31 -30 -31 -18 0 -20 41 -3 58 6 6 9 14 6 17 -2 3 -12
-3 -21 -13z"/>
<path d="M4153 2713 c-21 -3 -33 -10 -33 -19 0 -10 6 -14 18 -10 9 3 38 8 65
12 26 3 47 10 47 15 0 9 -35 10 -97 2z"/>
<path d="M888 2539 c-3 -21 -7 -23 -60 -20 -32 1 -58 -2 -58 -7 0 -11 47 -22
90 -22 23 0 27 -4 23 -20 -3 -11 -1 -20 4 -20 14 0 26 91 14 103 -6 6 -11 0
-13 -14z"/>
<path d="M4151 2537 c-7 -9 -11 -31 -9 -49 2 -28 7 -33 28 -33 20 0 27 7 36
35 7 19 19 37 29 39 16 3 17 -2 11 -40 -6 -37 -5 -41 9 -29 19 16 20 64 0 80
-23 19 -47 7 -60 -29 -6 -19 -17 -37 -23 -39 -17 -5 -26 26 -12 43 6 8 10 19
8 26 -2 7 -8 6 -17 -4z"/>
<path d="M818 2313 c-38 -4 -38 -5 -38 -49 0 -24 5 -44 10 -44 6 0 10 16 10
35 0 28 4 35 20 35 16 0 20 -7 20 -30 0 -16 5 -30 10 -30 6 0 9 14 8 32 -2 23
2 33 13 36 12 2 20 -8 27 -35 l10 -38 1 48 c1 52 6 50 -91 40z"/>
<path d="M4136 2301 c-5 -7 3 -11 21 -12 15 0 36 -4 46 -7 14 -6 9 -12 -28
-30 -50 -24 -56 -37 -22 -46 36 -9 107 -7 107 4 0 6 -18 10 -40 10 -51 0 -51
12 -1 35 44 19 62 45 32 45 -10 0 -38 3 -63 6 -29 4 -48 2 -52 -5z"/>
<path d="M873 2081 c-74 -17 -85 -36 -15 -27 45 6 46 6 25 -10 -28 -20 -30
-44 -4 -44 35 0 32 -19 -4 -26 -19 -3 -35 -10 -35 -15 0 -12 8 -11 69 3 61 14
66 34 11 43 -22 4 -40 9 -40 13 0 3 14 17 31 32 47 38 34 48 -38 31z"/>
<path d="M4050 2055 c0 -5 5 -17 10 -25 5 -8 10 -10 10 -5 0 6 -5 17 -10 25
-5 8 -10 11 -10 5z"/>
<path d="M4133 2043 c-60 -6 -57 -30 9 -76 52 -36 72 -41 49 -13 -16 19 -5 56
23 78 21 18 21 18 -9 16 -16 -1 -49 -3 -72 -5z m40 -43 c-6 -24 -12 -25 -43
-3 l-25 18 30 6 c38 7 44 4 38 -21z"/>
<path d="M4023 1818 c-11 -16 -34 -68 -29 -68 2 0 29 -11 59 -25 33 -14 59
-20 62 -15 4 6 -5 14 -19 20 -34 13 -24 38 17 42 17 2 32 8 34 14 2 7 -6 10
-22 6 -19 -3 -30 1 -41 17 -17 23 -47 28 -61 9z m42 -37 c0 -27 -13 -35 -34
-22 -8 5 -11 16 -6 30 9 30 40 23 40 -8z"/>
<path d="M890 1800 c0 -5 7 -10 15 -10 21 0 50 -59 36 -73 -6 -6 -11 -15 -11
-20 0 -5 24 12 54 38 71 61 66 75 -25 75 -39 0 -69 -4 -69 -10z m100 -35 c-25
-27 -35 -26 -43 5 -4 17 0 20 31 20 l35 0 -23 -25z"/>
<path d="M3904 1589 c-14 -22 -23 -44 -19 -47 4 -4 11 1 17 11 9 17 12 16 53
-8 24 -14 48 -25 54 -25 23 0 9 16 -34 40 -47 25 -53 38 -33 58 9 9 9 12 0 12
-6 0 -23 -18 -38 -41z"/>
<path d="M1142 1461 c-30 -21 -49 -42 -43 -45 13 -8 113 63 105 75 -7 11 -1
14 -62 -30z"/>
<path d="M1249 1325 c-51 -48 -55 -70 -6 -29 16 14 31 24 32 22 2 -2 -2 -24
-7 -51 -6 -26 -8 -50 -4 -54 3 -4 26 13 51 37 52 51 52 64 1 25 -20 -15 -36
-26 -36 -24 0 2 7 26 15 53 8 28 12 53 8 57 -5 4 -29 -12 -54 -36z"/>
<path d="M3675 1300 l-29 -31 47 -47 47 -47 32 32 c18 18 28 36 24 40 -4 4
-18 -5 -30 -20 -22 -27 -23 -27 -39 -9 -16 18 -16 20 3 37 11 10 20 23 20 28
0 6 -11 0 -25 -13 -19 -18 -28 -21 -37 -12 -9 9 -7 16 6 31 30 34 13 44 -19
11z"/>
<path d="M1463 1182 c16 -17 15 -21 -18 -60 -20 -22 -31 -43 -26 -46 5 -4 25
13 44 36 31 37 37 40 51 29 34 -28 25 -2 -9 28 -38 33 -69 43 -42 13z"/>
<path d="M3486 1129 l-26 -21 32 -41 c17 -23 35 -46 39 -51 4 -5 21 1 38 13
37 26 40 57 10 95 -25 31 -57 33 -93 5z m76 -16 c25 -22 23 -60 -3 -68 -20 -7
-35 5 -60 49 -20 34 30 49 63 19z"/>
<path d="M1614 1006 l-32 -54 40 -22 c46 -26 64 -20 19 6 -34 20 -35 22 -22
42 7 12 14 11 40 -2 17 -9 31 -13 31 -8 0 5 -11 14 -25 20 -27 12 -30 19 -16
41 8 12 13 12 35 -2 28 -19 36 -21 36 -9 0 7 -56 42 -68 42 -4 0 -21 -25 -38
-54z"/>
<path d="M3164 942 l-31 -17 26 -57 26 -56 38 15 c45 18 50 37 6 21 -25 -8
-33 -8 -40 3 -6 9 -4 18 5 24 8 6 23 16 33 23 17 12 17 13 -2 6 -36 -12 -59
-9 -63 7 -2 11 7 20 27 27 17 6 31 13 31 16 0 11 -25 5 -56 -12z"/>
<path d="M1820 895 c-13 -31 -21 -57 -19 -59 13 -12 79 -33 79 -25 0 5 -11 14
-25 19 -30 11 -31 22 -5 78 14 32 16 42 6 42 -8 0 -24 -25 -36 -55z"/>
<path d="M2037 827 c-19 -61 -21 -77 -8 -77 9 0 41 94 41 119 0 29 -18 6 -33
-42z"/>
<path d="M2943 868 c-37 -12 -45 -31 -10 -23 21 6 25 1 37 -50 9 -36 17 -52
23 -46 6 6 5 26 -3 56 -12 42 -11 47 6 60 19 14 18 14 -1 14 -11 -1 -35 -6
-52 -11z"/>
<path d="M2212 818 c-5 -7 -13 -27 -16 -45 -14 -62 66 -101 100 -48 18 28 12
45 -19 45 -17 0 -19 -2 -8 -9 21 -14 5 -43 -21 -39 -19 2 -23 9 -23 42 0 50
24 69 54 41 24 -21 40 -13 21 10 -15 18 -74 20 -88 3z"/>
<path d="M2766 783 l6 -48 -40 45 c-22 25 -43 42 -47 39 -10 -11 9 -122 22
-126 8 -3 10 9 6 39 l-5 43 36 -37 c20 -21 41 -38 46 -38 9 0 7 45 -6 108 -9
43 -24 22 -18 -25z"/>
<path d="M2450 745 l0 -65 45 0 c25 0 45 5 45 10 0 6 -16 10 -35 10 -28 0 -35
4 -35 20 0 16 7 20 38 21 l37 2 -35 6 c-26 4 -35 11 -35 26 0 16 6 20 33 19
17 -1 32 2 32 7 0 5 -20 9 -45 9 l-45 0 0 -65z"/>
</g>
</svg>
